<svg width="1400" height="980" xmlns="http://www.w3.org/2000/svg">
 <defs>
  <linearGradient y2="0.53258" x2="0.112495" y1="0.496696" x1="0.924045" id="SVGID_1_">
   <stop stop-color="#E8DFA5" offset="0"/>
   <stop stop-color="#FEFCE3" offset="1"/>
  </linearGradient>
  <linearGradient y2="0.442329" x2="0.08656" y1="0.554344" x1="0.775454" id="SVGID_2_">
   <stop stop-color="#CCC484" offset="0"/>
   <stop stop-color="#FFF5BF" offset="1"/>
  </linearGradient>
  <linearGradient y2="0.349317" x2="0.074534" y1="0.670505" x1="0.87378" id="SVGID_3_">
   <stop stop-color="#9D9043" offset="0"/>
   <stop stop-color="#FEFCE3" offset="1"/>
  </linearGradient>
  <linearGradient y2="-0.140433" x2="0.437461" y1="0.192788" x1="0.467459" id="SVGID_4_">
   <stop stop-color="#8B833A" offset="0"/>
   <stop stop-color="#F6D671" offset="1"/>
  </linearGradient>
  <linearGradient y2="-0.258491" x2="0.441211" y1="0.151517" x1="0.466924" id="SVGID_5_">
   <stop stop-color="#8B833A" offset="0"/>
   <stop stop-color="#C49E44" offset="1"/>
  </linearGradient>
  <linearGradient y2="-0.275229" x2="0.454056" y1="0.266119" x1="0.480841" id="SVGID_6_">
   <stop stop-color="#3D5D2B" offset="0"/>
   <stop stop-color="#C49E44" offset="1"/>
  </linearGradient>
  <linearGradient y2="1.05647" x2="0.499995" y1="-0.917771" x1="0.499995" id="SVGID_7_">
   <stop stop-color="#024F34" offset="0"/>
   <stop stop-color="#7F6D21" offset="1"/>
  </linearGradient>
  <linearGradient y2="0.824786" x2="0.505766" y1="-0.285607" x1="0.537957" id="SVGID_8_">
   <stop stop-color="#024F34" offset="0"/>
   <stop stop-color="#7F6D21" offset="1"/>
  </linearGradient>
  <linearGradient y2="0.421041" x2="0.5" y1="-0.549026" x1="0.5" id="SVGID_9_">
   <stop stop-color="#024F34" offset="0"/>
   <stop stop-color="#7F6D21" offset="1"/>
  </linearGradient>
  <linearGradient y2="1.073439" x2="0.499983" y1="-0.109188" x1="0.499983" id="SVGID_10_">
   <stop stop-color="#003333" offset="0"/>
   <stop stop-color="#7F6D21" offset="1"/>
  </linearGradient>
  <linearGradient y2="9.233531" x2="0.501683" y1="-0.274316" x1="0.501683" id="SVGID_11_">
   <stop stop-color="#003333" offset="0"/>
   <stop stop-color="#7F6D21" offset="1"/>
  </linearGradient>
  <linearGradient y2="8.1337" x2="0.498511" y1="-0.731639" x1="0.498511" id="SVGID_12_">
   <stop stop-color="#003333" offset="0"/>
   <stop stop-color="#7F6D21" offset="1"/>
  </linearGradient>
  <linearGradient y2="9.194588" x2="0.500279" y1="-0.300593" x1="0.500279" id="SVGID_13_">
   <stop stop-color="#003333" offset="0"/>
   <stop stop-color="#7F6D21" offset="1"/>
  </linearGradient>
  <linearGradient y2="9.303691" x2="0.5" y1="-0.568769" x1="0.5" id="SVGID_14_">
   <stop stop-color="#003333" offset="0"/>
   <stop stop-color="#7F6D21" offset="1"/>
  </linearGradient>
  <linearGradient y2="8.649869" x2="0.501361" y1="-0.439491" x1="0.501361" id="SVGID_15_">
   <stop stop-color="#003333" offset="0"/>
   <stop stop-color="#7F6D21" offset="1"/>
  </linearGradient>
  <linearGradient y2="63.82548" x2="0.5" y1="-7.44006" x1="0.5" id="SVGID_16_">
   <stop stop-color="#003333" offset="0"/>
   <stop stop-color="#7F6D21" offset="1"/>
  </linearGradient>
  <linearGradient y2="8.641521" x2="0.500186" y1="-0.87246" x1="0.500186" id="SVGID_17_">
   <stop stop-color="#003333" offset="0"/>
   <stop stop-color="#7F6D21" offset="1"/>
  </linearGradient>
  <linearGradient y2="63.82548" x2="0.5" y1="-7.44006" x1="0.5" id="SVGID_18_">
   <stop stop-color="#003333" offset="0"/>
   <stop stop-color="#7F6D21" offset="1"/>
  </linearGradient>
  <linearGradient y2="63.82548" x2="0.5" y1="-7.44006" x1="0.5" id="SVGID_19_">
   <stop stop-color="#003333" offset="0"/>
   <stop stop-color="#7F6D21" offset="1"/>
  </linearGradient>
  <linearGradient y2="68.9172" x2="0.5" y1="-10.266733" x1="0.5" id="SVGID_20_">
   <stop stop-color="#003333" offset="0"/>
   <stop stop-color="#7F6D21" offset="1"/>
  </linearGradient>
  <linearGradient y2="68.9172" x2="0.5" y1="-10.266733" x1="0.5" id="SVGID_21_">
   <stop stop-color="#003333" offset="0"/>
   <stop stop-color="#7F6D21" offset="1"/>
  </linearGradient>
  <linearGradient y2="9.303691" x2="0.499917" y1="-0.568769" x1="0.499917" id="SVGID_22_">
   <stop stop-color="#003333" offset="0"/>
   <stop stop-color="#7F6D21" offset="1"/>
  </linearGradient>
  <linearGradient y2="6.535718" x2="0.498376" y1="-0.413259" x1="0.498376" id="SVGID_23_">
   <stop stop-color="#003333" offset="0"/>
   <stop stop-color="#7F6D21" offset="1"/>
  </linearGradient>
  <linearGradient y2="8.429264" x2="0.505059" y1="-0.660097" x1="0.505059" id="SVGID_24_">
   <stop stop-color="#003333" offset="0"/>
   <stop stop-color="#7F6D21" offset="1"/>
  </linearGradient>
  <linearGradient y2="12.809194" x2="0.502885" y1="-1.249804" x1="0.502885" id="SVGID_25_">
   <stop stop-color="#003333" offset="0"/>
   <stop stop-color="#7F6D21" offset="1"/>
  </linearGradient>
  <linearGradient y2="8.032787" x2="0.500171" y1="-0.865981" x1="0.500171" id="SVGID_26_">
   <stop stop-color="#003333" offset="0"/>
   <stop stop-color="#7F6D21" offset="1"/>
  </linearGradient>
  <linearGradient y2="7.613497" x2="0.501703" y1="-1.171097" x1="0.501703" id="SVGID_27_">
   <stop stop-color="#003333" offset="0"/>
   <stop stop-color="#7F6D21" offset="1"/>
  </linearGradient>
  <linearGradient y2="6.730193" x2="0.498776" y1="-0.227642" x1="0.498776" id="SVGID_28_">
   <stop stop-color="#003333" offset="0"/>
   <stop stop-color="#7F6D21" offset="1"/>
  </linearGradient>
  <linearGradient y2="6.6069" x2="0.496889" y1="-0.069927" x1="0.496889" id="SVGID_29_">
   <stop stop-color="#003333" offset="0"/>
   <stop stop-color="#7F6D21" offset="1"/>
  </linearGradient>
  <linearGradient y2="6.485742" x2="0.492642" y1="-0.122989" x1="0.492642" id="SVGID_30_">
   <stop stop-color="#003333" offset="0"/>
   <stop stop-color="#7F6D21" offset="1"/>
  </linearGradient>
  <linearGradient y2="6.614715" x2="0.500413" y1="-0.487914" x1="0.500413" id="SVGID_31_">
   <stop stop-color="#003333" offset="0"/>
   <stop stop-color="#7F6D21" offset="1"/>
  </linearGradient>
  <linearGradient y2="6.658217" x2="0.494318" y1="-0.451495" x1="0.494318" id="SVGID_32_">
   <stop stop-color="#003333" offset="0"/>
   <stop stop-color="#7F6D21" offset="1"/>
  </linearGradient>
  <linearGradient y2="6.539062" x2="0.502675" y1="-0.57775" x1="0.502675" id="SVGID_33_">
   <stop stop-color="#003333" offset="0"/>
   <stop stop-color="#7F6D21" offset="1"/>
  </linearGradient>
  <linearGradient y2="8.416636" x2="0.51235" y1="-1.392141" x1="0.51235" id="SVGID_34_">
   <stop stop-color="#003333" offset="0"/>
   <stop stop-color="#7F6D21" offset="1"/>
  </linearGradient>
  <linearGradient y2="8.570757" x2="0.449015" y1="-1.238016" x1="0.449015" id="SVGID_35_">
   <stop stop-color="#003333" offset="0"/>
   <stop stop-color="#7F6D21" offset="1"/>
  </linearGradient>
  <linearGradient y2="8.499884" x2="0.507562" y1="-1.775513" x1="0.507562" id="SVGID_36_">
   <stop stop-color="#003333" offset="0"/>
   <stop stop-color="#7F6D21" offset="1"/>
  </linearGradient>
  <linearGradient y2="9.484701" x2="0.510668" y1="-2.118986" x1="0.510668" id="SVGID_37_">
   <stop stop-color="#003333" offset="0"/>
   <stop stop-color="#7F6D21" offset="1"/>
  </linearGradient>
  <linearGradient y2="21.407181" x2="0.499098" y1="-6.30177" x1="0.499098" id="SVGID_38_">
   <stop stop-color="#003333" offset="0"/>
   <stop stop-color="#7F6D21" offset="1"/>
  </linearGradient>
  <linearGradient y2="11.268148" x2="0.504139" y1="-2.390353" x1="0.504139" id="SVGID_39_">
   <stop stop-color="#003333" offset="0"/>
   <stop stop-color="#7F6D21" offset="1"/>
  </linearGradient>
  <linearGradient y2="13.274776" x2="0.503612" y1="-3.428811" x1="0.503612" id="SVGID_40_">
   <stop stop-color="#003333" offset="0"/>
   <stop stop-color="#7F6D21" offset="1"/>
  </linearGradient>
  <linearGradient y2="3.940184" x2="0.501079" y1="-0.014852" x1="0.501079" id="SVGID_41_">
   <stop stop-color="#003333" offset="0"/>
   <stop stop-color="#7F6D21" offset="1"/>
  </linearGradient>
  <linearGradient y2="5.484252" x2="0.497126" y1="-0.655395" x1="0.497126" id="SVGID_42_">
   <stop stop-color="#003333" offset="0"/>
   <stop stop-color="#7F6D21" offset="1"/>
  </linearGradient>
  <linearGradient y2="1.690958" x2="0.5" y1="-0.504983" x1="0.5" id="SVGID_43_">
   <stop stop-color="#003333" offset="0"/>
   <stop stop-color="#7F6D21" offset="1"/>
  </linearGradient>
  <linearGradient y2="5.245033" x2="0.498798" y1="-0.89461" x1="0.498798" id="SVGID_44_">
   <stop stop-color="#003333" offset="0"/>
   <stop stop-color="#7F6D21" offset="1"/>
  </linearGradient>
  <linearGradient y2="5.413881" x2="0.503407" y1="-0.715685" x1="0.503407" id="SVGID_45_">
   <stop stop-color="#003333" offset="0"/>
   <stop stop-color="#7F6D21" offset="1"/>
  </linearGradient>
  <linearGradient y2="5.695079" x2="0.499995" y1="-1.337291" x1="0.499995" id="SVGID_46_">
   <stop stop-color="#003333" offset="0"/>
   <stop stop-color="#7F6D21" offset="1"/>
  </linearGradient>
  <linearGradient y2="6.710144" x2="0.500157" y1="-1.692738" x1="0.500157" id="SVGID_47_">
   <stop stop-color="#003333" offset="0"/>
   <stop stop-color="#7F6D21" offset="1"/>
  </linearGradient>
  <linearGradient y2="5.553667" x2="0.500492" y1="-0.585979" x1="0.500492" id="SVGID_48_">
   <stop stop-color="#003333" offset="0"/>
   <stop stop-color="#7F6D21" offset="1"/>
  </linearGradient>
 </defs>
 <g>
  <title>background</title>
  <rect fill="none" id="canvas_background" height="402" width="582" y="-1" x="-1"/>
 </g>
 <g>
  <title>Layer 1</title>
  <g id="svg_1">
   <rect id="svg_2" height="980" width="1399" fill="#FDFEF0" clip-rule="evenodd" fill-rule="evenodd"/>
  </g>
  <g id="svg_3">
   <path id="svg_4" d="m-300,192.3l0,787.7l1400,0l0,-807.6c-17,0 -55.8,-2 -71.1,-6.1c-16.1,-4.3 -76.2,-10.7 -77,-11c-45.5,-20.6 -55.7,3.8 -103.1,-18.4c-19.2,-4 -90.9,-28.9 -91.3,-28.9c-28.4,-2.2 -46.3,-5.6 -73.1,-16.3c-14.2,-5.6 -50.1,12.2 -62.4,19.6c-3.5,2.1 -10.7,4.3 -14.8,4.6c-4.2,-1 -8.4,-2 -12.6,-3c-39.5,-9.7 -102.1,38 -136.1,39.6c-10.8,0.9 -21.6,1.9 -32.4,2.8c-7.8,-0.7 -60,40.3 -106.5,37c-9.6,0.9 -19.1,1.9 -28.7,2.8c-13.4,0.6 -26.8,1.3 -40.3,1.9c-13.3,3.9 -26.5,7.7 -39.8,11.6c-9,0 -25.5,-7.7 -37.1,-1.8c-25.3,12.9 -43.4,-0.5 -59.2,-0.5c-15.7,-0.3 -31.5,-0.6 -47.2,-0.9c-5.1,-0.3 -10.2,-0.6 -15.3,-0.9c-10.6,-1.2 -21.3,-2.5 -31.9,-3.7c-8.2,1.5 -16.3,3.1 -24.5,4.6c-8.8,-0.1 -17.6,-0.3 -26.4,-0.5c-3.7,-0.8 -7.4,-1.5 -11.1,-2.3c-12.4,0 -16.4,-0.1 -28.2,1.4c-58.8,7 -98,-15.7 -157.9,-15.7c-7.1,-0.1 -14.2,-0.3 -21.3,-0.5c-5.4,-0.2 -10.8,-0.3 -16.2,-0.5l-34.5,5z" fill="url(#SVGID_1_)" clip-rule="evenodd" fill-rule="evenodd"/>
  </g>
  <g id="svg_5">
   <path id="svg_6" d="m-300,970l1400,0l0,-743.7c-52,-19 -95.4,-1.1 -151.8,-11c-44,-7.7 -27.4,-13.6 -76,-2.1c-78,18.5 -115.4,11.2 -192.9,11.2c-7.8,-0.5 -15.7,-0.9 -23.6,-1.4c-42.2,0 -130.3,0.8 -166.8,-6.4c-26.8,1.4 -8,-8.8 -47.2,4.5c-20.3,6.9 -58.9,0.9 -88.3,5.6c-5.7,-0.5 -11.4,-0.9 -17.1,-1.4c-21.2,0 -41.5,-11.1 -77.4,-7.3c-31.3,3.2 -40.1,11.7 -73.1,1.9c-19.7,-5.8 -36.2,18.4 -84.2,9.1c-11.3,-2.2 -43.2,10.3 -71.7,10.3c-5.6,-0.3 -11.1,-0.6 -16.7,-0.9c-35.7,17 -103.8,-6 -153.1,-1.8c-21.3,1.8 -130.7,0 -151,-5.2c-3,-0.6 -6,-1.2 -9,-1.8l0,740.4l-0.1,0z" fill="url(#SVGID_2_)" clip-rule="evenodd" fill-rule="evenodd"/>
  </g>
  <g id="svg_7">
   <path id="svg_8" d="m-300,963l1400,0c0,-169.1 0,-517.4 0,-685.3c-15,-2 -27.9,0.1 -43,-2.6c-24.2,-4.4 -27.1,-9.3 -57.6,-11.3c-2,-0.1 -20.5,-4.2 -21.5,-4.9l0,-3.5l-5,-1.4l0,2.8l-4,-0.9l0,-3.3l-1,-0.5l0,3.8l-3,0l0,-5l-2,0l0,2l-3,0l0,-4.1l-1,-0.3l0,6.4l-1,0l0,-3l-4,0l0,-0.7l-1,-0.5l0,6.2l-2,1.1l0,-4l-2,1.2l0,5.3l-2,-0.5l0,-7l-1,0l0,6l-4.7,0l-2.5,1.4l-1.8,0.5l0,-5l-2,0l0,5.5l-2,0.2l0,-1.9l-1,-0.2l0,2.6c-1,1.1 -1.9,2.5 -2.9,3.6c-1,0.3 -1.9,0.3 -2.9,1.3c-0.8,0 -1.7,0 -2.5,0c-0.8,0 -1.5,0.4 -2.3,0.8c-2.8,0.5 -5.6,0.7 -8.4,1.2c-0.3,0.2 -0.7,0.3 -1,0.5c-2.9,1.5 -43.7,4.7 -56.3,7.2c-14.5,2.9 -34.5,1.5 -40.1,2.9c-12.1,0.4 -24.2,0.8 -36.4,1.1c-26,0 -36.3,-3.3 -60.7,4.2c-16,4.9 -21.7,-6.8 -47.9,1.9c-1.7,0.5 -7,1.9 -8.9,1.8c-3.3,-0.9 -7.7,-1.9 -9.7,-2.8l0,-4.4l-3,-0.6l0,6.3l-2,0l0,-6.3l-3,1.4l0,10.8l-2,0l0,-9l-1.6,0l-0.7,1c-3.5,0 -18.4,-8.4 -23.7,-2.7c-0.1,0.2 -10,4.4 -11,4.4l0,-5.6l-3,-2.9l0,5l-1.4,0.5c-1.5,1.9 -1.6,1.2 -4.6,2.1l0,-4.2l-5,-1.1l0,5.5l-3,1l0,-3.6l-4,2.1l0,5.6c-3,-0.1 -6,-0.3 -9,-0.5c-15.2,0 -67.3,3.4 -80.4,6.5c-3,0.1 -6.4,0 -9.4,0c-3.5,1.3 -7,2.6 -10.4,4c-18.8,0 -35,6 -53.8,6c-0.5,0 -21.6,6.1 -27.9,6.5c-0.3,0 -0.6,0.1 -0.9,0.1c-1.8,0.1 -3,0.6 -4.7,1c-0.6,-0.1 -1.2,-0.3 -1.9,-0.5c-35.9,11.1 -49.9,4.2 -66.9,8.9c-1,0.3 -2,0.7 -3,1c-3.1,0.9 -6.2,1.9 -9.3,2.8c-114.8,-0.5 -252.5,17.9 -365.7,33.9c-59.6,8.5 -178.6,21.4 -240.6,21.4l0,580.8z" fill="url(#SVGID_3_)" clip-rule="evenodd" fill-rule="evenodd"/>
  </g>
  <g id="svg_9">
   <path id="svg_10" d="m1100,346l0,622l-1400,0l0,-697.7l5,0.2l-0.2,2.5l3.5,0.2l2.8,-1.4l0.2,2.6l13.9,1.6c3.9,1.1 19.4,3.9 19.5,3.9l-0.2,-7l17.6,0l0.5,7c7.4,0 23.8,3.6 27.8,-2.6c1.4,-2.2 4.1,3.7 10.5,-0.9c0.2,-0.1 6.3,-2.4 6.3,2.2l0,1.4c4,1.3 1.7,-1.6 6.5,-1.6l1.4,0.8c1.2,0.9 0.9,1.8 2.1,1.8l0.5,0c17.9,0 17.8,-2.3 38.9,0.3c16.4,2.1 15,8.2 32.8,3.1c0.6,-0.2 1.8,-0.5 2.4,-0.3c1,0.3 1.3,2.1 2.3,2.1c0.9,0 1,-1.8 2,-2c0.5,-0.1 3.6,5 4.4,5.6c0.5,0.4 1,0.7 1.5,0.6c1.6,-0.4 3.2,-2.3 4.6,-1.6c9.1,4.5 0.7,0.1 8.1,2.8c0.6,0.2 1,0.8 1.6,0.9c0.8,0.2 6.5,-2.4 6.7,-2.8c0,0 4.2,-14.6 4.2,-4.4c0,5.9 0.2,4.8 1.2,7c0.5,1 0.4,-8 4,-0.6c0.2,0.5 12.2,-1.7 12.2,-1.7c0.9,0.3 0.9,2.3 2.1,2.5c4,0.7 -3.8,-1.8 2.6,-2.5c0.7,-0.1 -0.3,-0.8 0.5,-1.7c0.6,-0.7 2.2,1.5 2.3,1.6c0,0.1 5.1,-15.5 5.6,-5.9c0.1,2.2 0,5.5 1.7,7.3c1.3,1.4 3,-3.4 6.2,0.9c0.5,0.7 11,-3.4 13.8,-3c1.8,0.3 4.4,-0.8 6.3,2.9c1.3,2.7 1,-7.2 9.4,-3.4c0.8,0.4 1,1.7 1.9,2.1c0.7,0.2 1.6,-0.1 2.1,-0.6c0.3,-0.3 -0.3,-1.2 0.1,-1.5c0.7,-0.6 1.7,-0.6 2.6,-0.9c0.6,-0.2 1.2,-0.3 1.7,-0.6c0.1,0 0,-0.5 0,-0.6c0,-0.3 -0.1,-0.6 0,-0.9c0.4,-1.7 0.7,-3.4 1.4,-5c0.1,-0.3 0.7,0.1 0.8,0.3c0.8,1.3 0.2,0.5 0.2,0.6c0,0.5 0.1,0.9 0.1,1.4c0,0.5 -0.3,1 0,1.4c0.8,0.9 2,1.4 3,2c0.1,0.1 0.2,0 0.3,0c0.3,-0.2 0.7,-0.4 0.9,-0.7c0.3,-0.6 0.2,-0.5 0.2,-1.2c0.1,-1 -0.1,-2.2 0.3,-3.1c0.2,-0.5 0.8,-0.7 1,-0.3c0.5,0.6 0.6,1.4 0.8,2.2c0.1,0.3 -0.1,0.6 0,0.9c0.2,0.6 0.7,1.2 1,1.7c0.4,0.7 0.1,0.8 0.2,1.6c0.1,0.5 0.3,1 0.7,1.4c0.8,0.6 0.9,0.5 1.9,0.3c0.2,-0.1 0.3,-0.5 0.3,-0.7c0.1,-0.4 0.2,-1.2 0.5,-1.5c0.4,-0.5 0.9,-0.8 1.4,-1.2c0.1,-0.1 0.3,0 0.3,0.1c0.2,0.5 0,1.1 0.2,1.6c0.4,0.8 0.1,0.5 0.8,0.9c0.7,0.4 1.6,0.2 2.2,0.8c0.7,0.7 0.3,1 0.6,2.1c0.1,0.5 0.6,0.8 1,1.2c0.7,0.5 1,1.1 1.9,0.7c0.4,-0.2 0,-0.9 0.1,-1.4c0.2,-1.1 0.3,-1.3 1.2,-2c0.3,-0.2 0.8,-0.5 1.3,-0.5c1,0 1.2,2 1.4,2.2c0.1,0.2 0.3,0.3 0.5,0.5c0.6,0.3 2.8,0.7 3,-0.1c0.1,-0.2 0,-0.7 0.2,-0.7c0.7,0 2.4,1.1 2.9,1.5c0.1,0.1 0,0.5 0.2,0.6c0.8,0.6 1,0.4 2,0.3c0.5,0 1.1,0 1.3,-0.3c0.2,-0.5 -0.6,-1.3 -0.2,-1.6c0.5,-0.5 1.5,0.3 2.1,-0.1c0.6,-0.4 0.6,-1.4 1,-2c0.3,-0.4 0.2,-0.2 0.7,-0.2c0.7,0 1.5,-0.4 2,0c0.6,0.5 0.2,0.7 0.3,1.5c0.1,0.7 0.2,1.4 0.7,1.9c0.4,0.4 0.6,0.4 1,0.1c0.3,-0.2 0.3,-0.7 0.3,-1.2c0.1,-0.3 0,-0.7 0,-1c0.4,-2.3 0.3,-4.8 1.3,-7c0.3,-0.6 0.9,-0.1 1.3,0.3c0.6,0.8 1,1.7 1.3,2.7c0.2,0.8 0,1.6 0,2.4c0,0.9 0.1,1.7 0.2,2.7c0,0.2 0.2,0.8 0.5,0.8c1,0.1 2,-0.1 3,-0.2c0.6,-0.1 0.6,-0.3 1,-0.1c0.4,0.2 0.6,0.7 0.9,1c0.4,0.3 0.3,0.4 0.8,0.3c0.8,-0.1 1.6,-0.2 2.4,-0.3c0.5,-0.1 2.6,-0.5 3,-0.5c1.3,-0.1 2.6,-0.4 3.8,-0.3c0.7,0 1.1,0.9 2.3,0.8c1.4,0 2.9,-0.2 4.3,0c0.3,0 50.2,5.7 60.4,8.9c0.7,0.2 11.2,2.3 11.2,2.3c2.4,0.2 4.8,0.7 7.2,0.7c1.3,0 4.4,-2.7 7.2,0.5c2.7,3 8,0.8 12,1.2c8.4,0.8 11.2,2.4 21.5,2.5c0.5,0 1.2,0.7 1.4,0.2c2.4,-5.2 3.4,0.7 3.5,0.7c1,0 2,-0.2 3,0c4.2,1 22,3.4 26.8,3c1.2,-0.1 2.7,-0.3 3.3,-1.4c0.7,-1.5 -0.2,-0.7 0,-0.9c0.2,-0.2 1.2,-0.8 2,-0.2c0.5,0.3 -0.3,1.1 0.2,1.2c1.4,0.2 2.9,-0.1 4.4,-0.5c1.5,-0.3 2.9,0.6 3.4,-0.5c0.9,-1.9 3.2,-2.1 4.4,-0.4c0.8,1.1 2.4,1.1 3.7,1.4c0.7,0.2 2.4,-0.3 3.3,-0.5c3.1,-0.5 6.3,0.7 9.5,0.7c14.7,0.2 41.7,0 54.5,6.4c0.2,0.1 6,1.6 6.2,1.6c2.7,0.1 5.4,0.5 8.1,0.5c12.1,0.1 23.3,-2.5 39.4,-2.5c5.1,0 7.7,1.5 13.8,1.9c3.7,0.2 7.5,0.7 11.1,1.6c10.5,2.4 41.6,-1.4 54.9,-1.4l4.4,0c1.3,0 3.6,0 4.6,-1.3l0,-5.4l6.6,-0.9l28.4,0.2l0,6.3l17,0l0,4.1c3,0 5.2,-0.2 7.8,0c0.9,0.1 31.2,4.3 32.4,4.4c1.5,0.1 3.1,1.1 4.6,0.7c11.4,-3 66.4,-1.5 78.4,-1.6c2.1,0 4.2,-0.4 6.3,-0.5c14.9,-0.1 3.8,-2.1 20.4,0.5c23.3,3.5 42,5.4 64.4,7.8c1.5,0.2 3.1,0.1 4.6,0.3c1.8,0.2 3.6,1.5 5.3,0.9c20.4,-6.6 31.2,-7.3 51.5,-4.7c0.2,0 0.4,0.1 0.6,0.1c8.3,1 35.2,5.2 46.7,5.1c6,-0.1 13.3,0 19.7,0.2c2.5,0.1 5,-0.1 7.4,0.7c0.6,0.2 2.1,2.3 2.8,2.5c28.6,9 156.3,-3 191.2,-5.8c18.4,-1.4 14.9,6.8 29.1,7.5c2,0.1 3.6,1.7 5.6,2.3c1.8,0.5 3.8,0.6 5.7,0.8c1.7,-0.1 3.2,1.5 4.5,1.5l0,0z" fill="url(#SVGID_4_)" clip-rule="evenodd" fill-rule="evenodd"/>
  </g>
  <g id="svg_11">
   <path id="svg_12" d="m1100,485.7l0,439.3l-1400,0l0,-684.1c1,0 3.6,0.6 4.6,1.2c6.8,3.6 2,12.4 11.3,7.7c0.1,-0.1 1.7,-0.3 1.7,0.5c0.6,5.9 5.6,14 11.2,14.3c0.2,0 0.2,1.6 0.2,2.4c0,0.5 -0.2,1.1 0,1.6c1.7,5.1 3.4,-0.1 10.7,5.2c0.1,0.1 5.2,1.9 5.3,2c0.8,1.4 4.5,0.8 6,0.9c1.2,0.1 2.4,0.6 3.7,0.7c0.6,0.1 1.1,0 1.6,0c0.2,0 0.6,0.2 0.8,0c0.8,-0.9 0.7,-0.6 0.7,-1.6c0,-0.6 0,-1.2 0,-1.9c0,-0.6 -0.1,-1.2 -0.1,-1.9c0.1,-0.7 -0.1,-1.5 0.2,-2.1c1.3,-2.3 2.5,-0.6 4.1,-2.1c0.9,-0.8 1.2,-2 2.1,-2.8c1.6,-1.4 0.2,-0.9 2.5,-0.9c0.2,0 0.3,0 0.5,0c1.5,0.6 0.8,0.2 0.7,0.5c-0.1,1 -0.2,0.6 0.4,1.2c0.7,0.7 2,0 3,0c0.6,0 1.9,0.1 2.3,0.5c0.3,0.2 0.6,0.6 0.9,0.9c0.2,0.2 2.6,2.9 2.8,3c0.2,0.2 0.8,-0.1 0.9,0.2c0.7,2.1 0.2,0.9 0.5,3.5c0.1,0.8 0.7,1.4 0.9,2.1c0.2,0.7 0.2,0.9 0.7,1.4c0.6,0.6 1,1.6 1.9,1.6c8.4,0.5 5.9,-2.6 10.4,-2.6c0.6,0 1.2,-0.4 1.6,0c1.2,1.2 0.7,2 1.6,3.2c0.5,0.8 1.5,1.2 2.3,1.6c0.9,0.4 3.1,0.1 3.9,0.7c1.1,0.7 1.1,2.4 2.1,3.2c0.5,0.5 0.5,0.3 1.2,0.5c0.8,0.2 2.6,-0.1 3.5,0c1.7,0.2 3.5,0.2 5.1,0.9c4.9,2.1 3,2.2 9.7,2.8c2.6,0.2 5.2,0.5 7.9,0.5c28.7,0.1 9.3,2.2 25.7,4.4c12.3,1.6 25.2,2.6 37.5,5.1c8.7,1.7 17.8,1.3 26.6,2.1c1.4,0.1 2.7,0.5 4,0.8c31.8,6.1 19.6,-12.6 52.7,6.4c0.5,0.3 66.9,12.4 80.7,16.2c25.5,7.1 66.7,15.1 88.7,23.3c33,12.3 59.1,18.2 91.9,29.2c13.6,4.5 27,9.6 40.3,14.8c7,2.7 11.3,-0.2 31.8,8.3c1.8,0.7 3.8,0 5.7,0.5c5.9,1.7 11.2,5.1 17.1,6.5c30.4,7.1 60.5,17.1 91.7,19c76.3,4.5 48.5,-4.5 119.4,4.4c0.8,0.1 1.7,0.2 2.5,0.3c103.8,12.9 216.7,33.3 309.9,40.2c2.9,0.2 5.7,0.4 8.6,0.6c55.4,4.1 126.3,7.5 177.1,9.1c6.8,0.2 12.8,4.4 19.5,5.6c4,0.7 8.2,0.1 12.2,0c8.5,-0.2 15,1.5 25,-0.9l0,0z" fill="url(#SVGID_5_)" clip-rule="evenodd" fill-rule="evenodd"/>
  </g>
  <g id="svg_13">
   <path id="svg_14" d="m238.4,488.1c18.4,-15.8 412.4,44 468.8,42.1c19,-0.7 73,-5.7 101.6,7.2c14.9,6.7 161.8,24.2 180.4,25.3c17.1,1 33.8,5.5 50.9,6.5c19.2,1.1 31.9,-6.1 39.1,-9.3c6.8,-3 13.8,-2.3 20.8,-4.6l0,412.7l-1400,0l0,-595.7c28.8,0 111.5,18.6 142.7,26.3c24.8,6.1 55.5,13.7 79.9,19.5c1.5,0.3 74.1,7.6 93.3,22.7c41.9,32.9 136,31.4 189.9,41.7c1.3,0.2 14,2.5 15,2.8c5.8,1.6 13.2,6.7 17.6,2.8l0,0z" fill="url(#SVGID_6_)" clip-rule="evenodd" fill-rule="evenodd"/>
  </g>
  <g id="svg_15">
   <path id="svg_16" d="m-302,515.1c19,-4.7 190.5,-12.5 224.5,1c17.4,6.9 257.2,6.2 282.9,7.6c111.9,6.3 224.1,3.2 336.1,3.7c158.6,0.7 175.1,-4.5 331,20.7c60.4,9.8 155.2,26.3 220,31.2c2.4,0.2 4.1,-0.1 4.6,-0.1l0.7,425.6l-1399.8,0l0,-489.7z" fill="url(#SVGID_7_)" clip-rule="evenodd" fill-rule="evenodd"/>
  </g>
  <g id="svg_17">
   <path id="svg_18" d="m1048.3,377.3c0.4,3.1 0,3.4 -3,3.4l-1.9,-0.5c-1.8,-2 -0.5,-0.6 -0.8,-0.9c0,0 -12.7,0.5 -13.1,-1.9l0.9,-2.1c0.2,-3.3 -10.4,-10.1 -8.7,-0.2c0.1,0.4 -2.8,3.7 -5.6,3.7l-3.7,-2.1c-1.8,-1.4 -3.8,-3.7 -6.4,-3c-3.1,12 -5,2.2 -6.2,7c-0.1,0 -10.4,0.7 -10.5,0.4l-2.5,-1.4l-2.3,4.9l-4.2,0.2l-2.1,3.3l-4.4,1.2l-2.3,-3.5l-3.7,-0.7l-0.2,7.4l-4.4,0.2l-2.8,-2.3l-4.6,-0.5l-3.2,-2.8l-2.1,1.4l-1.6,1.6l-6,-1.2l-1.6,-2.8l-6.9,-0.7l-1.9,-1.9l-2.6,2.8l-4.4,-1.6l-4.7,-1.9l-5.3,0.9l-2.3,4.9l-8.6,-0.7l-1.4,-3.9l-6.3,0.9l-2.1,4.6c-2.8,0 -16.3,1 -16,-4.2l-2.1,-3.2l-4.9,-0.5l-4.2,-2.1l-3.5,2.3l0.5,4.6l-2.1,1.9l-4.3,2.6l-0.4,-0.7l0,-6l-20,-5.3l-10.3,2.6l-15.8,4.1l0,5.1l-5.5,0.2c-1.8,-0.6 -5.1,-0.8 -6.9,-0.2c-0.2,1.2 -1.2,6.3 -3.4,5.5c-0.2,-0.9 -1.2,-3.9 -1.1,-4.6l-2.1,-2.3c-2.3,0 -0.7,0 -1,0.2c0.5,2.4 -0.3,2.9 -0.8,4.4c-0.3,0 -1,0.1 -1.3,0c-0.5,-1.3 0.9,-1.8 -1.9,-1.8l-0.2,0.5c0,3 -0.1,1.9 -0.6,4.2c-0.9,0.3 -9.3,-6.3 -12.6,-6.3l-5.6,3.2c-3.6,-0.8 -14,10 -18.3,10l-20.6,11.8c-3.4,0 -21.8,1.4 -22.9,4c-12.5,0 -0.1,7 -17.8,8.3c-0.4,0 -4.1,3.6 -5.6,4.7c-0.5,-0.1 -5,0.9 -5.1,1.4l-11.8,0.2c-12.3,0 -10.1,-1.8 -22,-0.7c-11,1 -0.9,-7.3 -17,3.4c-9.9,6.7 -0.4,7.2 -11.1,7.2l-3,-0.5c0,-1.2 0.2,-3.4 -0.3,-4.4c-5.2,-0.8 1.9,4.9 -5.7,4.9l-2.8,-2.8c-4.9,0 4.2,1 -4.4,4.7c-1.2,0.5 -1.5,2.9 -3,3l-3.7,-3.7c-3.4,-2.1 -1,-10.9 -4.8,1.6c-0.5,1.5 -2.8,4.5 -4.7,3l-1.9,-2.8c-1,0 -11.9,6 -15,7c-1.9,0.6 -3,2.9 -4,3.4c-0.1,0.3 -0.1,0.3 -0.4,0.6l-6.3,1.4c-2.2,-1.7 -3.5,3.4 -9.9,4.5l-5,3.1l558,0l0,-96.5l-4.2,0.6l-5.5,-0.9l-1.4,4.5l-3.5,1.6l-1.8,2.5l-5.3,-2.3l-1.6,-2.3l-5.1,0.7l-2.4,4.7l-4.1,-2.9l-4.4,-0.2l-2.6,4.9c-1.9,0.1 -4.4,-1.7 -4.4,-3.9l-5,-0.2z" fill="url(#SVGID_8_)" clip-rule="evenodd" fill-rule="evenodd"/>
   <path id="svg_19" d="m1100,398.2c-15,-0.3 -30.9,-0.9 -46.5,-0.9c-85,-0.2 -106.1,-6.9 -188.7,12c-1,0.2 -2,0.1 -3,0.1c-31.6,0.8 -231.1,39.8 -231.3,39.8c-133,25.6 -265.1,57 -399,76.8c-54.7,8.1 -107.4,20.4 -200.1,20.4c-57.6,0 -65.7,0.2 -118.4,13.9c-16.1,4.2 -31.7,10.6 -48.1,12.9c-13.6,2 -89.5,20.6 -141,20.4c-7.9,0 -14.9,-0.6 -23.9,-0.9l0,402.3l1400,0l0,-596.8z" fill="url(#SVGID_9_)" clip-rule="evenodd" fill-rule="evenodd"/>
  </g>
  <g id="svg_20">
   <path id="svg_21" d="m-299.9,560.6c64.1,-11.1 206,-35.9 342.3,-39.5c8,-0.2 32.3,-8.7 40,-12.1c7.3,-3.3 14.4,-7.7 22.3,-9.3c1.3,-0.2 41.2,-15.9 46,-20.8c7.2,-7.4 36.6,-14.8 57.2,-21.2c54.1,-16.8 84.4,-28.6 99.5,-30.6c11.9,-1.6 22,-0.9 35.3,-5.2c16.9,-5.6 38,-5.9 55.2,-3.1c7.4,1.2 17.2,-24.4 53.2,-30.8c116.6,-20.8 68.9,-1.6 190.8,30.9c43,11.5 62.2,-8.9 98.5,18.1c6.8,5 181.3,76.5 189.1,76.6c10.2,0.2 17.4,2.3 27.5,2.6c2.7,0.1 27,3.2 27.5,3.2c12.8,-0.9 79.5,8.3 96,9.1l19.5,0.9l0,452.6l-1399.9,0l0,-421.4z" fill="url(#SVGID_10_)" clip-rule="evenodd" fill-rule="evenodd"/>
   <path id="svg_22" d="m434.7,334.1c-2.8,0 -0.7,2.3 -3.7,4.3c-1.9,1.3 1,1.9 -3.4,3.5c-1.2,0.5 0.7,1 -1.3,4.1c-1,1.5 1.4,0.1 -2.1,4.4c-1.3,1.6 0.6,1.5 -1.4,4.9c0,0.1 0,0.1 -0.1,0.2c-0.3,0.5 -0.1,1 -0.1,1.6c-0.3,0.4 -0.7,0.8 -1.1,1.2c0,3.6 1.3,-0.7 0.1,4.2c0,0.1 0,0.1 -0.1,0.2c-1.6,6.6 1.6,-1.8 -0.9,4.6c-0.9,2.4 1.5,0.5 -0.2,4.6c-0.8,5.7 0.5,2.4 0.5,4.9c-0.2,0.3 -0.5,0.6 -0.7,0.8c-5.1,3.6 -0.6,4.1 -2.8,7.6c-1.3,2.1 1.1,1.1 -2,3.4c-2.4,4.5 11.7,5.9 11.9,9.1c0.1,1.5 -0.1,2.5 0.4,3.5c-0.1,1.5 -0.2,3.1 -0.2,4.6c-0.2,0.2 -0.7,1.3 -0.7,1.5c-0.2,0.1 -1.2,0.5 -1.4,0.6c-0.2,0.1 -0.4,0.2 -0.6,0.3c-0.3,0 -0.2,0 -0.5,0.1c-0.6,0.1 -1.1,0.1 -1.7,0.2c1.3,0.1 2.6,0.2 3.9,0.4c2.6,0 5.4,0.3 8.4,0.1c-4.2,-1.3 -4.9,-11.6 -3.7,-13.7c1.2,-0.2 2.4,-0.5 3.6,-0.7c0.9,0 1.9,-1.4 4.7,-2.1c1.8,-0.5 3.5,-5.1 2.4,-8.2c-0.2,-0.4 0,-0.7 -0.1,-1.1c0,-3.4 4.2,0.8 0.5,-6.6c0,0 -0.8,-4.4 -1.3,-5.7c0,-0.1 0,-0.3 0,-0.5c0.3,-0.8 0.6,-1.6 0.9,-2.5c2.5,-2.3 -0.5,-1.8 -0.4,-6.9c0,-0.9 -0.9,0.1 -0.7,-4.5c0.1,-1.7 -1.8,-6.5 -2.5,-8.3c-0.2,-1 -0.3,-2 -0.5,-2.9c0,-5.5 0.2,-2.4 -1.5,-5.8c-1.5,-2.9 -0.1,-0.4 -1.6,-2.6c-0.1,-0.2 0,-1.9 0,-2.3c0.1,0 0,-0.3 0,-0.5l0,0z" fill="url(#SVGID_11_)" clip-rule="evenodd" fill-rule="evenodd"/>
   <path id="svg_23" d="m388.2,376.5c-0.8,-0.2 -6.9,-2.4 -10.5,-0.7c-1.9,9.2 0.2,4.6 0,8.2c-0.1,1.3 -2.2,-1.1 -2.4,4.3c0,0.4 -0.6,0.9 -0.9,0.9c0.8,1 1.5,2.1 2.3,3.1c1.7,0.9 4.2,2.8 3.4,4.6c-1.7,0 -10.4,-9.2 -8.8,-1.1c0,0.2 0.6,0.4 1,0.9c-0.1,0.3 0,1.2 0,1.5c1.3,0.9 8.7,2.4 8.8,2.6c-0.1,0.5 0.2,0.3 0.1,0.8c2.1,1.8 4.2,3.6 6.3,5.4c2.9,1.2 4.3,4.7 -3.2,-0.9c-2.2,-0.5 -2.1,1 -5.5,-1.3c-0.9,0 -1.9,0 -2.8,-0.1c-0.1,0 -2.7,-0.4 -3.9,-0.4c0,5.8 -0.9,3.8 9.6,4.3c1.2,0 7.7,2.1 9.2,2.8c0.1,0 0.2,0.1 0.3,0.1c0,1 -22.3,1.2 -15.5,4.3c1.9,0.9 11.9,-1.2 15.1,-1.2c0.2,0.2 0.5,0.3 0.8,0.5c0,2.6 -10.9,5.4 -9.7,8.3c3.7,0.9 11.4,-5.5 11.4,1.2c-0.8,0.6 -1.5,1.2 -2.3,1.8c0,0.3 -0.3,0.6 -0.4,1c1,1 2.5,-2.3 2.5,2.4c0,2.4 0,4.8 0,7.1c0,0 0.8,5.5 0.8,6.2c0,0.2 -0.2,6.7 -1.4,6.9c-0.5,0.3 -0.9,0.7 -1.3,1.1c-0.6,0.5 -0.5,0.8 -1,0.8c1.6,0.1 3.2,0.2 4.8,0.3c1,0.3 2.7,0.6 3.6,0.6c0.6,0 1.2,0 1.9,0c-2.6,-4 -2.9,-15.5 -3.3,-21.1c-0.2,-2.5 0.2,-7.6 0.2,-10.7c0.5,0.1 0.9,0.2 1.4,0.3c2.7,3.1 1.5,5.2 5.1,5.2c0,-2.8 0.4,-2.3 -2.9,-3.9c-0.1,-1 -1.6,-4.4 -1.6,-4.4c-0.1,-0.6 -0.3,-1.2 -0.5,-1.7c0,0 6.7,2 6.7,2.1c0.3,0.1 4.3,3.4 6.4,2.7c0.3,-1.6 -9.2,-6.9 -11.4,-7.1c0.9,-0.3 1.9,-0.6 2.8,-0.9c3,0 15.3,2.6 15.2,-1.4c-2.4,0 -14,-0.3 -15.7,-0.9c-0.6,-1.6 1.7,-1.4 2.9,-2.2c0.3,0.1 2.8,-2 2.9,-2.1c2.8,0 1.8,0.9 3,1.2c0.2,0.6 5.6,0.7 7,0.3c-0.6,-7 -4.8,1.7 1.6,-5.7c0,0 1.9,-7.6 -5.4,-3.9c-5.5,2.8 -9,8.5 -12.5,8.5c-1.2,-1.4 2.2,-4.7 3.4,-5.5c0.6,-0.4 1.2,-0.8 1.7,-1.3c2.4,-1.7 -6.6,-3.8 0,-3.8c6.6,0 -1.8,2.6 7.9,-1c2.7,-1 4.4,-0.7 4.1,-5.5c-8.8,-3.1 0.9,-10.4 -7.3,-4.3c-0.2,0.2 -0.1,0.2 -0.5,0.2c-0.3,-0.6 -0.6,-1.2 -0.9,-1.7c1.2,-1.5 7.2,-9.6 -0.2,-7.8c-3.1,0.8 -4.4,4.5 -4.4,-2.5c-0.7,0 -1.4,0 -2.1,0c-0.2,0 -0.4,0 -0.6,0c-1.1,0 -0.8,1 -0.8,2.1c-1.6,0 -1.4,-0.7 -1.8,-2.1c-1.8,-0.2 -1.5,1.8 -1.5,2.8c-6,0 0.7,-4.8 -5.7,-4.3c-0.1,0 -0.2,0.1 -0.3,0.1c0.1,3.8 -1.5,9.3 -5.7,9.3c-0.1,-1.7 0.6,-5.3 0.5,-5.3l0,0z" fill="url(#SVGID_12_)" clip-rule="evenodd" fill-rule="evenodd"/>
   <path id="svg_24" d="m502.1,336.1c-1.7,0 -0.4,2.3 -2.2,4.3c-1.2,1.3 0.6,1.9 -2,3.5c-0.7,0.5 0.4,1.1 -0.8,4.1c-0.6,1.5 0.8,0.1 -1.2,4.4c-0.8,1.6 0.3,1.5 -0.8,4.9c0,0 0,0.1 0,0.2c-0.2,0.4 -0.1,1 -0.1,1.5c-0.2,0.4 -0.4,0.8 -0.6,1.2c0,3.6 0.7,-0.7 0,4.2c0,0.1 0,0.1 0,0.2c-0.9,6.6 0.9,-1.8 -0.5,4.6c-0.6,2.3 0.8,0.4 -0.1,4.6c-0.4,5.7 0.3,2.4 0.3,4.9c-0.1,0.3 -0.2,0.6 -0.4,0.9c-3,3.6 -0.4,4.1 -1.6,7.6c-0.7,2.1 0.7,1.2 -1.2,3.4c-1.4,4.5 6.8,5.9 6.9,9.1c0.1,1.5 0,2.5 0.2,3.5c-0.1,1.5 -0.1,3.1 -0.1,4.7c-0.1,0.2 -0.4,1.2 -0.4,1.5c-0.1,0.1 -0.7,0.5 -0.8,0.6c-0.1,0.1 -0.2,0.2 -0.3,0.3c-0.2,0 -0.1,0 -0.3,0.2c-0.3,0 -0.7,0.1 -1,0.1c0.7,0.1 1.5,0.2 2.2,0.4c1.5,0 3.1,0.3 5,0.1c-2.4,-1.2 -2.9,-11.6 -2.2,-13.7c0.7,-0.2 1.4,-0.5 2.1,-0.7c0.5,0.1 1.1,-1.3 2.8,-2.1c1.1,-0.5 2.1,-5.1 1.4,-8.2c-0.1,-0.4 0,-0.7 -0.1,-1.1c0,-3.4 2.4,0.8 0.3,-6.6c0,0 -0.5,-4.4 -0.8,-5.7c0,-0.1 0,-0.3 0,-0.5c0.2,-0.8 0.3,-1.6 0.5,-2.4c1.5,-2.3 -0.3,-1.8 -0.2,-6.9c0,-0.9 -0.5,0.1 -0.4,-4.5c0,-1.7 -1,-6.4 -1.4,-8.3c-0.1,-1 -0.2,-2 -0.3,-2.9c0,-5.5 0.1,-2.4 -0.9,-5.8c-0.8,-2.9 -0.1,-0.4 -0.9,-2.6c-0.1,-0.2 0,-1.9 0,-2.3c0,-0.3 -0.1,-0.5 -0.1,-0.7l0,0z" fill="url(#SVGID_13_)" clip-rule="evenodd" fill-rule="evenodd"/>
   <polygon id="svg_25" points="526.2999877929688,361.3999938964844 525.9000244140625,357.1000061035156 528.7000122070312,354.6000061035156 532.0999755859375,356.79998779296875 532.2000122070312,359.70001220703125 540.2000122070312,357.1000061035156 590,369.20001220703125 590.5999755859375,364.5 597.5999755859375,365 597.5999755859375,371 602,372.3999938964844 602,365.6000061035156 606.4000244140625,364.79998779296875 606.5999755859375,373.29998779296875 634,381.5 634,426.79998779296875 547,424.3999938964844 428,422.70001220703125 428,393.5 447,389 447,381.3999938964844 " fill="url(#SVGID_14_)" clip-rule="evenodd" fill-rule="evenodd"/>
   <path id="svg_26" d="m323.9,348c2.4,0 0.6,2.4 3.1,4.5c1.6,1.3 -0.8,2 2.9,3.6c1,0.5 -0.6,1.1 1.1,4.3c0.8,1.5 -1.2,0.1 1.7,4.6c1.1,1.6 -0.5,1.6 1.1,5.1c0,0.1 0.1,0.1 0.1,0.2c0.2,0.5 0.1,1.1 0.1,1.6c0.3,0.4 0.6,0.9 0.9,1.3c0,3.8 -1,-0.7 0,4.4c0,0.1 0,0.1 0,0.2c1.4,7 -1.3,-1.9 0.8,4.8c0.8,2.5 -1.3,0.5 0.1,4.8c0.6,6 -0.5,2.5 -0.5,5.1c0.2,0.3 0.4,0.6 0.6,0.9c4.3,3.8 0.5,4.3 2.3,7.9c1.1,2.3 -0.9,1.2 1.7,3.6c2.1,4.8 -9.8,6.2 -10,9.5c-0.1,1.5 0.1,2.6 -0.3,3.7c0.1,1.6 0.1,3.2 0.2,4.9c0.2,0.2 0.6,1.3 0.6,1.6c0.2,0.1 1,0.5 1.2,0.6c0.1,0.1 0.3,0.2 0.5,0.3c0.3,0 0.2,0 0.5,0.1c0.5,0.1 0.9,0.1 1.4,0.2c-1,0.1 -2.1,0.3 -3.2,0.4c-2.2,0 -4.6,0.3 -7.1,0.2c3.5,-1.3 4.1,-12.2 3.1,-14.4c-1,-0.2 -2,-0.5 -3,-0.7c-0.8,0 -1.6,-1.4 -4,-2.2c-1.5,-0.5 -3,-5.4 -2.1,-8.6c0.1,-0.4 0,-0.7 0.1,-1.1c0,-3.5 -3.5,0.8 -0.4,-6.9c0,0 0.7,-4.7 1.1,-5.9c0,-0.1 0,-0.3 0,-0.5c-0.2,-0.8 -0.5,-1.7 -0.7,-2.6c-2.1,-2.4 0.4,-1.9 0.3,-7.2c0,-0.9 0.7,0.1 0.6,-4.8c-0.1,-1.8 1.5,-6.8 2.1,-8.7c0.2,-1 0.3,-2 0.5,-3.1c0,-5.7 -0.2,-2.5 1.2,-6.1c1.3,-3.1 0.1,-0.4 1.3,-2.7c0.1,-0.2 0,-2 0,-2.4c0,0 0,-0.3 0.1,-0.5l0,0z" fill="url(#SVGID_15_)" clip-rule="evenodd" fill-rule="evenodd"/>
   <rect id="svg_27" height="10" width="5" fill="url(#SVGID_16_)" clip-rule="evenodd" fill-rule="evenodd" y="388" x="469"/>
   <path id="svg_28" d="m314,378.9c-2.3,0 -0.6,2.3 -3,4.3c-1.5,1.3 0.8,1.9 -2.7,3.5c-1,0.4 0.6,1 -1.1,4.1c-0.8,1.5 1.2,0.1 -1.6,4.4c-1,1.6 0.5,1.5 -1.1,4.9c0,0.1 -0.1,0.1 -0.1,0.2c-0.2,0.5 -0.1,1 -0.1,1.5c-0.3,0.4 -0.6,0.8 -0.9,1.3c0,3.6 1,-0.7 0,4.2c0,0.1 0,0.1 0,0.2c-1.3,6.6 1.3,-1.8 -0.8,4.6c-0.7,2.4 1.2,0.5 -0.1,4.6c-0.6,5.7 0.4,2.4 0.4,4.9c-0.2,0.3 -0.4,0.6 -0.6,0.8c-4.1,3.6 -0.5,4.1 -2.2,7.6c-1,2.2 0.9,1.2 -1.6,3.4c-2,4.5 9.4,5.9 9.6,9.1c0.1,1.5 -0.1,2.5 0.3,3.5c-0.1,1.5 -0.1,3.1 -0.2,4.6c-0.1,0.2 -0.6,1.3 -0.6,1.5c-0.2,0.1 -0.9,0.5 -1.1,0.6c-0.1,0.1 -0.3,0.2 -0.5,0.3c-0.3,0 -0.2,0 -0.4,0.1c-0.5,0.1 -0.9,0.1 -1.4,0.1c1,0.1 2.1,0.3 3.1,0.4c2.1,0 4.3,0.3 6.8,0.2c-3.4,-1.3 -4,-11.6 -3,-13.8c1,-0.2 1.9,-0.5 2.9,-0.7c0.7,0 1.5,-1.4 3.8,-2.1c1.4,-0.5 2.8,-5.1 2,-8.2c-0.1,-0.4 0,-0.7 -0.1,-1c0,-3.4 3.4,0.8 0.4,-6.6c0,0 -0.7,-4.4 -1,-5.7c0,-0.1 0,-0.3 0,-0.5c0.2,-0.8 0.5,-1.6 0.7,-2.5c2,-2.3 -0.4,-1.8 -0.3,-6.9c0,-0.9 -0.7,0.1 -0.5,-4.5c0,-1.7 -1.5,-6.5 -2,-8.3c-0.1,-1 -0.3,-2 -0.5,-2.9c0,-5.5 0.2,-2.4 -1.2,-5.8c-1.2,-3 -0.1,-0.4 -1.3,-2.6c-0.1,-0.2 0,-1.9 0,-2.3c0,-0.1 0,-0.3 0,-0.5l0,0z" fill="url(#SVGID_17_)" clip-rule="evenodd" fill-rule="evenodd"/>
   <rect id="svg_29" height="10" width="6" fill="url(#SVGID_18_)" clip-rule="evenodd" fill-rule="evenodd" y="388" x="515"/>
   <rect id="svg_30" height="10" width="6" fill="url(#SVGID_19_)" clip-rule="evenodd" fill-rule="evenodd" y="388" x="494"/>
   <rect id="svg_31" height="9" width="5" fill="url(#SVGID_20_)" clip-rule="evenodd" fill-rule="evenodd" y="406" x="469"/>
   <rect id="svg_32" height="9" width="6" fill="url(#SVGID_21_)" clip-rule="evenodd" fill-rule="evenodd" y="406" x="515"/>
   <polygon id="svg_33" points="444.79998779296875,381 545,381 539.4000244140625,360.6000061035156 540.0999755859375,358 547,381.79998779296875 547,424.3999938964844 634,426.79998779296875 634,381.5 606.7000122070312,373.29998779296875 606.2999877929688,364.79998779296875 602,365.6000061035156 602,372.3999938964844 597.5999755859375,371 597.5,365 590.5999755859375,364.5 590,369.20001220703125 540.0999755859375,357.1000061035156 532.0999755859375,359.70001220703125 532,356.79998779296875 528.4000244140625,354.6000061035156 525.2999877929688,357.1000061035156 525.2000122070312,361.20001220703125 " fill="url(#SVGID_22_)" clip-rule="evenodd" fill-rule="evenodd"/>
   <path id="svg_34" d="m456.6,356c-0.6,-0.1 -0.2,-0.1 -0.3,0c-1.9,2.8 -1.9,8.6 -3.3,8.5c0.1,-3.7 -1.7,-0.1 -1.9,0.1c-1.7,2.2 -3.5,6.8 -0.3,8.6c0.3,0.2 0.3,3.3 0.2,3.3c-0.1,0.6 -4.8,-1.9 -1.7,0.9c2.7,2.5 -5.7,3.1 -1.5,7.2c1,1 -0.4,4.4 -1.9,5.4c-1.2,0.7 0.6,1.9 0.3,4.7c-0.1,0.8 -0.1,1.5 -0.1,2.3l0.1,3.8c1.2,0.3 -0.9,6.5 -1.3,7.9l0.2,8.5c-0.1,3.5 -1.3,6.9 -3.3,9.6c-2,2.7 2.8,1.6 -0.2,6.8l-0.1,0.2c-1.5,2.7 1.5,3.7 3.3,5.3l7.1,2.2c2.7,-0.1 2.2,7.8 1.6,9.4l-0.8,4.8c-0.8,1.4 -2.3,2.3 -4,2.2l1.9,0.5c0.7,0 9.4,0.3 9.4,0.3c-3.7,-4.4 -3.3,1.2 -2.9,-8.7c0.1,-1.7 0.3,-6.3 0.8,-7.8l2.6,-0.8c1.2,-0.2 6.1,-4.7 5.5,-7.1c-1.2,-5.3 5.4,1.4 -0.3,-8.8c-0.9,-1.6 1.6,-2.4 0.1,-8.7c-0.3,-1.3 -0.2,-2.6 -0.4,-3.8l-0.6,-8.1c-4,-6.9 2,-2.8 -0.5,-9.7c-1.5,-4.3 4.2,-0.4 -1.1,-5.8c-0.8,-0.8 -0.7,-1.3 -0.7,-2.4l0.6,-8.5c0.5,-1.4 -1.2,-0.2 -1.4,-4.3c-0.1,-3.5 -1,-0.2 0.5,-3.9c0.8,-2 -4,-13.7 -5.6,-14.1l0,0z" fill="url(#SVGID_23_)" clip-rule="evenodd" fill-rule="evenodd"/>
   <path id="svg_35" d="m299.3,365.3c-2.4,0 -0.6,2.4 -3.1,4.5c-1.6,1.3 0.8,2 -2.9,3.6c-1,0.5 0.6,1.1 -1.1,4.3c-0.8,1.5 1.2,0.1 -1.7,4.6c-1.1,1.7 0.5,1.6 -1.2,5.1c0,0.1 0,0.1 -0.1,0.2c-0.2,0.5 -0.1,1.1 -0.1,1.6c-0.3,0.4 -0.6,0.8 -0.9,1.3c0,3.8 1,-0.7 0,4.4c0,0.1 0,0.1 0,0.2c-1.4,7 1.3,-1.9 -0.8,4.8c-0.8,2.4 1.3,0.5 -0.2,4.8c-0.6,6 0.5,2.5 0.5,5.1c-0.2,0.3 -0.4,0.6 -0.6,0.9c-4.3,3.8 -0.5,4.3 -2.3,7.9c-1.1,2.2 0.9,1.2 -1.7,3.6c-2,4.8 9.9,6.2 10,9.5c0.1,1.5 0,2.6 0.3,3.7c-0.1,1.6 -0.1,3.2 -0.2,4.9c-0.1,0.2 -0.6,1.3 -0.6,1.6c-0.2,0.1 -0.9,0.5 -1.2,0.6c-0.1,0.1 -0.3,0.2 -0.5,0.3c-0.3,0 -0.2,0 -0.5,0.1c-0.5,0.1 -0.9,0.1 -1.4,0.2c1.1,0.1 2.2,0.2 3.3,0.4c2.2,0 4.5,0.3 7.1,0.2c-3.5,-1.3 -4.2,-12.2 -3.2,-14.4c1,-0.2 2.1,-0.5 3.1,-0.7c0.7,0 1.6,-1.4 4,-2.2c1.5,-0.5 3,-5.4 2,-8.6c-0.1,-0.4 0,-0.7 -0.1,-1.1c0,-3.5 3.5,0.8 0.4,-6.9c0,0 -0.7,-4.7 -1.1,-5.9c0,-0.1 0,-0.3 0,-0.5c0.2,-0.9 0.5,-1.7 0.7,-2.6c2.1,-2.4 -0.4,-1.9 -0.3,-7.2c0,-0.9 -0.7,0.1 -0.6,-4.8c0,-1.8 -1.5,-6.8 -2.1,-8.7c-0.1,-1 -0.3,-2 -0.5,-3.1c0,-5.7 0.2,-2.5 -1.2,-6.1c-1.3,-3.1 -0.1,-0.4 -1.3,-2.7c-0.1,-0.2 0,-2 0,-2.4c0.2,0 0.2,-0.3 0.1,-0.5l0,0z" fill="url(#SVGID_24_)" clip-rule="evenodd" fill-rule="evenodd"/>
   <path id="svg_36" d="m605.6,376.9c-2.6,0 1.4,2.3 -5.9,2.1c-4.1,-0.1 -10.8,16.8 -4.4,26.9c2.9,4.6 -1.5,0.4 4.5,8.4c1.3,3.9 2.4,6.8 1.2,11.7c-1,0.1 -2.1,0.3 -2.1,1.3c2.8,0 5.7,0.3 8.2,0.3c-0.1,-0.3 -1.9,-6.3 -2.1,-6.5c-0.2,-0.2 -1.9,-6.1 1.7,-6.6c0.4,-0.7 0.6,0.3 0.8,-2.3c5.5,-3.2 4.8,-3.2 6.6,-9.1c2.6,-8.3 0.3,-14.3 -4.1,-21.5c0,0 -0.2,-2.8 -0.7,-4.2c-0.1,0 -3.4,-0.5 -3.7,-0.5l0,0z" fill="url(#SVGID_25_)" clip-rule="evenodd" fill-rule="evenodd"/>
   <path id="svg_37" d="m341.9,393.8c-0.5,-0.5 -2.4,-2.4 -2,-3.3c-0.3,-0.4 -6,-1 -7.1,-0.6c-0.4,1.8 -1.8,1.4 -3.4,1.5c-0.2,1 -0.3,0.5 -0.3,1.7l-0.2,1.5c-2.3,1.1 -1.6,-1.1 -4.3,2.1c-4.2,0 -6.3,-5.4 -6.8,1c0,0.4 -1.2,4.5 -1.5,4.7c-1.2,0.5 -1.3,1.6 0.1,1.5l0.6,1.9c-2.9,2.1 -4.2,5.5 -3.1,8.7c2.1,6 0.8,-3 1.4,6.9c0.1,1.7 1.5,-1.4 1.5,3.4c1.2,0.8 3,2 4.5,2l0.5,3.2c-6.1,4.4 1.8,-2 1.8,7.5c6.5,4.2 1.6,-4 7.3,4.5c0.3,0.5 8.2,1.9 9.3,1.9l5.2,0.4c1.6,0.8 0.9,0.5 2.1,0.9c0.5,-0.4 8.2,0.7 9.1,0.9c0.6,5 1.4,0.4 2.6,3.5l1.5,7.4c0,1.4 0.1,1.4 -0.3,2.8c-0.2,1 -1.5,1.3 -1.5,1.5l-3.5,1.4l-0.5,0.3l6.6,-0.9c2.6,0 3,-1.4 5.6,-1.4l2.2,0c-0.1,0 -2.3,-2.5 -2.9,-2.8c-0.1,-0.7 -1.4,-6.5 -2.4,-6.8l0,-2.1c0,-2.4 0.7,-0.8 2,-5.4c2.8,-0.3 7.3,-4.3 7.3,-4.3l3.3,-2.2c0.6,-0.2 1.9,-0.7 1.9,-0.7c1.9,-5.1 6,-2.1 3.3,-7.4c3.8,-1.4 -1.8,-7.9 -3.8,-9.7l0,-1.5c9,-7.9 -1,-7.9 -1,-7.9l0,-0.3c-2,-2.7 -3.7,-15.1 -6.1,-10.6c-3.4,6.3 -3.6,-3.8 -1.6,-7.4c1.8,-3.3 -3.9,-5.7 -7.5,-3.9c-1.8,0.9 -0.2,-3.4 -2.2,-4.8c-1.7,0.5 -1.8,-0.8 -3.2,1.9c-4,0.5 1.9,2.2 -4.1,2.9c-4.8,0.6 4.5,11.3 -1,10.8c-0.1,0.3 -0.1,0.3 -0.5,0.3c-1,-1.3 -2.3,-9.3 -2.4,-9.4c-5.4,-0.7 -3.1,5.2 -3.1,9.2l-0.9,1.4c-1.5,0.7 -1.2,-4.9 -2.5,-6.2l0,0z" fill="url(#SVGID_26_)" clip-rule="evenodd" fill-rule="evenodd"/>
   <path id="svg_38" d="m303.7,411.3c-1.7,-2.2 -8.7,-1.6 -9.8,0c-3.4,1.6 -2.2,-1.5 -4.9,1.8l-1.6,1.2c-1,-1.6 -2.7,-0.2 -2.6,1.4c-9,0 0.3,-0.1 -7.3,4.5c-0.3,0.2 0.4,1.7 0.4,2.3l0,2.6c0,0 -2.1,-0.2 -2.4,0.1c0,8.4 -2.2,1.5 -1.8,5.9c0.5,4.5 -4.8,2.2 -1.5,4.9l-0.4,2.6c-3.6,1.2 1.4,0.2 -3.2,5.7c-0.9,1.1 0.4,3.1 0.4,3.1c-0.2,0.2 -7.1,1.9 -1.1,5.2l0,0.9c0,0 -5.4,4.9 -1,5.9c1,6.6 -5.5,0.6 4.5,6.2c1.1,0.6 -3,4.1 4.9,3.8l0.9,0.6c0,5.5 0.2,1.2 6.3,2.7c0.1,2 -0.9,1.4 -0.9,3.7c11.7,0 -1.9,0.8 9.7,2.8c0.3,0.1 -0.1,3.6 4.4,1.6l3.9,0c1,2 1.1,4.2 5.5,1.9c3.3,2.1 -0.1,1.6 5.7,-0.1c0.3,0.2 0.4,0.5 0.9,0.5l1.5,0.3c0,0.6 0.1,1.4 0.5,1.9l3.2,-0.9c1.1,-0.3 1.8,0.3 1.8,1.4l0,1.2c-2,0.7 -4.2,2.4 -5,2.7l12.6,-1.7c-5.9,-2.1 -2,-8.3 1.5,-8.5c1.3,-0.1 0.3,-2.8 0.5,-3.6c5.6,-0.4 7,1.2 6.2,-3.4l1.1,-0.6c1,-0.5 6.3,-3.2 3.4,-4.8c0.3,-1.8 6.4,0.3 0.7,-6.9c0.2,-0.3 9.1,-4 1.1,-5l0,-0.2c11,-7.8 0.3,-3.9 3.6,-10.6c2.6,-5.4 -2.5,-1.2 -1.9,-10.4c0.1,-1.9 -1.8,-2 -3.3,-2c0.6,-9.6 1.7,1.3 -0.7,-5.5c-0.3,-0.8 -2.3,-9.9 -5.7,-5.6c-2.7,-1.7 -0.1,-4.1 -5.6,-4.1l-2.9,0c4.2,-8 -1.2,-2.7 -9,-7.6c-2.2,-1.4 -2.4,-0.1 -4,1.3c-0.9,-0.1 -3.5,-3.5 -3.8,0.8l-1.6,0.3c-3.4,-0.1 2.1,-6.3 -3.1,-0.7c0.1,0.2 -0.2,0.3 -0.1,0.4l0,0z" fill="url(#SVGID_27_)" clip-rule="evenodd" fill-rule="evenodd"/>
   <path id="svg_39" d="m632.2,336.9c-0.6,-0.1 -0.2,0 -0.3,0c-1.9,2.8 -1.9,8.6 -3.3,8.6c0.1,-3.7 -1.7,-0.2 -1.8,0c-1.7,2.2 -3.5,6.8 -0.3,8.6c0.3,0.2 0.3,3.3 0.2,3.3c-0.1,0.6 -4.7,-1.9 -1.7,0.9c2.7,2.5 -5.8,3.1 -1.6,7.2c1.1,1 -0.4,4.4 -1.9,5.4c-1.2,0.7 0.6,1.9 0.3,4.7c-0.1,0.8 -0.1,1.5 -0.1,2.3l0.1,3.8c1.2,0.3 -0.9,6.5 -1.3,7.9l0.2,8.5c-0.1,3.5 -1.3,6.9 -3.3,9.6c-1.9,2.7 2.8,1.6 -0.2,6.8l-0.1,0.2c-1.5,2.7 1.5,3.7 3.3,5.3l7.1,2.1c2.7,-0.1 2.2,7.8 1.6,9.4l-0.8,4.8c-0.9,1.4 -2.3,2.3 -4,2.2l1.9,0.5c0.7,0 9.4,0.3 9.4,0.3c-3.7,-4.4 -3.3,1.2 -3,-8.6c0.1,-1.7 0.3,-6.4 0.8,-7.8l2.6,-0.8c1.2,-0.2 6.1,-4.7 5.5,-7.1c-1.2,-5.3 5.4,1.4 -0.3,-8.8c-0.9,-1.6 1.6,-2.4 0.1,-8.7c-0.3,-1.3 -0.2,-2.6 -0.4,-3.8l-0.6,-8.1c-4,-6.9 2,-2.8 -0.4,-9.7c-1.5,-4.3 4.2,-0.4 -1.2,-5.8c-0.8,-0.8 -0.7,-1.3 -0.7,-2.4l0.6,-8.5c0.5,-1.4 -1.2,-0.2 -1.4,-4.3c-0.2,-3.5 -1,-0.3 0.5,-4c0.9,-1.9 -3.9,-13.7 -5.5,-14l0,0z" fill="url(#SVGID_28_)" clip-rule="evenodd" fill-rule="evenodd"/>
   <path id="svg_40" d="m652.5,321c2.3,0 2.4,1 4.9,3.8c1.6,1.8 0.3,2.7 3.9,4.9c1,0.6 -3.5,4.9 -1.9,9.2c0.8,2.1 -0.8,0.4 2.1,6.3c1,2.2 -1.5,0.9 0.1,5.6c0,0.1 0.1,0.2 0.1,0.2c0.2,0.6 0.1,1.5 0.1,2.2c0.3,0.6 -0.8,1.3 -0.5,1.9c0,5 -1.1,0.1 -0.1,7c0,0.1 0,0.2 0,0.3c1.3,9.3 -1.3,-2.5 0.8,6.4c0.8,3.3 -1.2,0.6 0.2,6.5c0.6,8 -0.5,3.4 -0.5,6.9c0.2,0.4 0.4,0.8 0.6,1.2c4.2,5 0.5,5.7 2.3,10.6c1.1,3 -0.9,1.6 1.6,4.8c2,6.4 -9.6,8.3 -9.7,12.7c-0.1,2.1 0,3.5 -0.3,5c0.1,2.2 0.1,4.3 0.2,6.5c0.1,0.3 0.6,1.7 0.6,2.2c0.2,0.1 0.9,0.7 1.2,0.8c0.1,0.2 0.3,0.3 0.4,0.5c0.3,0 0.2,0 0.5,0.2c0.5,0.1 0.9,0.1 1.4,0.2c-1.1,0.2 -2.1,0.3 -3.2,0.6c-2.1,0 -4.4,0.4 -6.9,0.2c3.4,-1.7 4,-16.3 3.1,-19.2c-1,-0.3 -2,-0.6 -3,-0.9c-0.7,0.1 -1.5,-1.9 -3.8,-2.9c-1.5,-0.7 -2.9,-7.2 -2,-11.5c0.1,-0.6 0,-0.9 0.1,-1.5c0,-4.8 -3.4,1 -0.4,-9.3c0,0 -1.1,-4.6 -0.7,-6.3c0,-0.2 1.8,-2.1 1.8,-2.3c-0.2,-1.2 -0.5,-2.3 -0.7,-3.5c-2.1,-3.2 0.4,-2.6 0.3,-9.7c0,-1.2 0.7,0.1 0.6,-6.4c0,-2.4 1.5,-9.1 2,-11.6c0.2,-1.4 0.3,-2.7 0.5,-4.1c3.1,-4.7 1.8,-4.9 3.2,-9.7c1.2,-4.1 0.1,-0.6 1.3,-3.5c0.1,-0.3 0,-2.7 0,-3.3c-0.3,-0.4 -0.2,-0.7 -0.2,-1l0,0z" fill="url(#SVGID_29_)" clip-rule="evenodd" fill-rule="evenodd"/>
   <path id="svg_41" d="m672.7,326.8c2.3,0 2.3,0.5 3.9,4.8c0.6,1.5 -1,2.5 1.9,5.9c0.9,1 -1.5,4 0.1,8.3c0.8,2.1 -0.8,0.4 2.1,6.3c1.1,2.2 -1.4,0.9 0.1,5.6c0,0.1 0.1,0.2 0.1,0.2c0.2,0.6 0.1,1.5 0.1,2.2c0.3,0.6 -0.8,1.3 -0.5,1.9c0,5 -1.1,0.1 -0.1,7c0,0.1 0,0.2 0,0.3c1.3,9.3 -1.3,-2.5 0.8,6.4c0.8,3.3 -1.2,0.6 0.2,6.5c0.6,8 -0.5,3.4 -0.5,6.9c0.2,0.4 0.4,0.8 0.6,1.2c4.2,5 0.5,5.7 2.3,10.6c1.1,3 -0.9,1.6 1.6,4.8c2,6.4 -9.6,8.3 -9.7,12.7c-0.1,2.1 0.1,3.5 -0.3,5c0.1,2.2 0.1,4.3 0.2,6.5c0.1,0.3 0.6,1.7 0.6,2.2c0.2,0.1 0.9,0.7 1.1,0.8c0.2,0.2 0.3,0.3 0.5,0.5c0.3,0 0.2,0 0.5,0.2c0.5,0.1 0.9,0.1 1.4,0.2c-1,0.2 -2.1,0.3 -3.1,0.6c-2.2,0 -4.4,0.4 -6.9,0.2c3.4,-1.7 4,-16.3 3.1,-19.2c-1,-0.3 -2,-0.6 -3,-0.9c-0.7,0.1 -1.5,-1.9 -3.8,-2.9c-1.5,-0.7 -2.9,-7.2 -2,-11.5c0.1,-0.6 0,-0.9 0.1,-1.5c0,-4.8 -3.4,1 -0.4,-9.3c0,0 -3.3,-3.4 -2.9,-5.1c0,-0.2 1.8,-2.1 1.8,-2.3c-0.2,-1.2 1.7,-3.5 1.5,-4.7c-2.1,-3.2 0.4,-2.6 0.3,-9.7c0,-1.2 0.7,0.1 0.6,-6.4c0,-2.4 1.5,-9.1 2,-11.6c0.1,-1.4 0.3,-2.7 0.5,-4.1c3.1,-4.7 1,-4.4 2.4,-9.1c1.2,-4.1 0.9,-1.1 2.1,-4.1c0.1,-0.3 0.3,-3.2 0.3,-3.7c-0.4,-0.6 0.3,-1.4 0.4,-1.7l0,0z" fill="url(#SVGID_30_)" clip-rule="evenodd" fill-rule="evenodd"/>
   <path id="svg_42" d="m686.2,362.5c-2.2,0 -0.5,3 -2.7,5.7c-1.5,1.7 0.9,2.5 -2.5,4.6c-1,0.6 0.6,1.4 -0.9,5.5c-0.7,2 1.2,0.2 -1.4,5.9c-0.9,2.1 0.5,2 -0.8,6.5c0,0.1 0,0.1 -0.1,0.2c-0.2,0.6 0,1.4 0,2.1c-0.2,0.6 -0.5,1.1 -0.8,1.7c0.1,4.8 0.9,-0.9 0.2,5.6c0,0.1 0,0.2 0,0.3c-1,8.9 1.2,-2.4 -0.6,6.2c-0.6,3.1 1.2,0.6 0.1,6.2c-0.3,7.7 0.5,3.2 0.6,6.5c-0.2,0.4 -0.3,0.8 -0.5,1.2c-3.8,4.8 -0.3,5.4 -1.9,10.1c-0.9,2.9 0.9,1.5 -1.4,4.6c-1.7,6.1 9,7.9 9.3,12.1c0.1,2 0.1,3.4 0.1,4.7c0,2.1 0,4.1 0,6.2c0,0.3 -0.2,1.7 -0.1,2.1c-0.2,0.1 -0.7,0.7 -0.9,0.8c-0.1,0.1 -0.2,0.2 -0.3,0.4c-0.3,0.1 -0.2,0.1 -0.4,0.2c-0.5,0.1 -0.9,0.1 -1.3,0.2c1,0.2 2,0.3 3.1,0.5c2.1,0 4.2,0.4 6.6,0.2c-3.3,-1.7 -4.3,-15.6 -3.5,-18.4c0.9,-0.3 1.9,-0.6 2.8,-0.9c0.7,0.1 1.4,-1.8 3.6,-2.8c1.4,-0.6 2.6,-6.9 1.6,-11c-0.1,-0.5 -0.1,-0.9 -0.1,-1.4c-0.2,-4.5 3.3,1 0.1,-8.9c0,0 -0.8,-5.9 -1.3,-7.6c0,-0.2 0,-0.4 0,-0.6c0.2,-1.1 0.4,-2.2 0.6,-3.3c1.9,-3 -0.5,-2.4 -0.6,-9.2c0,-1.2 -0.7,0.1 -0.7,-6.1c0,-2.3 -1.7,-8.6 -2.3,-11.1c-0.2,-1.3 -0.4,-2.6 -0.6,-3.9c-0.2,-7.3 0.1,-3.2 -1.4,-7.7c-1.3,-4 -0.1,-0.6 -1.4,-3.4c-0.1,-0.3 0,-2.6 -0.1,-3.1c0,-0.3 0,-0.6 -0.1,-0.9l0,0z" fill="url(#SVGID_31_)" clip-rule="evenodd" fill-rule="evenodd"/>
   <path id="svg_43" d="m734.4,358.8c-2.2,0 -0.5,3 -2.7,5.7c-1.5,1.7 0.8,2.5 -2.5,4.6c-0.9,0.6 0.6,1.4 -0.8,5.5c-0.7,2 1.1,0.2 -1.4,5.9c-0.9,2.1 0.5,2 -0.8,6.5c0,0.1 0,0.1 -0.1,0.2c-0.2,0.6 0,1.4 0,2.1c-0.2,0.5 -0.5,1.1 -0.8,1.6c0.1,4.8 0.9,-0.9 0.2,5.6c0,0.1 0,0.2 0,0.3c-1,8.9 1.2,-2.4 -0.6,6.2c-0.6,3.1 1.2,0.6 0.1,6.2c-0.3,7.7 0.5,3.2 0.6,6.5c-0.1,0.4 -0.3,0.8 -0.5,1.2c-3.8,4.8 -0.3,5.4 -1.9,10.1c-0.9,2.9 0.9,1.5 -1.4,4.6c-1.7,6.1 10,7.9 10.3,12.1c0.1,2 1.1,3.4 1.1,4.7c0,2.1 0,4.1 0,6.2c0,0.3 -1.1,1.7 -1.1,2.1c-0.2,0.1 -1.2,0.7 -1.4,0.8c-0.1,0.1 -0.4,0.3 -0.5,0.4c-0.3,0.1 -0.3,0.1 -0.5,0.2c-0.5,0.1 -0.9,0.1 -1.4,0.2c1,0.2 2,0.3 3,0.5c2.1,0 4.2,0.4 6.6,0.2c-3.3,-1.7 -4.3,-15.5 -3.5,-18.4c0.9,-0.3 1.9,-0.6 2.8,-0.9c0.7,0.1 1.4,-1.8 3.6,-2.8c1.4,-0.6 2.6,-6.9 1.5,-11c-0.1,-0.5 0,-0.9 -0.1,-1.4c-0.1,-4.5 3.3,1 0.1,-8.9c0,0 -0.8,-5.9 -1.3,-7.6c0,-0.2 0,-0.4 0,-0.6c0.2,-1.1 0.4,-2.2 0.6,-3.3c1.9,-3 -0.5,-2.4 -0.6,-9.2c0,-1.2 -0.7,0.1 -0.7,-6.1c0,-2.3 -1.7,-8.6 -2.3,-11.1c-0.2,-1.3 -0.4,-2.6 -0.6,-3.9c-0.2,-7.3 0.1,-3.2 -1.4,-7.7c-1.3,-3.9 -0.1,-0.6 -1.4,-3.4c-0.1,-0.3 -0.1,-2.6 -0.1,-3.1c0,-0.2 -0.1,-0.5 -0.1,-0.8l0,0z" fill="url(#SVGID_32_)" clip-rule="evenodd" fill-rule="evenodd"/>
   <path id="svg_44" d="m747.6,371.4c-2.2,0 -0.5,3.1 -2.7,5.7c-1.5,1.7 0.9,2.5 -2.5,4.6c-1,0.6 0.6,1.4 -0.9,5.5c-0.7,2 1.2,0.2 -1.4,5.9c-1,2.1 0.5,2 -0.9,6.5c0,0.1 0,0.2 -0.1,0.2c-0.2,0.6 0,1.4 0,2.1c-0.3,0.6 -0.6,1.1 -0.8,1.6c0.1,4.8 0.9,-0.9 0.2,5.6c0,0.1 0,0.2 0,0.3c-1,8.9 1.2,-2.4 -0.6,6.2c-0.6,3.1 1.2,0.6 0.1,6.2c-0.3,7.7 0.5,3.2 0.6,6.5c-0.2,0.4 -0.3,0.8 -0.5,1.1c-3.8,4.8 -0.3,5.5 -1.9,10.1c-0.9,2.9 0.9,1.5 -1.4,4.6c-1.7,6.1 9.4,7.9 9.7,12.1c0.1,2 0,3.4 0.5,4.7c0,2.1 0,4.1 0,6.2c-0.1,0.3 -0.5,1.7 -0.5,2.1c-0.2,0.1 -0.9,0.7 -1,0.8c-0.1,0.1 -0.3,0.3 -0.4,0.4c-0.3,0 -0.2,0 -0.4,0.2c-0.5,0.1 -0.9,0.1 -1.3,0.2c1,0.2 2,0.3 3,0.5c2.1,0 4.2,0.4 6.6,0.2c-3.3,-1.7 -4.3,-15.6 -3.5,-18.4c0.9,-0.3 1.9,-0.6 2.8,-0.9c0.7,0.1 1.4,-1.8 3.6,-2.8c1.4,-0.6 2.6,-6.9 1.6,-11c-0.1,-0.6 -0.1,-0.9 -0.1,-1.4c-0.2,-4.5 3.3,1 0.1,-8.9c0,0 -0.8,-5.9 -1.3,-7.6c0,-0.2 0,-0.5 0,-0.6c0.2,-1.1 0.4,-2.2 0.6,-3.3c1.9,-3 -0.5,-2.4 -0.6,-9.2c0,-1.2 -0.7,0.1 -0.7,-6.1c0,-2.3 -1.7,-8.6 -2.3,-11.1c-0.2,-1.3 -0.3,-2.6 -0.6,-3.9c-0.2,-7.3 0.1,-3.2 -1.4,-7.7c-1.3,-4 -0.1,-0.6 -1.4,-3.4c-0.1,-0.3 0,-2.6 -0.1,-3.1c0,-0.1 0,-0.4 -0.1,-0.7l0,0z" fill="url(#SVGID_33_)" clip-rule="evenodd" fill-rule="evenodd"/>
   <path id="svg_45" d="m708.8,414.7c-0.6,0 -0.2,2.2 -0.7,4.2c-0.4,1.2 0.2,1.8 -0.7,3.4c-0.2,0.4 0.1,1 -0.2,4c-0.2,1.4 0.3,0.1 -0.4,4.3c-0.2,1.5 0.1,1.5 -0.2,4.7c0,0 0,0.1 0,0.1c0,0.5 0,1 0,1.5c-0.1,0.4 0.1,0.8 0.1,1.2c0.1,3.5 0.3,-0.7 0.3,4.1c0,0.1 0,0.1 0,0.2c0,6.4 0,-1.7 -0.4,4.4c-0.2,2.3 0.1,0.5 -0.1,4.5c-0.1,5.6 0.1,2.3 0.1,4.8c-0.1,0.3 -0.1,0.6 -0.2,0.8c-0.9,3.5 -0.1,4 -0.5,7.3c-0.2,2.1 0.2,1.1 -0.4,3.3c-0.4,4.4 2.3,5.8 2.3,8.8c0,1.4 0.1,2.4 0.1,3.4c0,1.5 0,3 0,4.5c0,0.2 -0.1,1.2 -0.1,1.5c0,0.1 -0.2,0.5 -0.2,0.6c0,0.1 -0.1,0.2 -0.1,0.3c-0.1,0 0,0 -0.1,0.1c-0.1,0 -0.2,0.1 -0.3,0.1c0.2,0.1 0.5,0.2 0.7,0.4c0.5,0 1.1,0.3 1.6,0.1c-0.8,-1.2 -1.1,-11.3 -0.9,-13.3c0.2,-0.2 0.5,-0.4 0.7,-0.7c0.2,0.1 0.3,-1.3 0.9,-2c0.3,-0.5 0.7,-5 0.4,-7.9c0,-0.4 0,-0.7 0,-1c0,-3.3 0.7,0.8 -0.1,-6.4c0,0 -0.5,-4.3 -0.5,-5.5c0,-0.1 0,-0.3 0,-0.5c0,-0.8 0.3,-1.6 0.3,-2.4c0.5,-2.2 0,-1.8 -0.1,-6.7c0,-0.8 -0.1,0.1 -0.1,-4.4c0,-1.6 -0.4,-6.3 -0.5,-8c-0.1,-0.9 -0.1,-1.9 -0.1,-2.8c-0.1,-5.3 0.1,-2.3 -0.2,-5.6c-0.3,-2.8 -0.2,-0.4 -0.2,-2.4c0,-0.2 0,-1.9 0,-2.2c0,-0.3 -0.2,-0.5 -0.2,-0.8l0,0z" fill="url(#SVGID_34_)" clip-rule="evenodd" fill-rule="evenodd"/>
   <path id="svg_46" d="m698.7,403.5c-0.6,0 -0.1,2.2 -0.7,4.1c-0.3,1.2 0.2,1.8 -0.6,3.4c-0.2,0.4 0.1,1 -0.2,4c-0.2,1.4 0,0.1 -0.6,4.3c-0.2,1.5 -0.5,1.5 -0.5,4.7c0,0 0,0.1 0,0.2c0,0.4 0.3,1 0.3,1.5c0,0.4 -0.2,0.8 -0.2,1.2c0,3.5 0,-0.7 0,4.1c0,0.1 0,0.1 0,0.2c0,6.4 0.5,-1.7 0.1,4.4c-0.1,2.3 0.4,0.5 0.1,4.5c-0.1,5.6 0.2,2.3 0.2,4.8c0,0.3 0,0.6 -0.1,0.8c-0.9,3.5 -0.1,3.9 -0.4,7.3c-0.2,2.1 0.3,1.1 -0.3,3.3c-0.4,4.4 2.3,5.8 2.4,8.8c0,1.4 0.1,2.4 0.1,3.4c0,1.5 0,3 0,4.5c0,0.2 -0.1,1.2 -0.1,1.5c-0.1,0.1 -0.2,0.5 -0.3,0.6c0,0.1 -0.1,0.2 -0.1,0.3c-0.1,0 0,0 -0.1,0.1c-0.1,0 -0.2,0.1 -0.3,0.1c0.2,0.1 0.5,0.2 0.7,0.4c0.5,0 1,0.3 1.6,0.1c-0.8,-1.2 -1,-11.3 -0.9,-13.3c0.2,-0.2 0.5,-0.5 0.7,-0.7c0.2,0.1 0.3,-1.3 0.9,-2c0.3,-0.5 0.6,-5 0.4,-7.9c0,-0.4 0,-0.7 0,-1c0,-3.3 0.7,0.8 -0.1,-6.4c0,0 -0.5,-4.3 -0.5,-5.5c0,-0.1 0,-0.3 0,-0.5c0,-0.8 0.2,-1.6 0.3,-2.4c0.5,-2.2 -0.1,-1.8 -0.1,-6.7c0,-0.8 -0.1,0.1 -0.1,-4.4c0,-1.6 -0.4,-6.3 -0.5,-8c0,-0.9 -0.1,-1.9 -0.1,-2.8c-0.1,-5.3 0,-2.3 -0.3,-5.6c-0.3,-2.9 0,-0.4 -0.3,-2.5c0,-0.2 0,-1.9 0,-2.2c-0.4,-0.3 -0.4,-0.5 -0.4,-0.7l0,0z" fill="url(#SVGID_35_)" clip-rule="evenodd" fill-rule="evenodd"/>
   <path id="svg_47" d="m781.5,436.7c-0.5,0 -0.1,2.1 -0.6,3.9c-0.3,1.2 0.2,1.7 -0.6,3.2c-0.2,0.4 0.1,1 -0.2,3.8c-0.1,1.4 0.5,0.1 -0.1,4.1c-0.2,1.4 0,1.4 0,4.5c0,0.1 0,0.1 0,0.2c0,0.4 -0.3,0.9 -0.3,1.4c0,0.4 0.1,0.7 0,1.1c0,3.3 0.2,-0.6 0.2,3.9c0,0.1 0,0.1 0,0.2c0,6.1 0,-1.7 -0.4,4.2c-0.2,2.2 0.1,0.4 -0.2,4.3c-0.1,5.3 0,2.2 0.1,4.5c0,0.3 -0.1,0.5 -0.1,0.8c-0.9,3.3 -0.1,3.7 -0.5,7c-0.2,2 0.2,1.1 -0.3,3.2c-0.4,4.2 1.7,5.5 1.8,8.4c0,1.4 -0.4,2.3 -0.4,3.3c0,1.4 0,2.8 0,4.3c0,0.2 0.4,1.2 0.4,1.4c0,0.1 0,0.5 0,0.6s0,0.2 0,0.3c-0.1,0 0,0 0,0.1c-0.1,0.1 -0.2,0.1 -0.3,0.2c0.2,0.1 0.5,0.2 0.7,0.3c0.5,0 1,0.3 1.5,0.1c-0.8,-1.2 -1,-10.7 -0.8,-12.7c0.2,-0.2 0.4,-0.4 0.6,-0.6c0.2,0 0.4,-1.3 0.9,-1.9c0.3,-0.4 0.6,-4.7 0.4,-7.6c0,-0.4 0,-0.6 0,-1c0,-3.1 0.8,0.7 0,-6.1c0,0 -0.2,-4.1 -0.3,-5.2c0,-0.1 0,-0.3 0,-0.4c0.1,-0.7 0.1,-1.5 0.1,-2.3c0.5,-2.1 -0.1,-1.7 -0.1,-6.4c0,-0.8 -0.1,0 -0.2,-4.2c0,-1.6 -0.4,-6 -0.5,-7.7c0,-0.9 -0.1,-1.8 -0.1,-2.7c0,-5.1 0,-2.2 -0.3,-5.4c-0.3,-2.7 0,-0.3 -0.3,-2.3c0,-0.2 0,-1.7 0,-2.1c-0.1,-0.3 -0.1,-0.5 -0.1,-0.7l0,0z" fill="url(#SVGID_36_)" clip-rule="evenodd" fill-rule="evenodd"/>
   <path id="svg_48" d="m805.4,443.7c-0.5,0 -0.1,1.9 -0.6,3.5c-0.3,1 0.2,1.5 -0.5,2.8c-0.2,0.4 0.1,0.9 -0.2,3.4c-0.1,1.2 0.2,0.1 -0.3,3.6c-0.2,1.3 0.1,1.2 -0.2,4c0,0.1 0,0.1 0,0.1c0,0.4 0,0.8 0,1.3c0,0.3 -0.4,0.7 -0.4,1c0,3 -0.2,-0.5 -0.2,3.5c0,0 0,0.1 0,0.2c0,5.4 0.5,-1.5 0.1,3.7c-0.1,1.9 0.4,0.4 0.2,3.8c-0.1,4.7 0.2,2 0.2,4c0,0.2 0,0.5 -0.1,0.7c-0.8,2.9 -0.1,3.3 -0.4,6.2c-0.2,1.8 0.2,0.9 -0.3,2.8c-0.3,3.7 1.5,4.9 1.6,7.5c0,1.2 -1.3,2 -0.3,2.9c0,1.3 0,2.6 0,3.8c0,0.2 0.3,1 0.4,1.3c0,0 0,0.4 0,0.5c0,0.1 0.1,0.2 0,0.2c-0.1,0 0,0 -0.1,0.1c-0.1,0 -0.1,0.1 -0.3,0.1c0.2,0.1 0.4,0.2 0.6,0.3c0.5,0 0.9,0.2 1.4,0.1c-0.7,-1 -0.9,-9.5 -0.7,-11.2c0.2,-0.2 0.4,-0.4 0.6,-0.6c0.1,0 0.3,-1.1 0.7,-1.7c0.3,-0.4 0.6,-4.2 0.4,-6.7c0,-0.3 0,-0.6 0,-0.9c0,-2.8 0.3,0.6 -0.4,-5.4c0,0 -0.6,-3.6 -0.6,-4.6c0,-0.1 0,-0.3 0,-0.4c0,-0.7 0.5,-1.4 0.5,-2c0.4,-1.9 0.1,-1.5 0.1,-5.6c0,-0.7 0,0 -0.1,-3.7c0,-1.4 -0.3,-5.3 -0.4,-6.8c0,-0.8 -0.1,-1.6 -0.1,-2.4c0,-4.5 0,-2 -0.3,-4.8c-0.3,-2.4 0,-0.3 -0.3,-2.1c0,-0.2 0,-1.6 0,-1.9c0,-0.2 0,-0.4 0,-0.6l0,0z" fill="url(#SVGID_37_)" clip-rule="evenodd" fill-rule="evenodd"/>
  </g>
  <g id="svg_49">
   <path id="svg_50" d="m360.8,735.7c6.2,0.5 68.1,3 69.6,1.3c-3.5,-3.8 -6.4,-0.5 -7.7,-9.3c-0.8,-5.4 4.9,-3.1 -6.2,-6c-2.7,-0.7 1,-3.8 -5.4,-4c-14.7,-0.4 1.4,4.8 -8.4,4.8l-2.8,-0.8c0.2,-5.1 -4.7,-0.4 -7.3,-2.8c-7.1,-6.4 -2.8,3.9 -7.6,6.4c-8.7,4.8 -9,-3.3 -9.5,6.4c0.1,0.7 -13.6,4.1 -14.7,4l0,0z" fill="url(#SVGID_38_)" clip-rule="evenodd" fill-rule="evenodd"/>
   <path id="svg_51" d="m287.3,721.4c0.4,-0.6 0.3,-0.3 0.4,-0.8c-4.7,-4.3 -1.4,1.9 -5.7,-4.9c-1.6,-2.6 1.5,-10.4 1.6,-10.5c6.1,0 2.7,4.4 2.9,-1.2c0,-1 -0.9,-3.2 -0.9,-4.2c3.7,0 1,2.9 4.5,2.9c0,-4.1 1.7,-10.7 4,-13.2c1.3,0.5 0.3,2.4 2.3,2.4c0,-8.2 6.4,-0.2 6.2,2.1c0.3,0 0.5,0 0.8,0.1c4.3,-5.5 -3.9,1.9 3.4,-4.8c0.8,-0.7 1,-1.9 1.7,-2.6l0.2,0.3c0.4,2.3 -1.3,3.6 1,3.6c-0.1,-0.9 2.4,-1.8 2.4,0l0.2,0.9c9.1,2.1 2.9,4.4 7.2,5.6c0,0.2 0.1,1.8 0.1,2.1l1.5,1.3c1.5,5.4 3.1,5.8 7.7,8.8c0.2,0.1 0.1,0.7 0.1,0.9c0,0 6.3,6.8 -2.1,8.3c-3.7,0.7 -0.8,1.7 -6.9,3.7l-0.9,0.8c-0.3,3.8 -3.8,-1.8 -8,5.4c-0.7,1.1 -18.1,-0.1 -20.5,-3.8c-0.2,-0.9 -6.4,1.5 -3.2,-3.2l0,0z" fill="url(#SVGID_39_)" clip-rule="evenodd" fill-rule="evenodd"/>
   <path id="svg_52" d="m325.7,732.6c0.3,-0.5 0.3,-0.2 0.3,-0.7c-3.8,-3.5 -1.1,1.5 -4.6,-4.1c-1.3,-2.1 1.2,-8.5 1.3,-8.6c5,0 2.2,3.6 2.4,-1c0,-0.8 -0.8,-2.6 -0.8,-3.4c3,0 0.8,2.4 3.7,2.4c0,-3.3 1.4,-8.7 3.2,-10.7c1.1,0.3 0.3,1.9 1.9,1.9c0,-6.7 5.2,-0.2 5,1.7c0.2,0 0.4,0 0.6,0c3.5,-4.4 -3.2,1.6 2.8,-3.9c0.6,-0.6 0.8,-1.5 1.4,-2.1l0.2,0.2c0.3,1.9 -1.1,2.9 0.8,2.9c-0.1,-0.7 2,-1.5 2,0l0.1,0.8c7.4,1.7 2.4,3.6 5.9,4.6c0.1,0.2 0.1,1.5 0.1,1.7l1.3,1c1.3,4.4 2.6,4.8 6.3,7.2c0.2,0.1 0.1,0.6 0.1,0.8c0,0 5.1,5.5 -1.7,6.8c-3,0.6 -0.6,1.4 -5.6,3.1l-0.8,0.6c-0.2,3.1 -3.1,-1.5 -6.6,4.4c-0.5,0.9 -14.7,-0.1 -16.7,-3.1c-0.1,-0.7 -5.2,1.3 -2.6,-2.5l0,0z" fill="url(#SVGID_40_)" clip-rule="evenodd" fill-rule="evenodd"/>
   <path id="svg_53" d="m189.4,671.2c-9.8,0.3 -4.4,0.6 -13.8,0.2c-0.3,0 -4.4,-13.2 -7.3,-17.7c-0.2,-0.4 2,-2.8 -3.4,-8.6c-1.3,-1.4 -1.5,1.2 -3.2,0.9c-0.3,0 -0.6,-0.3 -0.6,-0.6c-0.2,-3.4 -0.6,-3.1 -1.6,-5.7c-1.9,-5.4 -1.9,-5.2 -1.5,-19.3c0,-1 0.3,-2.4 1.3,-2.8c11.1,-3.5 -3.7,-1.4 9,-2.8c0.1,0 2.2,-6.2 3,-6.4c3.8,-1.1 4.7,-3.3 5.8,-3.7c2.5,-1.1 5.1,-2 7.7,-2.5c0.7,-0.1 1.7,0.9 2.1,0.3c0.8,-1.3 2.8,-10.3 2.8,-10.5c0.2,-1.2 0.6,-2.3 0.9,-3.4c0,0 12.6,-0.8 15.1,0c1.9,0.6 3.9,0 5.9,0c0.2,0 0.6,-0.2 0.7,0c2,2.2 7.4,1.9 11.5,3.1c0.8,0.2 0.3,0.7 0.7,1.2c0.5,0.6 1.2,1.1 1.9,1.6c10.3,7.2 5,-8.2 13.7,1.6c0.2,0.3 0.3,0.5 0.7,0.2c0.9,-0.6 -0.1,-2.1 1.1,-1.9c1.6,0.2 1,2.6 2.5,1.7c2,-1 3.7,-4.3 5.6,-1.4c0.6,1.1 2.5,0.1 3.7,0.3c1.7,0.3 10,2.7 9.5,4.9c-0.1,0.6 5.7,0.9 5.9,1.3c0.4,0.4 -0.3,2.8 0,3c3.6,2 -0.2,2 2.2,4.7c1.7,2 2.1,0.4 3.3,1.3c0.9,0.7 -1.1,2 -0.9,3c0.6,2.7 1.6,5.8 4,7.4c3.2,2.1 9.5,-1.3 12.6,3.3c4,5.8 -1.5,-0.6 1.6,7.1c1.1,2.7 -4.1,8.8 -5.2,10.3c-0.6,0.8 -0.8,2.1 -0.6,3.1c0.9,3.8 5.4,-1.3 8.6,2.4c7.1,8.1 -6.1,3.4 5.1,9.6c0.2,0.1 0.6,0.3 1.9,1.6c0.6,0.6 0.1,2.6 -0.3,3.3c-0.2,0.5 0,1 0,1.5c0,3.2 -0.7,3.9 -0.6,7.4c0,0.1 4.8,4.4 7,5.3c5.9,2.3 -5,11.5 -5.2,11.7c-1.6,0.9 -3.7,1.1 -4.9,2.5c-8,8.9 6.1,2.6 -12.1,8.4c-9.4,3 0.7,5.3 -16.2,6.7c-0.9,0.1 -0.4,0.9 -2.5,0.7c-1,-0.1 -1.8,-0.9 -2.8,-0.9c-4.6,-0.4 0.6,5.2 -7.4,3.1c-0.8,-0.2 0.6,-2.8 -0.1,-3.1c-16,-6.3 0.5,4.1 -6.8,-3.6c-3.5,1.3 -6.8,2.8 -7,2.8c-14.7,-0.4 -11,9.5 -11,20.7l0,3.4c0,0.8 0.2,0.5 0.9,1.1c0.9,0.9 7,3.6 7,3.6c-8.9,1.9 -15.7,0.6 -24.7,0.2l-0.6,0c0.1,-0.1 4.3,-1.4 4.5,-2.2c0.2,-0.1 0.4,-0.2 0.6,-0.3c2.7,-1.7 1.6,-28.7 0.6,-33.4c0,0 -2.9,-1.3 -3.3,-1.4c-8.7,-2.7 -7.6,-7.1 -13.3,-12.4c-2.5,-2.3 -3.9,-4.2 -4.7,-5.8c-0.4,0 -0.9,0 -1.4,0c-1,0 0.4,-0.2 -0.4,-0.6c-0.6,-0.3 -2.1,0.7 -2.8,0.7c-0.4,0 -4.2,-4.2 -3.7,-4.4c0.6,-0.1 -0.4,-1.8 -1.1,-1.8l0,0zm47.9,29.1c-0.5,-0.1 -0.8,-0.3 -0.9,-0.5c-1.5,-4.5 3.3,-4.7 2.2,-6.5c-0.4,-0.7 -0.5,-1.6 -0.7,-2.5c-8.7,-0.8 -2.2,-1.4 -4.5,-3.6c-0.1,0 -0.4,-0.2 -0.9,-0.3c-1.4,1.2 0,4.6 -2.1,5.1c-1.2,0.3 -2.1,0.5 -3,0.7c0.6,4 2.7,8.3 5.1,8.1c1.2,-0.1 2.9,-0.3 4.8,-0.5l0,0zm0.6,-10.4c-0.2,-1.5 -0.4,-2.9 -1.7,-3.2c-0.7,-0.2 -1.2,-0.3 -1.7,-0.3c0,1.2 -0.1,2.3 0.6,2.4c0,0.1 1.3,0.6 2.8,1.1l0,0zm-16.7,0.9c-0.8,-2.6 -0.6,-7.2 -6.3,-12.4c-0.7,0.8 -1.4,1.7 -2.3,2.4c-9.6,7.5 3.8,11.6 7.5,11.6c0.2,-0.5 0.6,-1 1.1,-1.6l0,0zm-8.8,-14.4c-0.1,-0.1 -0.3,-0.2 -0.5,-0.3c-0.8,-0.6 3.8,-15.1 -2.9,-9.4c-0.3,0.3 -0.9,-0.3 -1.3,0c-4.5,4.4 -2.6,8 -4.9,9.7c0.7,3.4 1.1,5.9 2.3,6.1c4.2,0.5 6.2,-2.9 7.3,-6.1l0,0z" fill="url(#SVGID_41_)" clip-rule="evenodd" fill-rule="evenodd"/>
   <path id="svg_54" d="m173.4,735.4c-4.1,2.1 -6.7,-6.1 -6.9,-8.9c-0.2,-2.8 -2.3,-24.8 2.6,-20.8c0.7,0.6 7.7,-1.6 8.6,-2.2c0.7,-0.5 0.3,-0.3 0.9,-0.3c1,0.1 1.9,0.7 2.9,0.8c3.1,0.3 5,-3.7 5.4,-4.2c0.8,-1.1 2,1.6 3.7,-1.4c0.1,-0.2 4.2,1 4.7,0c0.5,-1 -2,-0.9 -2.3,-2c-1.4,-3.9 -0.7,0.2 -1.9,-2.1c-3.4,-6.9 -6.3,1.8 -4.1,-7.4c0.1,-0.5 -0.3,-0.8 0.1,-0.9c5.7,-1.3 8.7,-2.1 8.9,-8.3c0,-1.7 -0.7,-4 0.5,-5.2c2.2,-2.5 -1.9,-5.2 -3.5,-7.6c-2.4,-3.4 -2.7,-1.1 -7.7,-2.8c-2.2,-0.7 -0.7,-5.1 -2.6,-6.3c-8.1,-5 -1,-5.1 -8.5,-6c-4.3,-0.5 3.6,-4.4 -10.6,-0.9c-0.5,0.1 -5.2,0.2 -6,-0.1c-5.2,-2.2 -5.8,1.6 -7.7,2.1c-4.8,1.3 -3.4,3 -5,4.8c-1.7,2.1 -0.2,-3.5 -3.1,3c-1.3,2.9 -1.4,-1.3 -2.9,3.1c-0.3,0.8 -13.9,-3.9 -8.7,0.5c0.4,0.3 0.6,0.1 0.9,0.6c0.3,0.6 -3.6,1.8 -4.2,2.9c-0.3,0.6 4.3,2.6 4.7,4c0.4,1.3 1.3,0.4 2,5.5c0.1,0.8 1.7,0.5 2.3,1.1c0.5,0.5 0.7,1.5 0,1.9c-4.5,2.2 3.7,-0.3 -3.4,5.8c-2.7,2.3 7.8,3.9 -5.8,7.9c-3.1,0.9 1.3,5.7 2.3,6.7c0.2,0.1 0.3,0.3 0.5,0.5c0.4,0.4 1.2,1.1 1.7,1.3c1.4,0.5 2.9,0.4 4.3,0.9c0.2,0.1 0,0.4 0,0.6c0,0.4 -0.3,1.9 0.1,1.9c2.2,-0.2 1.9,6.9 8.5,1.9c4.8,-3.6 -1.7,6.2 11.7,2.9c1,-0.3 4,-0.1 4.2,1.2c0.2,1.1 0.9,2 1.1,3.1c0.2,0.9 -0.4,14.7 -0.5,15c-0.2,1.6 -0.6,2.6 0,4.7c0.1,0.3 -0.4,0.8 -0.5,1c-0.2,0.6 -0.3,1.2 -0.8,1.7c-0.5,0.5 -10.7,4.5 -10.5,4.6c4.1,1.7 9.2,1.2 13.3,0c0.8,-0.2 13.5,0.3 14.6,-0.7c0.5,-0.5 -3.3,-3.9 -3.3,-3.9l0,0z" fill="url(#SVGID_42_)" clip-rule="evenodd" fill-rule="evenodd"/>
   <path id="svg_55" d="m0,741.6c53,15.5 219.7,-36.6 320.4,-20c159.8,26.2 318,26.9 479.2,31.1c134.7,3.5 259.8,-3.6 394.6,-3.6c63.6,0 123.8,-20.3 205.8,-21l0,252l-1400,0l0,-238.5z" fill="url(#SVGID_43_)" clip-rule="evenodd" fill-rule="evenodd"/>
   <path id="svg_56" d="m106.3,757.8c4,2.1 6.6,-6.1 6.9,-8.9c0.2,-2.8 2.3,-24.8 -2.5,-20.8c-0.7,0.6 -7.7,-1.6 -8.6,-2.2c-0.7,-0.5 -0.3,-0.3 -0.8,-0.3c-1,0.1 -1.9,0.7 -2.9,0.8c-3.1,0.3 -5,-3.7 -5.4,-4.2c-0.8,-1.1 -2,1.6 -3.6,-1.4c-0.1,-0.2 -4.2,1 -4.7,0c-0.5,-1 2,-0.9 2.3,-2c1.4,-3.9 0.7,0.2 1.9,-2.1c3.5,-6.9 6.3,1.8 4.1,-7.4c-0.1,-0.5 0.3,-0.8 -0.1,-0.9c-5.7,-1.3 -8.7,-2.1 -8.9,-8.3c0,-1.7 0.7,-4 -0.5,-5.2c-2.2,-2.5 1.9,-5.2 3.6,-7.6c2.4,-3.4 2.7,-1.1 7.7,-2.8c2.2,-0.7 0.7,-5.1 2.6,-6.3c8.2,-5 1,-5.1 8.5,-6c4.3,-0.5 -3.5,-4.4 10.6,-0.9c0.5,0.1 5.2,0.2 6,-0.1c5.2,-2.2 5.8,1.6 7.7,2.1c4.7,1.3 3.4,3 4.9,4.8c1.7,2.1 0.2,-3.5 3.1,3c1.3,2.8 1.4,-1.3 2.9,3.1c0.3,0.8 13.9,-3.9 8.7,0.5c-0.5,0.3 -0.7,0.1 -0.9,0.6c-0.3,0.6 3.6,1.8 4.2,2.9c0.3,0.6 -4.3,2.6 -4.7,4c-0.4,1.3 -1.3,0.4 -2,5.5c-0.1,0.8 -1.7,0.5 -2.3,1.1c-0.5,0.5 -0.7,1.5 -0.1,1.9c4.5,2.2 -3.7,-0.3 3.4,5.8c2.7,2.3 -7.8,3.9 5.8,7.9c3.1,0.9 -1.3,5.7 -2.3,6.7c-0.1,0.1 -0.3,0.3 -0.5,0.5c-0.4,0.4 -1.2,1.1 -1.7,1.3c-1.4,0.5 -2.9,0.4 -4.3,0.9c-0.2,0.1 0,0.4 0,0.6c0,0.4 0.3,1.9 -0.1,1.9c-2.2,-0.2 -1.9,6.9 -8.5,1.9c-4.7,-3.6 1.8,6.2 -11.7,2.9c-1,-0.3 -4,-0.1 -4.2,1.2c-0.1,1.1 -0.9,2 -1.1,3.1c-0.1,0.9 0.4,14.7 0.5,15c0.2,1.6 0.6,2.6 0,4.7c-0.1,0.3 0.4,0.8 0.5,1c0.2,0.6 0.4,1.2 0.8,1.7c0.5,0.5 10.7,4.5 10.5,4.6c-4.1,1.7 -9.2,1.2 -13.3,0c-0.9,-0.2 -13.6,0.3 -14.7,-0.7c-0.6,-0.5 3.2,-3.9 3.2,-3.9l0,0z" fill="url(#SVGID_44_)" clip-rule="evenodd" fill-rule="evenodd"/>
   <path id="svg_57" d="m62.5,741.2c4,2.1 6.7,-6.1 6.9,-9c0.2,-2.7 2.3,-24.8 -2.6,-20.7c-0.7,0.6 -7.7,-1.6 -8.6,-2.2c-0.7,-0.5 -0.3,-0.4 -0.9,-0.3c-1,0.1 -1.9,0.7 -2.9,0.8c-3.1,0.3 -5,-3.7 -5.4,-4.2c-0.8,-1 -2,1.6 -3.7,-1.4c-0.1,-0.2 -4.2,1 -4.7,0c-0.5,-0.9 2,-0.9 2.3,-1.9c1.4,-4 0.7,0.2 1.8,-2.1c3.5,-6.9 6.3,1.8 4.1,-7.4c-0.1,-0.5 0.3,-0.8 -0.1,-0.9c-5.7,-1.3 -8.7,-2.1 -8.9,-8.4c0,-1.7 0.7,-3.9 -0.5,-5.2c-2.2,-2.4 1.9,-5.1 3.5,-7.6c2.4,-3.4 2.7,-1 7.7,-2.8c2.2,-0.7 0.7,-5.1 2.6,-6.3c8.1,-5 1,-5.1 8.5,-6c4.3,-0.5 -3.6,-4.5 10.6,-0.9c0.5,0.1 5.2,0.2 6,-0.2c5.2,-2.2 5.8,1.6 7.7,2.2c4.7,1.3 3.4,3 5,4.8c1.7,2 0.2,-3.5 3.1,3c1.3,2.8 1.4,-1.3 2.9,3.1c0.3,0.8 13.9,-3.9 8.7,0.5c-0.4,0.4 -0.6,0.1 -0.9,0.6c-0.3,0.5 3.6,1.8 4.2,2.9c0.3,0.6 -4.2,2.6 -4.7,4c-0.4,1.2 -1.3,0.4 -2,5.5c-0.1,0.8 -1.7,0.5 -2.3,1.1c-0.5,0.5 -0.7,1.5 0,1.9c4.5,2.3 -3.7,-0.3 3.4,5.8c2.7,2.3 -7.8,3.9 5.8,7.9c3.1,0.9 -1.3,5.7 -2.3,6.8c-0.2,0.1 -0.3,0.3 -0.5,0.5c-0.4,0.4 -1.2,1.1 -1.7,1.3c-1.4,0.5 -2.9,0.4 -4.3,0.9c-0.2,0.1 0,0.4 0,0.6c0,0.4 0.3,1.9 -0.1,1.9c-2.2,-0.2 -1.9,6.9 -8.5,1.9c-4.7,-3.6 1.8,6.2 -11.7,2.9c-1,-0.3 -4,-0.1 -4.2,1.2c-0.2,1 -0.9,2 -1.1,3.1c-0.2,0.9 0.4,14.7 0.5,15c0.2,1.6 0.6,2.6 0,4.6c-0.1,0.3 0.4,0.8 0.5,1.1c0.2,0.6 0.3,1.2 0.8,1.7c0.5,0.6 10.7,4.5 10.5,4.6c-4.1,1.7 -9.2,1.2 -13.3,0.1c-0.8,-0.2 -13.5,0.3 -14.6,-0.7c-0.4,-0.8 3.4,-4.1 3.4,-4.1l0,0z" fill="url(#SVGID_45_)" clip-rule="evenodd" fill-rule="evenodd"/>
   <path id="svg_58" d="m497.6,753.4c24.2,22.8 338.9,30.4 507.8,17.5c0.7,0 8.3,-1.2 8.4,-1.4c0.5,-0.9 -2,-0.9 -2.3,-1.9c-1.4,-4 -0.7,0.2 -1.8,-2.1c-3.5,-6.9 -6.3,1.8 -4.1,-7.4c0.1,-0.5 -0.3,-0.8 0.1,-0.9c5.7,-1.3 8.8,-2.1 8.9,-8.4c0,-1.7 -0.7,-3.9 0.5,-5.2c2.2,-2.5 -1.9,-5.2 -3.5,-7.6c-2.4,-3.4 -2.7,-1 -7.7,-2.8c-2.1,-0.7 -0.7,-5.1 -2.6,-6.3c-8.1,-5 -1,-5.1 -8.5,-6c-4.3,-0.5 3.6,-4.5 -10.6,-0.9c-0.5,0.1 -5.2,0.2 -6.1,-0.2c-5.2,-2.2 -5.8,1.6 -7.7,2.2c-4.7,1.3 -3.4,3 -5,4.8c-1.6,1.9 -0.4,-2.7 -2.6,1.8c-1.1,-1 -1.8,-2.2 -2.5,-4.6l-1.3,-1c0,-0.2 -0.1,-1.5 -0.1,-1.7c-3.5,-1 1.5,-2.8 -5.9,-4.6l-0.1,-0.8c0,-1.5 -2.1,-0.7 -2,0c-1.9,0 -0.5,-1 -0.9,-2.9l-0.2,-0.2c-0.6,0.6 -0.8,1.5 -1.4,2.1c-6,5.5 0.7,-0.6 -2.8,3.9c-0.2,0 -0.4,0 -0.6,0c0.2,-1.9 -5,-8.5 -5,-1.7c-1.6,0 -0.8,-1.6 -1.9,-1.9c-1.3,1.3 -2.3,4.2 -2.8,6.9c-1,0.2 -2.1,0.5 -3.5,0.8c-0.5,0.1 -5.2,0.2 -6,-0.2c-5.2,-2.2 -5.8,1.6 -7.7,2.1c-4.6,1.3 -3.5,2.9 -4.8,4.7c-0.7,-0.2 -1.6,-0.4 -2.7,-0.7c-2.7,-0.7 0.9,-3.8 -5.4,-4c-14.7,-0.4 1.4,4.8 -8.3,4.8l-2.8,-0.8c0.2,-5.1 -4.7,-0.4 -7.3,-2.8c-7.1,-6.4 -2.8,3.9 -7.5,6.5c-0.2,0.1 -0.5,0.2 -0.7,0.3c-2.7,-1.7 -3.8,-2.5 -4.9,-6.3l-1.3,-1c0,-0.2 -0.1,-1.5 -0.1,-1.7c-3.5,-1 1.5,-2.8 -5.9,-4.6l-0.1,-0.7c0,-1.5 -2.1,-0.7 -2,0c-1.9,0 -0.5,-1 -0.8,-2.9l-0.2,-0.2c-0.6,0.6 -0.8,1.5 -1.4,2.1c-5.6,5.1 -0.1,0.1 -2.2,3.2c-0.8,-0.5 -1.5,-1 -2,-1.5c-0.3,-0.5 -0.6,-0.9 -1,-1.3c-0.5,-0.7 -0.8,-1.7 -1.2,-2.9l-1.3,-1c0,-0.2 -0.1,-1.5 -0.1,-1.7c-3.6,-0.9 1.5,-2.8 -5.9,-4.6l-0.1,-0.8c0,-1.5 -2.1,-0.7 -2,0c-2,0 -0.6,-1 -0.9,-2.9l-0.2,-0.2c-0.6,0.6 -0.8,1.5 -1.4,2.1c-6,5.5 0.7,-0.6 -2.8,3.9c-0.2,-0.1 -0.4,0 -0.7,0c0.2,-1.9 -5,-8.5 -5,-1.8c-1.6,0 -0.8,-1.6 -1.9,-1.9c-0.6,0.7 -1.2,1.7 -1.7,2.9c-0.6,-1.6 -0.1,-4.3 -1.6,-5.2c-8.1,-5 -1,-5.2 -8.5,-6c-4.3,-0.5 3.6,-4.5 -10.6,-0.9c-0.5,0.1 -5.2,0.2 -6,-0.2c-5.2,-2.2 -5.8,1.6 -7.7,2.1c-4.7,1.3 -3.4,3 -4.9,4.8c-1.7,2 -0.2,-3.5 -3.1,3c-1.3,2.9 -1.4,-1.3 -2.9,3.1c-0.3,0.8 -13.9,-3.8 -8.7,0.5c0.4,0.3 0.6,0.1 0.9,0.6c0.3,0.5 -3.6,1.8 -4.2,2.9c-0.3,0.6 4.3,2.6 4.7,4c0.4,1.3 1.3,0.5 2,5.5c0.1,0.8 1.7,0.4 2.3,1c0.5,0.6 0.7,1.4 0.1,1.7c-3.3,1.6 0.2,1.3 -0.5,2.3l-0.1,0c-4.3,0 3.5,-4.3 -10.6,-0.7c-0.5,0.1 -5.2,0.3 -6,-0.1c-0.3,-0.1 -0.6,-0.2 -0.8,-0.3c-1.8,-1 1.6,-2.7 -5.1,-4.2l-0.1,-0.8c0,-1.5 -2.1,-0.7 -2,0c-1.9,0 -0.5,-1 -0.8,-2.9l-0.2,-0.2c-0.6,0.6 -0.8,1.5 -1.4,2.1c-6,5.5 0.7,-0.5 -2.8,3.9c-0.2,0 -0.4,0 -0.7,0c0.2,-1.9 -5,-8.7 -5,-1.7l-0.2,0c-1.3,0 -0.7,-1.6 -1.7,-2c-0.3,0.4 -0.7,0.9 -1,1.6c-0.4,-0.1 -0.9,-0.2 -1.4,-0.4c-2.2,-0.7 -0.7,-5.1 -2.6,-6.3c-8.2,-5 -1.1,-5.2 -8.5,-6c-4.3,-0.5 3.6,-4.5 -10.6,-0.9c-0.5,0.1 -5.2,0.2 -6,-0.2c-5.2,-2.2 -5.8,1.6 -7.7,2.1c-4.7,1.3 -3.4,3 -4.9,4.8c-1.7,2.1 -0.2,-3.5 -3.1,3c-1.3,2.9 -1.4,-1.3 -2.9,3.1c-0.3,0.8 -13.9,-3.9 -8.7,0.5c0.4,0.3 0.7,0.1 0.9,0.6c0.3,0.6 -3.6,1.8 -4.2,2.9c-0.3,0.6 4.3,2.6 4.7,4c0.4,1.3 1.3,0.5 2,5.5c0,0.2 0.2,0.4 0.4,0.5c-0.9,-0.2 -2,-0.5 -3.3,-0.8c-2.7,-0.7 1,-3.8 -5.4,-4c-14.7,-0.4 1.4,4.7 -8.3,4.7l-2.8,-0.8c0.2,-5.1 -4.7,-0.4 -7.3,-2.8c-7.1,-6.4 -2.8,3.9 -7.5,6.5c-3.8,2.1 -6.1,1.7 -7.4,1.5c0,-4.1 4.2,-2.3 -6.1,-5c-2.7,-0.7 1,-3.8 -5.4,-4c-14.7,-0.4 1.4,4.8 -8.3,4.8l-2.8,-0.8c0.2,-5.1 -4.7,-0.4 -7.3,-2.8c-7.1,-6.4 -2.8,3.9 -7.5,6.5c-0.3,0.1 -0.6,0.3 -0.8,0.4c-1,-0.2 -2.7,-0.6 -5.1,-1.3c-2.7,-0.7 1,-3.8 -5.4,-4c-14.7,-0.4 1.4,4.8 -8.3,4.8l-2.8,-0.8c0.1,-2.9 -1.5,-2.7 -3.3,-2.3c-3.4,-2.2 -4.7,-2.7 -5.8,-6.9l-1.3,-1c0,-0.2 -0.1,-1.5 -0.1,-1.7c-3.6,-0.9 1.5,-2.8 -5.9,-4.6l-0.1,-0.8c0,-1.5 -2.1,-0.7 -2,0c-2,0 -0.6,-1 -0.9,-2.9l-0.2,-0.2c-0.6,0.6 -0.8,1.5 -1.4,2.1c-6,5.5 0.7,-0.6 -2.8,3.8c-0.2,0 -0.4,0 -0.6,0c0.2,-2 -5,-8.5 -5,-1.8c-1.6,0 -0.8,-1.6 -1.9,-1.9c-1.9,2 -3.3,7.4 -3.3,10.7c-2.8,0 -0.6,-2.4 -3.6,-2.4c0,0.8 0.8,2.6 0.8,3.4c-0.2,4.6 2.6,1 -2.4,1c0,0 -0.5,1.3 -1,2.8c-10.6,0.2 3.1,4.8 -6,4.8l-2.8,-0.8c0.1,-5.1 -4.7,-0.4 -7.3,-2.8c-7.1,-6.4 -2.8,3.8 -7.5,6.4c-8.7,4.8 -9,-3.3 -9.6,6.4c-1.5,0.6 -17.1,3.1 -16.3,3.9l0,0zm192.5,-17.2c-0.2,-0.1 -0.6,-0.1 -0.9,-0.2c0.3,0 0.7,0.1 0.9,0.2l0,0zm-227.5,14.1c0.3,-0.5 0.3,-0.2 0.3,-0.7c-3.8,-3.5 -1.1,1.5 -4.6,-4c-0.8,-1.3 -0.2,-4.1 0.4,-6.1c-0.4,0.2 -0.9,0.4 -1.5,0.6l-0.9,0.8c-0.3,3.8 -3.8,-1.8 -8.1,5.4c-0.6,1.1 -18,-0.1 -20.4,-3.8c-0.6,-0.9 -6.8,1.5 -3.6,-3.1c0.4,-0.6 0.3,-0.3 0.3,-0.8c-4.6,-4.3 -1.4,1.9 -5.6,-4.9c-1.6,-2.6 1.5,-10.4 1.6,-10.5c6.1,0 2.7,4.4 2.9,-1.2c0,-1 -0.9,-3.2 -0.9,-4.2c3.7,0 1,2.9 4.5,2.9c0,-4.1 1.7,-10.7 4,-13.2c1.3,0.5 0.3,2.4 2.3,2.4c0,-8.2 6.4,-0.2 6.2,2.1c0.3,0 0.5,0 0.8,0c4.3,-5.4 -3.9,2 3.4,-4.7c0.8,-0.7 1,-1.9 1.7,-2.6l0.2,0.3c0.4,2.3 -1.3,3.6 1,3.6c-0.1,-0.9 2.5,-1.8 2.5,0l0.1,0.9c9.1,2.1 2.9,4.4 7.2,5.6c0.1,0.2 0.2,1.8 0.2,2.1l1.5,1.3c1.5,5.4 3.1,5.8 7.7,8.8c0.2,0.1 0.1,0.6 0.1,0.9c0.5,-1.5 1.2,-2.9 2,-3.7c1.1,0.3 0.3,1.9 1.9,1.9c0,-6.7 5.2,-0.2 5,1.7c0.2,0 0.4,0 0.6,0c3.5,-4.4 -3.2,1.6 2.8,-3.9c0.6,-0.6 0.8,-1.5 1.4,-2.1l0.2,0.2c0.3,1.9 -1.1,2.9 0.9,2.9c-0.1,-0.7 2,-1.5 2,0l0.1,0.7c7.4,1.8 2.3,3.6 5.9,4.6c0,0.2 0.1,1.5 0.1,1.7l1.3,1c1.2,4.4 2.6,4.8 6.3,7.2c0.2,0.1 0.1,0.6 0.1,0.8c0,0 5.2,5.5 -1.7,6.8c-3,0.6 -0.6,1.4 -5.6,3.1l-0.8,0.6c-0.2,3.1 -3.1,-1.5 -6.6,4.4c-0.5,0.9 -14.7,-0.1 -16.7,-3.1c-0.1,-1 -5.1,1.1 -2.5,-2.7l0,0zm-0.9,-13c1.6,0.7 0.4,2 0.2,-0.3c0,0.1 -0.1,0.2 -0.2,0.3l0,0z" fill="url(#SVGID_46_)" clip-rule="evenodd" fill-rule="evenodd"/>
   <path id="svg_59" d="m1090.5,757.2c6.2,0.5 68.1,3 69.6,1.3c-2.6,-2.8 -4.8,-1.7 -6.3,-4.5c0.7,-0.1 1.3,-0.1 1.5,0.1c1.9,3 16.1,4.1 16.7,3.1c3.3,-5.6 6.1,-1.6 6.5,-4c2.4,3.6 0.3,-0.7 4.4,3.1c0,0.5 0,0.2 -0.4,0.8c-3.2,4.7 3,2.2 3.6,3.1c2.4,3.7 19.8,5 20.4,3.8c4.3,-7.2 7.8,-1.6 8.1,-5.4l0.9,-0.8c6.1,-2.1 3.1,-3.1 6.9,-3.8c0.2,0 0.3,0 0.5,-0.1c0.6,0.3 0.3,-1.2 3.3,1.5c0,0.5 0,0.2 -0.4,0.8c-3.3,4.7 3,2.2 3.6,3.1c2.4,3.7 19.8,5 20.4,3.8c4.2,-7.2 7.8,-1.5 8,-5.4l0.9,-0.8c6.1,-2.1 3.1,-3.1 6.9,-3.7c6.8,-1.2 4,-5.8 2.7,-7.6c5.8,1.3 13.2,1.5 13.6,0.8c0.5,-0.9 1,-1.5 1.5,-2.1c0.3,-0.1 1,0.2 2.6,1.6c0,0.5 0,0.2 -0.4,0.8c-3.3,4.7 3,2.2 3.6,3.1c2.4,3.7 19.8,4.9 20.4,3.8c4.2,-7.2 7.8,-1.6 8,-5.4l0.9,-0.8c1.8,-0.6 2.8,-1.1 3.4,-1.5c1.2,0 2.7,-0.3 3,0.1c2.4,3.7 19.8,4.9 20.4,3.8c4.2,-7.2 7.8,-1.6 8,-5.4l0.9,-0.8c0.9,-0.3 1.6,-0.6 2.1,-0.9c5.8,1.3 13.1,1.5 13.5,0.8c4.3,-7.2 7.8,-1.5 8.1,-5.4l0.5,-0.4c0.2,0.1 0.3,0.3 0.5,0.5c0,0.5 0.1,0.2 -0.3,0.8c-3.3,4.7 3.2,2.2 3.8,3.1c1.8,2.8 11.5,4.2 17.5,4.2l0,-41.5c-1,0.6 -0.9,1.4 -1.6,2c-7.3,6.7 0.8,-0.7 -3.5,4.8c-0.3,-0.1 -0.6,0 -0.9,0c0.2,-2.4 -6.2,-10.4 -6.2,-2.2c-2,0 -1,-1.9 -2.4,-2.3c-2.1,2.2 -3.7,8 -3.9,12.1c-0.5,-0.9 -1,-2.1 -1.4,-3.6l-1.5,-1.2c0,-0.3 -0.1,-1.8 -0.1,-2.1c-4.4,-1.2 1.8,-3.5 -7.3,-5.6l-0.1,-0.9c0,-1.8 -2.6,-0.9 -2.4,0c-2.4,0 -0.7,-1.3 -1.1,-3.6l-0.2,-0.3c-0.7,0.7 -0.9,1.8 -1.7,2.5c-7.3,6.7 0.9,-0.7 -3.4,4.8c-0.3,-0.1 -0.5,0 -0.8,0c0.2,-2.3 -6.2,-10.4 -6.2,-2.2c-2,0 -1,-1.9 -2.3,-2.3c-1.6,1.7 -2.9,5.5 -3.6,9c-0.7,-0.3 -1.6,-0.5 -2.7,-0.8l-0.1,-0.9c0,-1.8 -2.6,-0.9 -2.5,0c-2.4,0 -0.7,-1.3 -1,-3.6l-0.2,-0.3c-0.7,0.7 -1,1.8 -1.7,2.6c-7.3,6.7 0.8,-0.7 -3.4,4.8c-0.3,-0.1 -0.5,0 -0.8,0c0.2,-2.4 -6.2,-10.4 -6.2,-2.2c-2,0 -1,-1.9 -2.3,-2.3c-2.3,2.4 -4,9.1 -4,13.2c-3.5,0 -0.8,-2.9 -4.5,-2.9c0,1 0.9,3.2 0.9,4.2c-0.2,4.7 2.1,2.4 -0.5,1.5c-0.1,-0.4 -0.3,-0.8 -0.4,-1.2l-1.5,-1.3c0,-0.3 -0.1,-1.8 -0.2,-2.1c-4.4,-1.2 1.8,-3.5 -7.2,-5.6l-0.2,-0.9c0,-1.8 -2.6,-0.9 -2.4,0c-2.4,0 -0.7,-1.3 -1,-3.6l-0.2,-0.3c-0.7,0.7 -1,1.8 -1.7,2.6c-7.3,6.7 0.8,-0.7 -3.4,4.8c-0.3,-0.1 -0.5,-0.1 -0.8,-0.1c0.2,-2.3 -6.2,-10.4 -6.2,-2.1c-2,0 -1,-1.9 -2.3,-2.4c-0.6,0.6 -1.2,1.6 -1.6,2.6l-0.3,-0.2c0,-0.3 -0.1,-1.8 -0.2,-2.1c-4.3,-1.2 1.8,-3.5 -7.2,-5.6l-0.1,-0.9c0,-1.8 -2.6,-0.9 -2.5,0c-2.4,0 -0.7,-1.3 -1,-3.6l-0.2,-0.3c-0.7,0.7 -1,1.9 -1.7,2.6c-7.3,6.7 0.9,-0.7 -3.4,4.8c-0.2,-0.1 -0.5,0 -0.8,0c0.2,-2.4 -6.2,-10.4 -6.2,-2.2c-2,0 -1,-1.9 -2.4,-2.3c-2.3,2.4 -4,9.1 -4,13.2c-3.5,0 -0.8,-2.9 -4.5,-2.9c0,1 0.9,3.2 0.9,4.2c-0.2,5.6 3.2,1.2 -2.9,1.2c-0.1,0 -0.7,1.6 -1.3,3.6c-0.6,-0.2 -1.2,-0.3 -2,-0.6l-0.1,-0.9c0,-1.8 -2.6,-0.9 -2.5,0c-2.4,0 -0.7,-1.3 -1,-3.6l-0.2,-0.3c-0.7,0.7 -1,1.8 -1.7,2.5c-1.1,1 -1.9,1.7 -2.3,2.1c-3.2,-2 -4.6,-3 -5.9,-7.6l-1.5,-1.2c0,-0.3 -0.1,-1.8 -0.2,-2.1c-4.3,-1.2 1.8,-3.5 -7.2,-5.6l-0.1,-0.9c0,-1.8 -2.6,-0.9 -2.5,0c-2.4,0 -0.7,-1.3 -1,-3.6l-0.2,-0.3c-0.7,0.7 -1,1.9 -1.7,2.6c-7.3,6.7 0.9,-0.7 -3.4,4.8c-0.2,-0.1 -0.5,0 -0.8,0c0.2,-2.4 -6.2,-10.4 -6.2,-2.2c-2,0 -1,-1.9 -2.4,-2.3c-2.3,2.4 -4,9.1 -4,13.2c-3.5,0 -0.8,-2.9 -4.5,-2.9c0,1 1,3.2 0.9,4.2c0,1.2 0.1,1.9 0.2,2.3c0.1,-0.1 0.1,-0.2 0.2,-0.3c-0.5,-0.4 -1.4,-0.8 -3.3,-0.8c-0.1,0.1 -1,2.5 -1.6,5.1c-1.1,-3 -5.9,-8.3 -5.9,-1c-2,0 -1,-1.9 -2.4,-2.3c-2.3,2.4 -4,9.1 -4,13.2c-3.5,0 -0.8,-2.9 -4.5,-2.9c0,0.5 0.2,1.2 0.4,1.9c-0.4,-0.7 -0.8,-1.6 -1.1,-2.9l-1.3,-1c0,-0.2 -0.1,-1.5 -0.1,-1.7c-3.5,-1 1.5,-2.8 -5.9,-4.6l-0.1,-0.8c0,-1.5 -2.1,-0.7 -2,0c-1.9,0 -0.5,-1 -0.8,-2.9l-0.2,-0.2c-0.6,0.6 -0.8,1.5 -1.4,2.1c-6,5.5 0.7,-0.6 -2.8,3.9c-0.2,0 -0.4,0 -0.6,0c0.2,-1.9 -5,-8.5 -5,-1.7c-1.6,0 -0.8,-1.6 -1.9,-1.9c-1.9,2 -3.2,7.4 -3.2,10.7c-2.8,0 -0.7,-2.4 -3.7,-2.4c0,0.8 0.8,2.6 0.8,3.4c-0.2,4.6 2.6,1 -2.4,1c0,0.1 -1.1,2.8 -1.5,5.3c-0.5,-0.1 -0.9,-0.2 -1.5,-0.4c-2.7,-0.7 0.9,-3.8 -5.4,-4c-14.7,-0.4 1.4,4.8 -8.3,4.8l-2.8,-0.8c0.2,-5.1 -4.7,-0.4 -7.3,-2.8c-7.1,-6.4 -2.8,3.9 -7.5,6.4c-8.7,4.8 -9,-3.3 -9.6,6.4c-1.1,0.5 -14.8,4 -15.9,3.9l0,0zm-49.3,7.3c0.3,-0.5 0.3,-0.2 0.3,-0.7c-3.8,-3.5 -1.1,1.5 -4.6,-4.1c-0.8,-1.2 -0.2,-4.1 0.4,-6.1c-0.4,0.2 -0.9,0.3 -1.5,0.6l-0.9,0.8c-0.3,3.8 -3.8,-1.8 -8.1,5.4c-0.6,1.1 -18.1,-0.1 -20.4,-3.8c-0.6,-0.9 -6.8,1.5 -3.6,-3.1c0.4,-0.6 0.3,-0.3 0.4,-0.8c-4.6,-4.3 -1.4,1.9 -5.7,-5c-1.6,-2.6 1.5,-10.4 1.6,-10.5c6.1,0 2.7,4.4 2.9,-1.2c0.1,-0.9 -0.9,-3.2 -0.9,-4.2c3.7,0 1,2.9 4.5,2.9c0,-4.1 1.7,-10.7 4,-13.2c1.4,0.4 0.4,2.3 2.4,2.3c0,-8.2 6.4,-0.2 6.2,2.2c0.3,0 0.5,0 0.8,0c4.3,-5.4 -3.9,2 3.4,-4.8c0.8,-0.7 1,-1.8 1.7,-2.5l0.2,0.3c0.4,2.3 -1.3,3.6 1,3.6c-0.1,-0.9 2.5,-1.8 2.5,0l0.1,0.9c9.1,2.2 2.9,4.4 7.2,5.6c0.1,0.3 0.2,1.8 0.2,2.1l1.5,1.2c1.5,5.4 3.1,5.8 7.7,8.8c0.2,0.1 0.1,0.6 0.1,0.9c0.5,-1.5 1.2,-2.9 2,-3.7c1.1,0.3 0.3,1.9 1.9,1.9c0,-6.7 5.2,-0.2 5,1.7c0.2,0 0.4,0 0.6,0c3.5,-4.4 -3.2,1.6 2.8,-3.9c0.6,-0.6 0.8,-1.5 1.4,-2.1l0.2,0.2c0.3,1.9 -1.1,2.9 0.9,2.9c-0.1,-0.7 2,-1.5 2,0l0.1,0.8c7.4,1.7 2.3,3.6 5.9,4.6c0,0.2 0.1,1.5 0.1,1.7l1.3,1c1.2,4.4 2.6,4.7 6.3,7.1c0.2,0.1 0.1,0.6 0.1,0.8c0,0 5.2,5.5 -1.7,6.8c-3,0.6 -0.6,1.4 -5.6,3.1l-0.7,0.6c-0.2,3.1 -3.1,-1.5 -6.6,4.4c-0.6,0.9 -14.7,-0.1 -16.7,-3.1c-0.2,-0.5 -5.3,1.5 -2.7,-2.4l0,0zm-0.8,-12.9c1.6,0.7 0.4,2 0.2,-0.2c-0.1,0 -0.1,0.1 -0.2,0.2l0,0z" fill="url(#SVGID_47_)" clip-rule="evenodd" fill-rule="evenodd"/>
   <path id="svg_60" d="m1261,728.9c4.1,2.1 6.7,-6.1 6.9,-8.9c0.2,-2.8 2.3,-24.8 -2.5,-20.8c-0.7,0.6 -7.7,-1.6 -8.6,-2.2c-0.7,-0.5 -0.3,-0.3 -0.8,-0.3c-1,0.1 -2,0.7 -2.9,0.8c-3.1,0.3 -5,-3.7 -5.4,-4.2c-0.8,-1.1 -2,1.6 -3.7,-1.4c-0.1,-0.2 -4.2,1 -4.7,0c-0.5,-1 2,-0.9 2.3,-2c1.4,-3.9 0.7,0.2 1.9,-2.1c3.4,-6.9 6.3,1.8 4.1,-7.4c-0.1,-0.5 0.3,-0.8 -0.1,-0.9c-5.7,-1.3 -8.7,-2.1 -8.9,-8.3c0,-1.7 0.7,-4 -0.5,-5.2c-2.2,-2.5 1.9,-5.2 3.5,-7.6c2.4,-3.4 2.7,-1.1 7.7,-2.8c2.2,-0.7 0.7,-5.1 2.6,-6.3c8.1,-5 1,-5.1 8.5,-6c4.3,-0.5 -3.6,-4.4 10.6,-0.9c0.5,0.1 5.2,0.2 6,-0.1c5.2,-2.2 5.8,1.6 7.7,2.1c4.7,1.3 3.4,3 4.9,4.8c1.7,2.1 0.2,-3.5 3.1,3c1.3,2.8 1.4,-1.3 2.9,3.1c0.3,0.8 13.9,-3.9 8.7,0.5c-0.4,0.3 -0.6,0.1 -0.9,0.6c-0.3,0.6 3.6,1.8 4.2,2.9c0.3,0.6 -4.3,2.6 -4.7,4c-0.4,1.3 -1.3,0.4 -2,5.5c-0.1,0.8 -1.7,0.5 -2.3,1.1c-0.5,0.5 -0.7,1.5 0,1.9c4.5,2.2 -3.7,-0.3 3.4,5.8c2.7,2.3 -7.8,3.9 5.8,7.9c3.1,0.9 -1.3,5.7 -2.3,6.7c-0.2,0.1 -0.3,0.3 -0.5,0.5c-0.4,0.4 -1.2,1.1 -1.7,1.3c-1.4,0.5 -2.9,0.4 -4.3,0.9c-0.2,0.1 0,0.4 0,0.6c0,0.4 0.3,1.9 -0.1,1.9c-2.2,-0.2 -1.9,6.9 -8.5,1.9c-4.8,-3.6 1.7,6.2 -11.7,2.9c-1,-0.3 -4,-0.1 -4.2,1.2c-0.2,1.1 -0.9,2 -1.1,3.1c-0.2,0.9 0.4,14.7 0.5,15c0.2,1.6 0.6,2.6 0,4.7c-0.1,0.3 0.4,0.8 0.5,1c0.2,0.6 0.3,1.2 0.8,1.7c0.5,0.5 10.7,4.5 10.5,4.6c-4.1,1.7 -9.2,1.2 -13.3,0c-0.8,-0.2 -13.5,0.3 -14.6,-0.7c-0.6,-0.6 3.2,-3.9 3.2,-3.9l0,0z" fill="url(#SVGID_48_)" clip-rule="evenodd" fill-rule="evenodd"/>
  </g>
 </g>
</svg>