<svg width="1400" height="980" xmlns="http://www.w3.org/2000/svg">
 <defs>
  <linearGradient y2="0.53258" x2="0.112495" y1="0.496696" x1="0.924045" id="SVGID_1_">
   <stop stop-color="#E8DFA5" offset="0"/>
   <stop stop-color="#FEFCE3" offset="1"/>
  </linearGradient>
  <linearGradient y2="0.442329" x2="0.08656" y1="0.554344" x1="0.775454" id="SVGID_2_">
   <stop stop-color="#CCC484" offset="0"/>
   <stop stop-color="#FFF5BF" offset="1"/>
  </linearGradient>
  <linearGradient y2="0.349317" x2="0.074534" y1="0.670505" x1="0.87378" id="SVGID_3_">
   <stop stop-color="#9D9043" offset="0"/>
   <stop stop-color="#FEFCE3" offset="1"/>
  </linearGradient>
  <linearGradient y2="-0.140433" x2="0.437461" y1="0.192788" x1="0.467459" id="SVGID_4_">
   <stop stop-color="#8B833A" offset="0"/>
   <stop stop-color="#F6D671" offset="1"/>
  </linearGradient>
  <linearGradient y2="-0.258491" x2="0.441211" y1="0.151517" x1="0.466924" id="SVGID_5_">
   <stop stop-color="#8B833A" offset="0"/>
   <stop stop-color="#C49E44" offset="1"/>
  </linearGradient>
  <linearGradient y2="-0.275229" x2="0.454056" y1="0.266119" x1="0.480841" id="SVGID_6_">
   <stop stop-color="#3D5D2B" offset="0"/>
   <stop stop-color="#C49E44" offset="1"/>
  </linearGradient>
  <linearGradient y2="1.05647" x2="0.499995" y1="-0.917771" x1="0.499995" id="SVGID_7_">
   <stop stop-color="#024F34" offset="0"/>
   <stop stop-color="#7F6D21" offset="1"/>
  </linearGradient>
  <linearGradient y2="0.824786" x2="0.505766" y1="-0.285607" x1="0.537957" id="SVGID_8_">
   <stop stop-color="#024F34" offset="0"/>
   <stop stop-color="#7F6D21" offset="1"/>
  </linearGradient>
  <linearGradient y2="0.421041" x2="0.5" y1="-0.549026" x1="0.5" id="SVGID_9_">
   <stop stop-color="#024F34" offset="0"/>
   <stop stop-color="#7F6D21" offset="1"/>
  </linearGradient>
  <linearGradient y2="1.073439" x2="0.499983" y1="-0.109188" x1="0.499983" id="SVGID_10_">
   <stop stop-color="#003333" offset="0"/>
   <stop stop-color="#7F6D21" offset="1"/>
  </linearGradient>
  <linearGradient y2="9.233531" x2="0.501683" y1="-0.274316" x1="0.501683" id="SVGID_11_">
   <stop stop-color="#003333" offset="0"/>
   <stop stop-color="#7F6D21" offset="1"/>
  </linearGradient>
  <linearGradient y2="8.1337" x2="0.498511" y1="-0.731639" x1="0.498511" id="SVGID_12_">
   <stop stop-color="#003333" offset="0"/>
   <stop stop-color="#7F6D21" offset="1"/>
  </linearGradient>
  <linearGradient y2="9.194588" x2="0.500279" y1="-0.300593" x1="0.500279" id="SVGID_13_">
   <stop stop-color="#003333" offset="0"/>
   <stop stop-color="#7F6D21" offset="1"/>
  </linearGradient>
  <linearGradient y2="9.303691" x2="0.5" y1="-0.568769" x1="0.5" id="SVGID_14_">
   <stop stop-color="#003333" offset="0"/>
   <stop stop-color="#7F6D21" offset="1"/>
  </linearGradient>
  <linearGradient y2="8.649869" x2="0.501361" y1="-0.439491" x1="0.501361" id="SVGID_15_">
   <stop stop-color="#003333" offset="0"/>
   <stop stop-color="#7F6D21" offset="1"/>
  </linearGradient>
  <linearGradient y2="63.82548" x2="0.5" y1="-7.44006" x1="0.5" id="SVGID_16_">
   <stop stop-color="#003333" offset="0"/>
   <stop stop-color="#7F6D21" offset="1"/>
  </linearGradient>
  <linearGradient y2="8.641521" x2="0.500186" y1="-0.87246" x1="0.500186" id="SVGID_17_">
   <stop stop-color="#003333" offset="0"/>
   <stop stop-color="#7F6D21" offset="1"/>
  </linearGradient>
  <linearGradient y2="63.82548" x2="0.5" y1="-7.44006" x1="0.5" id="SVGID_18_">
   <stop stop-color="#003333" offset="0"/>
   <stop stop-color="#7F6D21" offset="1"/>
  </linearGradient>
  <linearGradient y2="63.82548" x2="0.5" y1="-7.44006" x1="0.5" id="SVGID_19_">
   <stop stop-color="#003333" offset="0"/>
   <stop stop-color="#7F6D21" offset="1"/>
  </linearGradient>
  <linearGradient y2="68.9172" x2="0.5" y1="-10.266733" x1="0.5" id="SVGID_20_">
   <stop stop-color="#003333" offset="0"/>
   <stop stop-color="#7F6D21" offset="1"/>
  </linearGradient>
  <linearGradient y2="68.9172" x2="0.5" y1="-10.266733" x1="0.5" id="SVGID_21_">
   <stop stop-color="#003333" offset="0"/>
   <stop stop-color="#7F6D21" offset="1"/>
  </linearGradient>
  <linearGradient y2="9.303691" x2="0.499917" y1="-0.568769" x1="0.499917" id="SVGID_22_">
   <stop stop-color="#003333" offset="0"/>
   <stop stop-color="#7F6D21" offset="1"/>
  </linearGradient>
  <linearGradient y2="6.535718" x2="0.498376" y1="-0.413259" x1="0.498376" id="SVGID_23_">
   <stop stop-color="#003333" offset="0"/>
   <stop stop-color="#7F6D21" offset="1"/>
  </linearGradient>
  <linearGradient y2="8.429264" x2="0.505059" y1="-0.660097" x1="0.505059" id="SVGID_24_">
   <stop stop-color="#003333" offset="0"/>
   <stop stop-color="#7F6D21" offset="1"/>
  </linearGradient>
  <linearGradient y2="12.809194" x2="0.502885" y1="-1.249804" x1="0.502885" id="SVGID_25_">
   <stop stop-color="#003333" offset="0"/>
   <stop stop-color="#7F6D21" offset="1"/>
  </linearGradient>
  <linearGradient y2="8.032787" x2="0.500171" y1="-0.865981" x1="0.500171" id="SVGID_26_">
   <stop stop-color="#003333" offset="0"/>
   <stop stop-color="#7F6D21" offset="1"/>
  </linearGradient>
  <linearGradient y2="7.613497" x2="0.501703" y1="-1.171097" x1="0.501703" id="SVGID_27_">
   <stop stop-color="#003333" offset="0"/>
   <stop stop-color="#7F6D21" offset="1"/>
  </linearGradient>
  <linearGradient y2="6.730193" x2="0.498776" y1="-0.227642" x1="0.498776" id="SVGID_28_">
   <stop stop-color="#003333" offset="0"/>
   <stop stop-color="#7F6D21" offset="1"/>
  </linearGradient>
  <linearGradient y2="6.6069" x2="0.496889" y1="-0.069927" x1="0.496889" id="SVGID_29_">
   <stop stop-color="#003333" offset="0"/>
   <stop stop-color="#7F6D21" offset="1"/>
  </linearGradient>
  <linearGradient y2="6.485742" x2="0.492642" y1="-0.122989" x1="0.492642" id="SVGID_30_">
   <stop stop-color="#003333" offset="0"/>
   <stop stop-color="#7F6D21" offset="1"/>
  </linearGradient>
  <linearGradient y2="6.614715" x2="0.500413" y1="-0.487914" x1="0.500413" id="SVGID_31_">
   <stop stop-color="#003333" offset="0"/>
   <stop stop-color="#7F6D21" offset="1"/>
  </linearGradient>
  <linearGradient y2="6.658217" x2="0.494318" y1="-0.451495" x1="0.494318" id="SVGID_32_">
   <stop stop-color="#003333" offset="0"/>
   <stop stop-color="#7F6D21" offset="1"/>
  </linearGradient>
  <linearGradient y2="6.539062" x2="0.502675" y1="-0.57775" x1="0.502675" id="SVGID_33_">
   <stop stop-color="#003333" offset="0"/>
   <stop stop-color="#7F6D21" offset="1"/>
  </linearGradient>
  <linearGradient y2="8.416636" x2="0.51235" y1="-1.392141" x1="0.51235" id="SVGID_34_">
   <stop stop-color="#003333" offset="0"/>
   <stop stop-color="#7F6D21" offset="1"/>
  </linearGradient>
  <linearGradient y2="8.570757" x2="0.449015" y1="-1.238016" x1="0.449015" id="SVGID_35_">
   <stop stop-color="#003333" offset="0"/>
   <stop stop-color="#7F6D21" offset="1"/>
  </linearGradient>
  <linearGradient y2="8.499884" x2="0.507562" y1="-1.775513" x1="0.507562" id="SVGID_36_">
   <stop stop-color="#003333" offset="0"/>
   <stop stop-color="#7F6D21" offset="1"/>
  </linearGradient>
  <linearGradient y2="9.484701" x2="0.510668" y1="-2.118986" x1="0.510668" id="SVGID_37_">
   <stop stop-color="#003333" offset="0"/>
   <stop stop-color="#7F6D21" offset="1"/>
  </linearGradient>
  <linearGradient y2="21.407181" x2="0.499098" y1="-6.30177" x1="0.499098" id="SVGID_38_">
   <stop stop-color="#003333" offset="0"/>
   <stop stop-color="#7F6D21" offset="1"/>
  </linearGradient>
  <linearGradient y2="11.268148" x2="0.504139" y1="-2.390353" x1="0.504139" id="SVGID_39_">
   <stop stop-color="#003333" offset="0"/>
   <stop stop-color="#7F6D21" offset="1"/>
  </linearGradient>
  <linearGradient y2="13.274776" x2="0.503612" y1="-3.428811" x1="0.503612" id="SVGID_40_">
   <stop stop-color="#003333" offset="0"/>
   <stop stop-color="#7F6D21" offset="1"/>
  </linearGradient>
  <linearGradient y2="3.940184" x2="0.501079" y1="-0.014852" x1="0.501079" id="SVGID_41_">
   <stop stop-color="#003333" offset="0"/>
   <stop stop-color="#7F6D21" offset="1"/>
  </linearGradient>
  <linearGradient y2="5.484252" x2="0.497126" y1="-0.655395" x1="0.497126" id="SVGID_42_">
   <stop stop-color="#003333" offset="0"/>
   <stop stop-color="#7F6D21" offset="1"/>
  </linearGradient>
  <linearGradient y2="1.690958" x2="0.5" y1="-0.504983" x1="0.5" id="SVGID_43_">
   <stop stop-color="#003333" offset="0"/>
   <stop stop-color="#7F6D21" offset="1"/>
  </linearGradient>
  <linearGradient y2="5.245033" x2="0.498798" y1="-0.89461" x1="0.498798" id="SVGID_44_">
   <stop stop-color="#003333" offset="0"/>
   <stop stop-color="#7F6D21" offset="1"/>
  </linearGradient>
  <linearGradient y2="5.413881" x2="0.503407" y1="-0.715685" x1="0.503407" id="SVGID_45_">
   <stop stop-color="#003333" offset="0"/>
   <stop stop-color="#7F6D21" offset="1"/>
  </linearGradient>
  <linearGradient y2="5.695079" x2="0.499995" y1="-1.337291" x1="0.499995" id="SVGID_46_">
   <stop stop-color="#003333" offset="0"/>
   <stop stop-color="#7F6D21" offset="1"/>
  </linearGradient>
  <linearGradient y2="6.710144" x2="0.500157" y1="-1.692738" x1="0.500157" id="SVGID_47_">
   <stop stop-color="#003333" offset="0"/>
   <stop stop-color="#7F6D21" offset="1"/>
  </linearGradient>
  <linearGradient y2="5.553667" x2="0.500492" y1="-0.585979" x1="0.500492" id="SVGID_48_">
   <stop stop-color="#003333" offset="0"/>
   <stop stop-color="#7F6D21" offset="1"/>
  </linearGradient>
 </defs>
 <g>
  <title>background</title>
  <rect fill="none" id="canvas_background" height="402" width="582" y="-1" x="-1"/>
 </g>
 <g>
  <title>Layer 1</title>
  <g stroke="null" id="svg_1">
   <rect stroke="null" x="0" y="0" id="svg_2" height="980" width="787.999983" fill="#FDFEF0" clip-rule="evenodd" fill-rule="evenodd"/>
  </g>
  <g stroke="null" id="svg_3">
   <path stroke="null" id="svg_4" d="m0,176.3l0,787.7l790.000015,0l0,-807.6c-9.592857,0 -31.487143,-2 -40.120715,-6.1c-9.085,-4.3 -42.998572,-10.7 -43.450001,-11c-25.675,-20.6 -31.430715,3.8 -58.177858,-18.4c-10.834286,-4 -51.293572,-28.9 -51.519287,-28.9c-16.025715,-2.2 -26.126429,-5.6 -41.249286,-16.3c-8.012857,-5.6 -28.270715,12.2 -35.211429,19.6c-1.975,2.1 -6.037857,4.3 -8.351429,4.6c-2.37,-1 -4.74,-2 -7.11,-3c-22.289286,-9.7 -57.613572,38 -76.799287,39.6c-6.094286,0.9 -12.188572,1.9 -18.282857,2.8c-4.401429,-0.7 -33.857143,40.3 -60.09643,37c-5.417143,0.9 -10.777857,1.9 -16.195,2.8c-7.561429,0.6 -15.122857,1.3 -22.740715,1.9c-7.505,3.9 -14.953572,7.7 -22.458572,11.6c-5.078572,0 -14.389286,-7.7 -20.935,-1.8c-14.276429,12.9 -24.49,-0.5 -33.405715,-0.5c-8.859286,-0.3 -17.775,-0.6 -26.634286,-0.9c-2.877857,-0.3 -5.755714,-0.6 -8.633572,-0.9c-5.981429,-1.2 -12.019286,-2.5 -18.000715,-3.7c-4.627143,1.5 -9.197857,3.1 -13.825,4.6c-4.965714,-0.1 -9.931429,-0.3 -14.897143,-0.5c-2.087857,-0.8 -4.175714,-1.5 -6.263572,-2.3c-6.997143,0 -9.254286,-0.1 -15.912857,1.4c-33.180001,7 -55.300001,-15.7 -89.100716,-15.7c-4.006429,-0.1 -8.012857,-0.3 -12.019286,-0.5c-3.047143,-0.2 -6.094286,-0.3 -9.141429,-0.5l-19.467858,5z" fill="url(#SVGID_1_)" clip-rule="evenodd" fill-rule="evenodd"/>
  </g>
  <g stroke="null" id="svg_5">
   <path stroke="null" id="svg_6" d="m0,965l785.999966,0l0,-743.7c-29.194284,-19 -53.560283,-1.1 -85.224853,-11c-24.702856,-7.7 -15.383142,-13.6 -42.66857,-2.1c-43.791427,18.5 -64.788854,11.2 -108.299567,11.2c-4.379143,-0.5 -8.814428,-0.9 -13.249714,-1.4c-23.692285,0 -73.15414,0.8 -93.646282,-6.4c-15.046285,1.4 -4.491428,-8.8 -26.499427,4.5c-11.397,6.9 -33.068141,0.9 -49.574141,5.6c-3.200143,-0.5 -6.400285,-0.9 -9.600428,-1.4c-11.902285,0 -23.299285,-11.1 -43.45457,-7.3c-17.572714,3.2 -22.513285,11.7 -41.040427,1.9c-11.060142,-5.8 -20.323713,18.4 -47.272284,9.1c-6.344143,-2.2 -24.253713,10.3 -40.254427,10.3c-3.144,-0.3 -6.231857,-0.6 -9.375857,-0.9c-20.042999,17 -58.276283,-6 -85.954711,-1.8c-11.958428,1.8 -73.378711,0 -84.775711,-5.2c-1.684286,-0.6 -3.368571,-1.2 -5.052857,-1.8l0,740.4l-0.056143,0z" fill="url(#SVGID_2_)" clip-rule="evenodd" fill-rule="evenodd"/>
  </g>
  <g stroke="null" id="svg_7">
   <path stroke="null" id="svg_8" d="m0,961l788.000011,0c0,-169.1 0,-517.4 0,-685.3c-8.442857,-2 -15.703715,0.1 -24.202857,-2.6c-13.621143,-4.4 -15.253429,-9.3 -32.420572,-11.3c-1.125714,-0.1 -11.538572,-4.2 -12.101429,-4.9l0,-3.5l-2.814286,-1.4l0,2.8l-2.251429,-0.9l0,-3.3l-0.562857,-0.5l0,3.8l-1.688571,0l0,-5l-1.125714,0l0,2l-1.688571,0l0,-4.1l-0.562857,-0.3l0,6.4l-0.562857,0l0,-3l-2.251429,0l0,-0.7l-0.562857,-0.5l0,6.2l-1.125714,1.1l0,-4l-1.125714,1.2l0,5.3l-1.125714,-0.5l0,-7l-0.562857,0l0,6l-2.645429,0l-1.407143,1.4l-1.013143,0.5l0,-5l-1.125714,0l0,5.5l-1.125714,0.2l0,-1.9l-0.562857,-0.2l0,2.6c-0.562857,1.1 -1.069429,2.5 -1.632286,3.6c-0.562857,0.3 -1.069429,0.3 -1.632286,1.3c-0.450286,0 -0.956857,0 -1.407143,0c-0.450286,0 -0.844286,0.4 -1.294571,0.8c-1.576,0.5 -3.152,0.7 -4.728,1.2c-0.168857,0.2 -0.394,0.3 -0.562857,0.5c-1.632286,1.5 -24.596858,4.7 -31.688858,7.2c-8.161429,2.9 -19.418572,1.5 -22.570572,2.9c-6.810572,0.4 -13.621143,0.8 -20.488,1.1c-14.634286,0 -20.431715,-3.3 -34.165429,4.2c-9.005714,4.9 -12.214,-6.8 -26.960858,1.9c-0.956857,0.5 -3.94,1.9 -5.009429,1.8c-1.857429,-0.9 -4.334,-1.9 -5.459714,-2.8l0,-4.4l-1.688571,-0.6l0,6.3l-1.125714,0l0,-6.3l-1.688571,1.4l0,10.8l-1.125714,0l0,-9l-0.900571,0l-0.394,1c-1.97,0 -10.356572,-8.4 -13.339714,-2.7c-0.056286,0.2 -5.628572,4.4 -6.191429,4.4l0,-5.6l-1.688571,-2.9l0,5l-0.788,0.5c-0.844286,1.9 -0.900571,1.2 -2.589143,2.1l0,-4.2l-2.814286,-1.1l0,5.5l-1.688571,1l0,-3.6l-2.251429,2.1l0,5.6c-1.688571,-0.1 -3.377143,-0.3 -5.065714,-0.5c-8.555429,0 -37.880286,3.4 -45.253715,6.5c-1.688571,0.1 -3.602286,0 -5.290857,0c-1.97,1.3 -3.94,2.6 -5.853714,4c-10.581714,0 -19.7,6 -30.281715,6c-0.281429,0 -12.157714,6.1 -15.703715,6.5c-0.168857,0 -0.337714,0.1 -0.506571,0.1c-1.013143,0.1 -1.688571,0.6 -2.645429,1c-0.337714,-0.1 -0.675429,-0.3 -1.069429,-0.5c-20.206572,11.1 -28.086572,4.2 -37.655143,8.9c-0.562857,0.3 -1.125714,0.7 -1.688571,1c-1.744857,0.9 -3.489714,1.9 -5.234572,2.8c-64.616001,-0.5 -142.121431,17.9 -205.83686,33.9c-33.546286,8.5 -100.526287,21.4 -135.423431,21.4l0,580.8z" fill="url(#SVGID_3_)" clip-rule="evenodd" fill-rule="evenodd"/>
  </g>
  <g stroke="null" id="svg_9">
   <path stroke="null" id="svg_10" d="m789.999974,338l0,622l-789.999974,0l0,-697.7l2.821428,0.2l-0.112857,2.5l1.975,0.2l1.58,-1.4l0.112857,2.6l7.843571,1.6c2.200714,1.1 10.947142,3.9 11.003571,3.9l-0.112857,-7l9.931428,0l0.282143,7c4.175714,0 13.43,3.6 15.687142,-2.6c0.79,-2.2 2.313571,3.7 5.925,-0.9c0.112857,-0.1 3.555,-2.4 3.555,2.2l0,1.4c2.257143,1.3 0.959286,-1.6 3.667857,-1.6l0.79,0.8c0.677143,0.9 0.507857,1.8 1.185,1.8l0.282143,0c10.100714,0 10.044285,-2.3 21.950714,0.3c9.254285,2.1 8.464285,8.2 18.508571,3.1c0.338571,-0.2 1.015714,-0.5 1.354286,-0.3c0.564286,0.3 0.733571,2.1 1.297857,2.1c0.507857,0 0.564286,-1.8 1.128571,-2c0.282143,-0.1 2.031429,5 2.482857,5.6c0.282143,0.4 0.564286,0.7 0.846429,0.6c0.902857,-0.4 1.805714,-2.3 2.595714,-1.6c5.135,4.5 0.395,0.1 4.570714,2.8c0.338571,0.2 0.564286,0.8 0.902857,0.9c0.451429,0.2 3.667857,-2.4 3.780714,-2.8c0,0 2.37,-14.6 2.37,-4.4c0,5.9 0.112857,4.8 0.677143,7c0.282143,1 0.225714,-8 2.257143,-0.6c0.112857,0.5 6.884285,-1.7 6.884285,-1.7c0.507857,0.3 0.507857,2.3 1.185,2.5c2.257143,0.7 -2.144286,-1.8 1.467143,-2.5c0.395,-0.1 -0.169286,-0.8 0.282143,-1.7c0.338571,-0.7 1.241429,1.5 1.297857,1.6c0,0.1 2.877857,-15.5 3.16,-5.9c0.056429,2.2 0,5.5 0.959286,7.3c0.733571,1.4 1.692857,-3.4 3.498571,0.9c0.282143,0.7 6.207143,-3.4 7.787143,-3c1.015714,0.3 2.482857,-0.8 3.555,2.9c0.733571,2.7 0.564286,-7.2 5.304286,-3.4c0.451429,0.4 0.564286,1.7 1.072143,2.1c0.395,0.2 0.902857,-0.1 1.185,-0.6c0.169286,-0.3 -0.169286,-1.2 0.056429,-1.5c0.395,-0.6 0.959286,-0.6 1.467143,-0.9c0.338571,-0.2 0.677143,-0.3 0.959286,-0.6c0.056429,0 0,-0.5 0,-0.6c0,-0.3 -0.056429,-0.6 0,-0.9c0.225714,-1.7 0.395,-3.4 0.79,-5c0.056429,-0.3 0.395,0.1 0.451429,0.3c0.451429,1.3 0.112857,0.5 0.112857,0.6c0,0.5 0.056429,0.9 0.056429,1.4c0,0.5 -0.169286,1 0,1.4c0.451429,0.9 1.128571,1.4 1.692857,2c0.056429,0.1 0.112857,0 0.169286,0c0.169286,-0.2 0.395,-0.4 0.507857,-0.7c0.169286,-0.6 0.112857,-0.5 0.112857,-1.2c0.056429,-1 -0.056429,-2.2 0.169286,-3.1c0.112857,-0.5 0.451429,-0.7 0.564286,-0.3c0.282143,0.6 0.338571,1.4 0.451429,2.2c0.056429,0.3 -0.056429,0.6 0,0.9c0.112857,0.6 0.395,1.2 0.564286,1.7c0.225714,0.7 0.056429,0.8 0.112857,1.6c0.056429,0.5 0.169286,1 0.395,1.4c0.451429,0.6 0.507857,0.5 1.072143,0.3c0.112857,-0.1 0.169286,-0.5 0.169286,-0.7c0.056429,-0.4 0.112857,-1.2 0.282143,-1.5c0.225714,-0.5 0.507857,-0.8 0.79,-1.2c0.056429,-0.1 0.169286,0 0.169286,0.1c0.112857,0.5 0,1.1 0.112857,1.6c0.225714,0.8 0.056429,0.5 0.451429,0.9c0.395,0.4 0.902857,0.2 1.241429,0.8c0.395,0.7 0.169286,1 0.338571,2.1c0.056429,0.5 0.338571,0.8 0.564286,1.2c0.395,0.5 0.564286,1.1 1.072143,0.7c0.225714,-0.2 0,-0.9 0.056429,-1.4c0.112857,-1.1 0.169286,-1.3 0.677143,-2c0.169286,-0.2 0.451429,-0.5 0.733571,-0.5c0.564286,0 0.677143,2 0.79,2.2c0.056429,0.2 0.169286,0.3 0.282143,0.5c0.338571,0.3 1.58,0.7 1.692857,-0.1c0.056429,-0.2 0,-0.7 0.112857,-0.7c0.395,0 1.354286,1.1 1.636429,1.5c0.056429,0.1 0,0.5 0.112857,0.6c0.451429,0.6 0.564286,0.4 1.128571,0.3c0.282143,0 0.620714,0 0.733571,-0.3c0.112857,-0.5 -0.338571,-1.3 -0.112857,-1.6c0.282143,-0.5 0.846429,0.3 1.185,-0.1c0.338571,-0.4 0.338571,-1.4 0.564286,-2c0.169286,-0.4 0.112857,-0.2 0.395,-0.2c0.395,0 0.846429,-0.4 1.128571,0c0.338571,0.5 0.112857,0.7 0.169286,1.5c0.056429,0.7 0.112857,1.4 0.395,1.9c0.225714,0.4 0.338571,0.4 0.564286,0.1c0.169286,-0.2 0.169286,-0.7 0.169286,-1.2c0.056429,-0.3 0,-0.7 0,-1c0.225714,-2.3 0.169286,-4.8 0.733571,-7c0.169286,-0.6 0.507857,-0.1 0.733571,0.3c0.338571,0.8 0.564286,1.7 0.733571,2.7c0.112857,0.8 0,1.6 0,2.4c0,0.9 0.056429,1.7 0.112857,2.7c0,0.2 0.112857,0.8 0.282143,0.8c0.564286,0.1 1.128571,-0.1 1.692857,-0.2c0.338571,-0.1 0.338571,-0.3 0.564286,-0.1c0.225714,0.2 0.338571,0.7 0.507857,1c0.225714,0.3 0.169286,0.4 0.451429,0.3c0.451429,-0.1 0.902857,-0.2 1.354286,-0.3c0.282143,-0.1 1.467143,-0.5 1.692857,-0.5c0.733571,-0.1 1.467143,-0.4 2.144286,-0.3c0.395,0 0.620714,0.9 1.297857,0.8c0.79,0 1.636429,-0.2 2.426428,0c0.169286,0 28.327142,5.7 34.082856,8.9c0.395,0.2 6.32,2.3 6.32,2.3c1.354286,0.2 2.708571,0.7 4.062857,0.7c0.733571,0 2.482857,-2.7 4.062857,0.5c1.523571,3 4.514286,0.8 6.771428,1.2c4.74,0.8 6.32,2.4 12.132142,2.5c0.282143,0 0.677143,0.7 0.79,0.2c1.354286,-5.2 1.918571,0.7 1.975,0.7c0.564286,0 1.128571,-0.2 1.692857,0c2.37,1 12.414285,3.4 15.122857,3c0.677143,-0.1 1.523571,-0.3 1.862143,-1.4c0.395,-1.5 -0.112857,-0.7 0,-0.9c0.112857,-0.2 0.677143,-0.8 1.128571,-0.2c0.282143,0.3 -0.169286,1.1 0.112857,1.2c0.79,0.2 1.636429,-0.1 2.482857,-0.5c0.846429,-0.3 1.636429,0.6 1.918571,-0.5c0.507857,-1.9 1.805714,-2.1 2.482857,-0.4c0.451429,1.1 1.354286,1.1 2.087857,1.4c0.395,0.2 1.354286,-0.3 1.862143,-0.5c1.749286,-0.5 3.555,0.7 5.360714,0.7c8.295,0.2 23.530714,0 30.75357,6.4c0.112857,0.1 3.385714,1.6 3.498571,1.6c1.523571,0.1 3.047143,0.5 4.570714,0.5c6.827857,0.1 13.147857,-2.5 22.232856,-2.5c2.877857,0 4.345,1.5 7.787143,1.9c2.087857,0.2 4.232143,0.7 6.263571,1.6c5.925,2.4 23.474285,-1.4 30.979285,-1.4l2.482857,0c0.733571,0 2.031429,0 2.595714,-1.3l0,-5.4l3.724286,-0.9l16.025714,0.2l0,6.3l9.592857,0l0,4.1c1.692857,0 2.934286,-0.2 4.401428,0c0.507857,0.1 17.605714,4.3 18.282857,4.4c0.846429,0.1 1.749286,1.1 2.595714,0.7c6.432857,-3 37.46857,-1.5 44.239999,-1.6c1.185,0 2.37,-0.4 3.555,-0.5c8.407857,-0.1 2.144286,-2.1 11.511428,0.5c13.147857,3.5 23.699999,5.4 36.339999,7.8c0.846429,0.2 1.749286,0.1 2.595714,0.3c1.015714,0.2 2.031429,1.5 2.990714,0.9c11.511428,-6.6 17.605714,-7.3 29.060713,-4.7c0.112857,0 0.225714,0.1 0.338571,0.1c4.683571,1 19.862856,5.2 26.352142,5.1c3.385714,-0.1 7.505,0 11.116428,0.2c1.410714,0.1 2.821428,-0.1 4.175714,0.7c0.338571,0.2 1.185,2.3 1.58,2.5c16.138571,9 88.197854,-3 107.891425,-5.8c10.382857,-1.4 8.407857,6.8 16.420714,7.5c1.128571,0.1 2.031429,1.7 3.16,2.3c1.015714,0.5 2.144286,0.6 3.216428,0.8c0.959286,-0.1 1.805714,1.5 2.539286,1.5l0,0z" fill="url(#SVGID_4_)" clip-rule="evenodd" fill-rule="evenodd"/>
  </g>
  <g id="svg_11">
   <path id="svg_12" d="m1400,521.7l0,439.3l-1400,0l0,-684.1c1,0 3.6,0.6 4.6,1.2c6.8,3.6 2,12.4 11.3,7.7c0.1,-0.1 1.7,-0.3 1.7,0.5c0.6,5.9 5.6,14 11.2,14.3c0.2,0 0.2,1.6 0.2,2.4c0,0.5 -0.2,1.1 0,1.6c1.7,5.1 3.4,-0.1 10.7,5.2c0.1,0.1 5.2,1.9 5.3,2c0.8,1.4 4.5,0.8 6,0.9c1.2,0.1 2.4,0.6 3.7,0.7c0.6,0.1 1.1,0 1.6,0c0.2,0 0.6,0.2 0.8,0c0.8,-0.9 0.7,-0.6 0.7,-1.6c0,-0.6 0,-1.2 0,-1.9c0,-0.6 -0.1,-1.2 -0.1,-1.9c0.1,-0.7 -0.1,-1.5 0.2,-2.1c1.3,-2.3 2.5,-0.6 4.1,-2.1c0.9,-0.8 1.2,-2 2.1,-2.8c1.6,-1.4 0.2,-0.9 2.5,-0.9c0.2,0 0.3,0 0.5,0c1.5,0.6 0.8,0.2 0.7,0.5c-0.1,1 -0.2,0.6 0.4,1.2c0.7,0.7 2,0 3,0c0.6,0 1.9,0.1 2.3,0.5c0.3,0.2 0.6,0.6 0.9,0.9c0.2,0.2 2.6,2.9 2.8,3c0.2,0.2 0.8,-0.1 0.9,0.2c0.7,2.1 0.2,0.9 0.5,3.5c0.1,0.8 0.7,1.4 0.9,2.1c0.2,0.7 0.2,0.9 0.7,1.4c0.6,0.6 1,1.6 1.9,1.6c8.4,0.5 5.9,-2.6 10.4,-2.6c0.6,0 1.2,-0.4 1.6,0c1.2,1.2 0.7,2 1.6,3.2c0.5,0.8 1.5,1.2 2.3,1.6c0.9,0.4 3.1,0.1 3.9,0.7c1.1,0.7 1.1,2.4 2.1,3.2c0.5,0.5 0.5,0.3 1.2,0.5c0.8,0.2 2.6,-0.1 3.5,0c1.7,0.2 3.5,0.2 5.1,0.9c4.9,2.1 3,2.2 9.7,2.8c2.6,0.2 5.2,0.5 7.9,0.5c28.7,0.1 9.3,2.2 25.7,4.4c12.3,1.6 25.2,2.6 37.5,5.1c8.7,1.7 17.8,1.3 26.6,2.1c1.4,0.1 2.7,0.5 4,0.8c31.8,6.1 19.6,-12.6 52.7,6.4c0.5,0.3 66.9,12.4 80.7,16.2c25.5,7.1 66.7,15.1 88.7,23.3c33,12.3 59.1,18.2 91.9,29.2c13.6,4.5 27,9.6 40.3,14.8c7,2.7 11.3,-0.2 31.8,8.3c1.8,0.7 3.8,0 5.7,0.5c5.9,1.7 11.2,5.1 17.1,6.5c30.4,7.1 60.5,17.1 91.7,19c76.3,4.5 48.5,-4.5 119.4,4.4c0.8,0.1 1.7,0.2 2.5,0.3c103.8,12.9 216.7,33.3 309.9,40.2c2.9,0.2 5.7,0.4 8.6,0.6c55.4,4.1 126.3,7.5 177.1,9.1c6.8,0.2 12.8,4.4 19.5,5.6c4,0.7 8.2,0.1 12.2,0c8.5,-0.2 15,1.5 25,-0.9l0,0z" fill="url(#SVGID_5_)" clip-rule="evenodd" fill-rule="evenodd"/>
  </g>
  <g stroke="null" id="svg_13">
   <path stroke="null" id="svg_14" d="m306.118868,479.1c10.461715,-15.8 234.478865,44 266.546295,42.1c10.802858,-0.7 41.505716,-5.7 57.766859,7.2c8.471715,6.7 91.99486,24.2 102.570289,25.3c9.722572,1 19.217715,5.5 28.940287,6.5c10.916572,1.1 18.137429,-6.1 22.231144,-9.3c3.866286,-3 7.846286,-2.3 11.826286,-4.6l0,412.7l-796.000028,0l0,-595.7c16.374858,0 63.395716,18.6 81.135146,26.3c14.100572,6.1 31.555715,13.7 45.428859,19.5c0.852857,0.3 42.131144,7.6 53.047716,22.7c23.823144,32.9 77.325717,31.4 107.971718,41.7c0.739143,0.2 7.96,2.5 8.528572,2.8c3.297714,1.6 7.505143,6.7 10.006857,2.8l0,0z" fill="url(#SVGID_6_)" clip-rule="evenodd" fill-rule="evenodd"/>
  </g>
  <g stroke="null" id="svg_15">
   <path stroke="null" id="svg_16" d="m0,473.1c10.109444,-4.7 101.360478,-12.5 119.451062,1c9.258122,6.9 136.849948,6.2 150.524301,7.6c59.539305,6.3 119.238232,3.2 178.830744,3.7c84.387254,0.7 93.166508,-4.5 176.117156,20.7c32.13739,9.8 82.578195,26.3 117.05672,31.2c1.276982,0.2 2.181512,-0.1 2.44755,-0.1l0.372453,425.6l-744.799986,0l0,-489.7z" fill="url(#SVGID_7_)" clip-rule="evenodd" fill-rule="evenodd"/>
  </g>
  <g id="svg_17">
   <path id="svg_18" d="m1348.3,362.3c0.4,3.1 0,3.4 -3,3.4l-1.9,-0.5c-1.8,-2 -0.5,-0.6 -0.8,-0.9c0,0 -12.7,0.5 -13.1,-1.9l0.9,-2.1c0.2,-3.3 -10.4,-10.1 -8.7,-0.2c0.1,0.4 -2.8,3.7 -5.6,3.7l-3.7,-2.1c-1.8,-1.4 -3.8,-3.7 -6.4,-3c-3.1,12 -5,2.2 -6.2,7c-0.1,0 -10.4,0.7 -10.5,0.4l-2.5,-1.4l-2.3,4.9l-4.2,0.2l-2.1,3.3l-4.4,1.2l-2.3,-3.5l-3.7,-0.7l-0.2,7.4l-4.4,0.2l-2.8,-2.3l-4.6,-0.5l-3.2,-2.8l-2.1,1.4l-1.6,1.6l-6,-1.2l-1.6,-2.8l-6.9,-0.7l-1.9,-1.9l-2.6,2.8l-4.4,-1.6l-4.7,-1.9l-5.3,0.9l-2.3,4.9l-8.6,-0.7l-1.4,-3.9l-6.3,0.9l-2.1,4.6c-2.8,0 -16.3,1 -16,-4.2l-2.1,-3.2l-4.9,-0.5l-4.2,-2.1l-3.5,2.3l0.5,4.6l-2.1,1.9l-4.3,2.6l-0.4,-0.7l0,-6l-20,-5.3l-10.3,2.6l-15.8,4.1l0,5.1l-5.5,0.2c-1.8,-0.6 -5.1,-0.8 -6.9,-0.2c-0.2,1.2 -1.2,6.3 -3.4,5.5c-0.2,-0.9 -1.2,-3.9 -1.1,-4.6l-2.1,-2.3c-2.3,0 -0.7,0 -1,0.2c0.5,2.4 -0.3,2.9 -0.8,4.4c-0.3,0 -1,0.1 -1.3,0c-0.5,-1.3 0.9,-1.8 -1.9,-1.8l-0.2,0.5c0,3 -0.1,1.9 -0.6,4.2c-0.9,0.3 -9.3,-6.3 -12.6,-6.3l-5.6,3.2c-3.6,-0.8 -14,10 -18.3,10l-20.6,11.8c-3.4,0 -21.8,1.4 -22.9,4c-12.5,0 -0.1,7 -17.8,8.3c-0.4,0 -4.1,3.6 -5.6,4.7c-0.5,-0.1 -5,0.9 -5.1,1.4l-11.8,0.2c-12.3,0 -10.1,-1.8 -22,-0.7c-11,1 -0.9,-7.3 -17,3.4c-9.9,6.7 -0.4,7.2 -11.1,7.2l-3,-0.5c0,-1.2 0.2,-3.4 -0.3,-4.4c-5.2,-0.8 1.9,4.9 -5.7,4.9l-2.8,-2.8c-4.9,0 4.2,1 -4.4,4.7c-1.2,0.5 -1.5,2.9 -3,3l-3.7,-3.7c-3.4,-2.1 -1,-10.9 -4.8,1.6c-0.5,1.5 -2.8,4.5 -4.7,3l-1.9,-2.8c-1,0 -11.9,6 -15,7c-1.9,0.6 -3,2.9 -4,3.4c-0.1,0.3 -0.1,0.3 -0.4,0.6l-6.3,1.4c-2.2,-1.7 -3.5,3.4 -9.9,4.5l-5,3.1l558,0l0,-96.5l-4.2,0.6l-5.5,-0.9l-1.4,4.5l-3.5,1.6l-1.8,2.5l-5.3,-2.3l-1.6,-2.3l-5.1,0.7l-2.4,4.7l-4.1,-2.9l-4.4,-0.2l-2.6,4.9c-1.9,0.1 -4.4,-1.7 -4.4,-3.9l-5,-0.2z" fill="url(#SVGID_8_)" clip-rule="evenodd" fill-rule="evenodd"/>
   <path id="svg_19" d="m1400,383.2c-15,-0.3 -30.9,-0.9 -46.5,-0.9c-85,-0.2 -106.1,-6.9 -188.7,12c-1,0.2 -2,0.1 -3,0.1c-31.6,0.8 -231.1,39.8 -231.3,39.8c-133,25.6 -265.1,57 -399,76.8c-54.7,8.1 -107.4,20.4 -200.1,20.4c-57.6,0 -65.7,0.2 -118.4,13.9c-16.1,4.2 -31.7,10.6 -48.1,12.9c-13.6,2 -89.5,20.6 -141,20.4c-7.9,0 -14.9,-0.6 -23.9,-0.9l0,402.3l1400,0l0,-596.8z" fill="url(#SVGID_9_)" clip-rule="evenodd" fill-rule="evenodd"/>
  </g>
  <g stroke="null" id="svg_20">
   <path stroke="null" id="svg_21" d="m-63.900001,541.6c39.007636,-11.1 125.359952,-35.9 208.304425,-39.5c4.868348,-0.2 19.655954,-8.7 24.341738,-12.1c4.442367,-3.3 8.763026,-7.7 13.570519,-9.3c0.791106,-0.2 25.07199,-15.9 27.992999,-20.8c4.381513,-7.4 22.27269,-14.8 34.808686,-21.2c32.922201,-16.8 51.361068,-28.6 60.550074,-30.6c7.241667,-1.6 13.387956,-0.9 21.481584,-5.2c10.284384,-5.6 23.124651,-5.9 33.591599,-3.1c4.503222,1.2 10.466947,-24.4 32.374512,-30.8c70.956167,-20.8 41.928644,-1.6 116.110091,30.9c26.167369,11.5 37.851403,-8.9 59.94153,18.1c4.138095,5 110.328929,76.5 115.075567,76.6c6.207143,0.2 10.588656,2.3 16.734945,2.6c1.643067,0.1 16.430673,3.2 16.734945,3.2c7.789356,-0.9 48.379205,8.3 58.420172,9.1l11.866597,0.9l0,452.6l-851.899983,0l0,-421.4z" fill="url(#SVGID_10_)" clip-rule="evenodd" fill-rule="evenodd"/>
   <path stroke="null" id="svg_22" d="m383.136022,315.1c-1.703922,0 -0.42598,2.3 -2.251611,4.3c-1.156233,1.3 0.608543,1.9 -2.069048,3.5c-0.730252,0.5 0.42598,1 -0.791106,4.1c-0.608543,1.5 0.851961,0.1 -1.277941,4.4c-0.791106,1.6 0.365126,1.5 -0.851961,4.9c0,0.1 0,0.1 -0.060854,0.2c-0.182563,0.5 -0.060854,1 -0.060854,1.6c-0.182563,0.4 -0.42598,0.8 -0.669398,1.2c0,3.6 0.791106,-0.7 0.060854,4.2c0,0.1 0,0.1 -0.060854,0.2c-0.97367,6.6 0.97367,-1.8 -0.547689,4.6c-0.547689,2.4 0.912815,0.5 -0.121709,4.6c-0.486835,5.7 0.304272,2.4 0.304272,4.9c-0.121709,0.3 -0.304272,0.6 -0.42598,0.8c-3.103572,3.6 -0.365126,4.1 -1.703922,7.6c-0.791106,2.1 0.669398,1.1 -1.217087,3.4c-1.460504,4.5 7.119958,5.9 7.241667,9.1c0.060854,1.5 -0.060854,2.5 0.243417,3.5c-0.060854,1.5 -0.121709,3.1 -0.121709,4.6c-0.121709,0.2 -0.42598,1.3 -0.42598,1.5c-0.121709,0.1 -0.730252,0.5 -0.851961,0.6c-0.121709,0.1 -0.243417,0.2 -0.365126,0.3c-0.182563,0 -0.121709,0 -0.304272,0.1c-0.365126,0.1 -0.669398,0.1 -1.034524,0.2c0.791106,0.1 1.582213,0.2 2.373319,0.4c1.582213,0 3.286135,0.3 5.111765,0.1c-2.555883,-1.3 -2.981863,-11.6 -2.251611,-13.7c0.730252,-0.2 1.460504,-0.5 2.190756,-0.7c0.547689,0 1.156233,-1.4 2.860154,-2.1c1.095378,-0.5 2.129902,-5.1 1.460504,-8.2c-0.121709,-0.4 0,-0.7 -0.060854,-1.1c0,-3.4 2.555883,0.8 0.304272,-6.6c0,0 -0.486835,-4.4 -0.791106,-5.7c0,-0.1 0,-0.3 0,-0.5c0.182563,-0.8 0.365126,-1.6 0.547689,-2.5c1.521359,-2.3 -0.304272,-1.8 -0.243417,-6.9c0,-0.9 -0.547689,0.1 -0.42598,-4.5c0.060854,-1.7 -1.095378,-6.5 -1.521359,-8.3c-0.121709,-1 -0.182563,-2 -0.304272,-2.9c0,-5.5 0.121709,-2.4 -0.912815,-5.8c-0.912815,-2.9 -0.060854,-0.4 -0.97367,-2.6c-0.060854,-0.2 0,-1.9 0,-2.3c0.060854,0 0,-0.3 0,-0.5l0,0z" fill="url(#SVGID_11_)" clip-rule="evenodd" fill-rule="evenodd"/>
   <path stroke="null" id="svg_23" d="m354.838751,357.5c-0.486835,-0.2 -4.19895,-2.4 -6.389706,-0.7c-1.156233,9.2 0.121709,4.6 0,8.2c-0.060854,1.3 -1.338796,-1.1 -1.460504,4.3c0,0.4 -0.365126,0.9 -0.547689,0.9c0.486835,1 0.912815,2.1 1.39965,3.1c1.034524,0.9 2.555883,2.8 2.069048,4.6c-1.034524,0 -6.328852,-9.2 -5.355182,-1.1c0,0.2 0.365126,0.4 0.608543,0.9c-0.060854,0.3 0,1.2 0,1.5c0.791106,0.9 5.294328,2.4 5.355182,2.6c-0.060854,0.5 0.121709,0.3 0.060854,0.8c1.277941,1.8 2.555883,3.6 3.833824,5.4c1.764776,1.2 2.616737,4.7 -1.947339,-0.9c-1.338796,-0.5 -1.277941,1 -3.346989,-1.3c-0.547689,0 -1.156233,0 -1.703922,-0.1c-0.060854,0 -1.643067,-0.4 -2.373319,-0.4c0,5.8 -0.547689,3.8 5.842017,4.3c0.730252,0 4.685785,2.1 5.5986,2.8c0.060854,0 0.121709,0.1 0.182563,0.1c0,1 -13.570519,1.2 -9.432424,4.3c1.156233,0.9 7.241667,-1.2 9.189006,-1.2c0.121709,0.2 0.304272,0.3 0.486835,0.5c0,2.6 -6.633124,5.4 -5.902872,8.3c2.251611,0.9 6.937395,-5.5 6.937395,1.2c-0.486835,0.6 -0.912815,1.2 -1.39965,1.8c0,0.3 -0.182563,0.6 -0.243417,1c0.608543,1 1.521359,-2.3 1.521359,2.4c0,2.4 0,4.8 0,7.1c0,0 0.486835,5.5 0.486835,6.2c0,0.2 -0.121709,6.7 -0.851961,6.9c-0.304272,0.3 -0.547689,0.7 -0.791106,1.1c-0.365126,0.5 -0.304272,0.8 -0.608543,0.8c0.97367,0.1 1.947339,0.2 2.921009,0.3c0.608543,0.3 1.643067,0.6 2.190756,0.6c0.365126,0 0.730252,0 1.156233,0c-1.582213,-4 -1.764776,-15.5 -2.008193,-21.1c-0.121709,-2.5 0.121709,-7.6 0.121709,-10.7c0.304272,0.1 0.547689,0.2 0.851961,0.3c1.643067,3.1 0.912815,5.2 3.103572,5.2c0,-2.8 0.243417,-2.3 -1.764776,-3.9c-0.060854,-1 -0.97367,-4.4 -0.97367,-4.4c-0.060854,-0.6 -0.182563,-1.2 -0.304272,-1.7c0,0 4.077241,2 4.077241,2.1c0.182563,0.1 2.616737,3.4 3.894678,2.7c0.182563,-1.6 -5.5986,-6.9 -6.937395,-7.1c0.547689,-0.3 1.156233,-0.6 1.703922,-0.9c1.82563,0 9.310715,2.6 9.249861,-1.4c-1.460504,0 -8.519608,-0.3 -9.554132,-0.9c-0.365126,-1.6 1.034524,-1.4 1.764776,-2.2c0.182563,0.1 1.703922,-2 1.764776,-2.1c1.703922,0 1.095378,0.9 1.82563,1.2c0.121709,0.6 3.407843,0.7 4.259804,0.3c-0.365126,-7 -2.921009,1.7 0.97367,-5.7c0,0 1.156233,-7.6 -3.286135,-3.9c-3.346989,2.8 -5.476891,8.5 -7.606793,8.5c-0.730252,-1.4 1.338796,-4.7 2.069048,-5.5c0.365126,-0.4 0.730252,-0.8 1.034524,-1.3c1.460504,-1.7 -4.016387,-3.8 0,-3.8c4.016387,0 -1.095378,2.6 4.807493,-1c1.643067,-1 2.677591,-0.7 2.495028,-5.5c-5.355182,-3.1 0.547689,-10.4 -4.442367,-4.3c-0.121709,0.2 -0.060854,0.2 -0.304272,0.2c-0.182563,-0.6 -0.365126,-1.2 -0.547689,-1.7c0.730252,-1.5 4.381513,-9.6 -0.121709,-7.8c-1.886485,0.8 -2.677591,4.5 -2.677591,-2.5c-0.42598,0 -0.851961,0 -1.277941,0c-0.121709,0 -0.243417,0 -0.365126,0c-0.669398,0 -0.486835,1 -0.486835,2.1c-0.97367,0 -0.851961,-0.7 -1.095378,-2.1c-1.095378,-0.2 -0.912815,1.8 -0.912815,2.8c-3.651261,0 0.42598,-4.8 -3.468698,-4.3c-0.060854,0 -0.121709,0.1 -0.182563,0.1c0.060854,3.8 -0.912815,9.3 -3.468698,9.3c-0.060854,-1.7 0.365126,-5.3 0.304272,-5.3l0,0z" fill="url(#SVGID_12_)" clip-rule="evenodd" fill-rule="evenodd"/>
   <path stroke="null" id="svg_24" d="m424.151851,317.1c-1.034524,0 -0.243417,2.3 -1.338796,4.3c-0.730252,1.3 0.365126,1.9 -1.217087,3.5c-0.42598,0.5 0.243417,1.1 -0.486835,4.1c-0.365126,1.5 0.486835,0.1 -0.730252,4.4c-0.486835,1.6 0.182563,1.5 -0.486835,4.9c0,0 0,0.1 0,0.2c-0.121709,0.4 -0.060854,1 -0.060854,1.5c-0.121709,0.4 -0.243417,0.8 -0.365126,1.2c0,3.6 0.42598,-0.7 0,4.2c0,0.1 0,0.1 0,0.2c-0.547689,6.6 0.547689,-1.8 -0.304272,4.6c-0.365126,2.3 0.486835,0.4 -0.060854,4.6c-0.243417,5.7 0.182563,2.4 0.182563,4.9c-0.060854,0.3 -0.121709,0.6 -0.243417,0.9c-1.82563,3.6 -0.243417,4.1 -0.97367,7.6c-0.42598,2.1 0.42598,1.2 -0.730252,3.4c-0.851961,4.5 4.138095,5.9 4.19895,9.1c0.060854,1.5 0,2.5 0.121709,3.5c-0.060854,1.5 -0.060854,3.1 -0.060854,4.7c-0.060854,0.2 -0.243417,1.2 -0.243417,1.5c-0.060854,0.1 -0.42598,0.5 -0.486835,0.6c-0.060854,0.1 -0.121709,0.2 -0.182563,0.3c-0.121709,0 -0.060854,0 -0.182563,0.2c-0.182563,0 -0.42598,0.1 -0.608543,0.1c0.42598,0.1 0.912815,0.2 1.338796,0.4c0.912815,0 1.886485,0.3 3.042717,0.1c-1.460504,-1.2 -1.764776,-11.6 -1.338796,-13.7c0.42598,-0.2 0.851961,-0.5 1.277941,-0.7c0.304272,0.1 0.669398,-1.3 1.703922,-2.1c0.669398,-0.5 1.277941,-5.1 0.851961,-8.2c-0.060854,-0.4 0,-0.7 -0.060854,-1.1c0,-3.4 1.460504,0.8 0.182563,-6.6c0,0 -0.304272,-4.4 -0.486835,-5.7c0,-0.1 0,-0.3 0,-0.5c0.121709,-0.8 0.182563,-1.6 0.304272,-2.4c0.912815,-2.3 -0.182563,-1.8 -0.121709,-6.9c0,-0.9 -0.304272,0.1 -0.243417,-4.5c0,-1.7 -0.608543,-6.4 -0.851961,-8.3c-0.060854,-1 -0.121709,-2 -0.182563,-2.9c0,-5.5 0.060854,-2.4 -0.547689,-5.8c-0.486835,-2.9 -0.060854,-0.4 -0.547689,-2.6c-0.060854,-0.2 0,-1.9 0,-2.3c0,-0.3 -0.060854,-0.5 -0.060854,-0.7l0,0z" fill="url(#SVGID_13_)" clip-rule="evenodd" fill-rule="evenodd"/>
   <polygon stroke="null" id="svg_25" points="438.87860107421875,342.3999938964844 438.63519287109375,338.1000061035156 440.339111328125,335.6000061035156 442.40814208984375,337.79998779296875 442.4690246582031,340.70001220703125 447.3373718261719,338.1000061035156 477.642822265625,350.20001220703125 478.0079345703125,345.5 482.2677307128906,346 482.2677307128906,352 484.9453430175781,353.3999938964844 484.9453430175781,346.6000061035156 487.6229553222656,345.79998779296875 487.74462890625,354.29998779296875 504.4187316894531,362.5 504.4187316894531,407.79998779296875 451.4754638671875,405.3999938964844 379.05877685546875,403.70001220703125 379.05877685546875,374.5 390.62109375,370 390.62109375,362.3999938964844 " fill="url(#SVGID_14_)" clip-rule="evenodd" fill-rule="evenodd"/>
   <path stroke="null" id="svg_26" d="m315.709407,329c1.460504,0 0.365126,2.4 1.886485,4.5c0.97367,1.3 -0.486835,2 1.764776,3.6c0.608543,0.5 -0.365126,1.1 0.669398,4.3c0.486835,1.5 -0.730252,0.1 1.034524,4.6c0.669398,1.6 -0.304272,1.6 0.669398,5.1c0,0.1 0.060854,0.1 0.060854,0.2c0.121709,0.5 0.060854,1.1 0.060854,1.6c0.182563,0.4 0.365126,0.9 0.547689,1.3c0,3.8 -0.608543,-0.7 0,4.4c0,0.1 0,0.1 0,0.2c0.851961,7 -0.791106,-1.9 0.486835,4.8c0.486835,2.5 -0.791106,0.5 0.060854,4.8c0.365126,6 -0.304272,2.5 -0.304272,5.1c0.121709,0.3 0.243417,0.6 0.365126,0.9c2.616737,3.8 0.304272,4.3 1.39965,7.9c0.669398,2.3 -0.547689,1.2 1.034524,3.6c1.277941,4.8 -5.963726,6.2 -6.085435,9.5c-0.060854,1.5 0.060854,2.6 -0.182563,3.7c0.060854,1.6 0.060854,3.2 0.121709,4.9c0.121709,0.2 0.365126,1.3 0.365126,1.6c0.121709,0.1 0.608543,0.5 0.730252,0.6c0.060854,0.1 0.182563,0.2 0.304272,0.3c0.182563,0 0.121709,0 0.304272,0.1c0.304272,0.1 0.547689,0.1 0.851961,0.2c-0.608543,0.1 -1.277941,0.3 -1.947339,0.4c-1.338796,0 -2.7993,0.3 -4.320659,0.2c2.129902,-1.3 2.495028,-12.2 1.886485,-14.4c-0.608543,-0.2 -1.217087,-0.5 -1.82563,-0.7c-0.486835,0 -0.97367,-1.4 -2.434174,-2.2c-0.912815,-0.5 -1.82563,-5.4 -1.277941,-8.6c0.060854,-0.4 0,-0.7 0.060854,-1.1c0,-3.5 -2.129902,0.8 -0.243417,-6.9c0,0 0.42598,-4.7 0.669398,-5.9c0,-0.1 0,-0.3 0,-0.5c-0.121709,-0.8 -0.304272,-1.7 -0.42598,-2.6c-1.277941,-2.4 0.243417,-1.9 0.182563,-7.2c0,-0.9 0.42598,0.1 0.365126,-4.8c-0.060854,-1.8 0.912815,-6.8 1.277941,-8.7c0.121709,-1 0.182563,-2 0.304272,-3.1c0,-5.7 -0.121709,-2.5 0.730252,-6.1c0.791106,-3.1 0.060854,-0.4 0.791106,-2.7c0.060854,-0.2 0,-2 0,-2.4c0,0 0,-0.3 0.060854,-0.5l0,0z" fill="url(#SVGID_15_)" clip-rule="evenodd" fill-rule="evenodd"/>
   <rect stroke="null" id="svg_27" height="10" width="3.042717" fill="url(#SVGID_16_)" clip-rule="evenodd" fill-rule="evenodd" y="369" x="404.009062"/>
   <path stroke="null" id="svg_28" d="m309.684827,359.9c-1.39965,0 -0.365126,2.3 -1.82563,4.3c-0.912815,1.3 0.486835,1.9 -1.643067,3.5c-0.608543,0.4 0.365126,1 -0.669398,4.1c-0.486835,1.5 0.730252,0.1 -0.97367,4.4c-0.608543,1.6 0.304272,1.5 -0.669398,4.9c0,0.1 -0.060854,0.1 -0.060854,0.2c-0.121709,0.5 -0.060854,1 -0.060854,1.5c-0.182563,0.4 -0.365126,0.8 -0.547689,1.3c0,3.6 0.608543,-0.7 0,4.2c0,0.1 0,0.1 0,0.2c-0.791106,6.6 0.791106,-1.8 -0.486835,4.6c-0.42598,2.4 0.730252,0.5 -0.060854,4.6c-0.365126,5.7 0.243417,2.4 0.243417,4.9c-0.121709,0.3 -0.243417,0.6 -0.365126,0.8c-2.495028,3.6 -0.304272,4.1 -1.338796,7.6c-0.608543,2.2 0.547689,1.2 -0.97367,3.4c-1.217087,4.5 5.720308,5.9 5.842017,9.1c0.060854,1.5 -0.060854,2.5 0.182563,3.5c-0.060854,1.5 -0.060854,3.1 -0.121709,4.6c-0.060854,0.2 -0.365126,1.3 -0.365126,1.5c-0.121709,0.1 -0.547689,0.5 -0.669398,0.6c-0.060854,0.1 -0.182563,0.2 -0.304272,0.3c-0.182563,0 -0.121709,0 -0.243417,0.1c-0.304272,0.1 -0.547689,0.1 -0.851961,0.1c0.608543,0.1 1.277941,0.3 1.886485,0.4c1.277941,0 2.616737,0.3 4.138095,0.2c-2.069048,-1.3 -2.434174,-11.6 -1.82563,-13.8c0.608543,-0.2 1.156233,-0.5 1.764776,-0.7c0.42598,0 0.912815,-1.4 2.312465,-2.1c0.851961,-0.5 1.703922,-5.1 1.217087,-8.2c-0.060854,-0.4 0,-0.7 -0.060854,-1c0,-3.4 2.069048,0.8 0.243417,-6.6c0,0 -0.42598,-4.4 -0.608543,-5.7c0,-0.1 0,-0.3 0,-0.5c0.121709,-0.8 0.304272,-1.6 0.42598,-2.5c1.217087,-2.3 -0.243417,-1.8 -0.182563,-6.9c0,-0.9 -0.42598,0.1 -0.304272,-4.5c0,-1.7 -0.912815,-6.5 -1.217087,-8.3c-0.060854,-1 -0.182563,-2 -0.304272,-2.9c0,-5.5 0.121709,-2.4 -0.730252,-5.8c-0.730252,-3 -0.060854,-0.4 -0.791106,-2.6c-0.060854,-0.2 0,-1.9 0,-2.3c0,-0.1 0,-0.3 0,-0.5l0,0z" fill="url(#SVGID_17_)" clip-rule="evenodd" fill-rule="evenodd"/>
   <rect stroke="null" id="svg_29" height="10" width="3.651261" fill="url(#SVGID_18_)" clip-rule="evenodd" fill-rule="evenodd" y="369" x="432.002061"/>
   <rect stroke="null" id="svg_30" height="10" width="3.651261" fill="url(#SVGID_19_)" clip-rule="evenodd" fill-rule="evenodd" y="369" x="419.222649"/>
   <rect stroke="null" id="svg_31" height="9" width="3.042717" fill="url(#SVGID_20_)" clip-rule="evenodd" fill-rule="evenodd" y="387" x="404.009062"/>
   <rect stroke="null" id="svg_32" height="9" width="3.651261" fill="url(#SVGID_21_)" clip-rule="evenodd" fill-rule="evenodd" y="387" x="432.002061"/>
   <polygon stroke="null" id="svg_33" points="389.2823181152344,362 450.25836181640625,362 446.85052490234375,341.6000061035156 447.2764892578125,339 451.4754638671875,362.79998779296875 451.4754638671875,405.3999938964844 504.4187316894531,407.79998779296875 504.4187316894531,362.5 487.8055114746094,354.29998779296875 487.56207275390625,345.79998779296875 484.9453430175781,346.6000061035156 484.9453430175781,353.3999938964844 482.2677307128906,352 482.2069091796875,346 478.0079345703125,345.5 477.642822265625,350.20001220703125 447.2764892578125,338.1000061035156 442.40814208984375,340.70001220703125 442.3472900390625,337.79998779296875 440.15655517578125,335.6000061035156 438.2700500488281,338.1000061035156 438.2091979980469,342.20001220703125 " fill="url(#SVGID_22_)" clip-rule="evenodd" fill-rule="evenodd"/>
   <path stroke="null" id="svg_34" d="m396.463124,337c-0.365126,-0.1 -0.121709,-0.1 -0.182563,0c-1.156233,2.8 -1.156233,8.6 -2.008193,8.5c0.060854,-3.7 -1.034524,-0.1 -1.156233,0.1c-1.034524,2.2 -2.129902,6.8 -0.182563,8.6c0.182563,0.2 0.182563,3.3 0.121709,3.3c-0.060854,0.6 -2.921009,-1.9 -1.034524,0.9c1.643067,2.5 -3.468698,3.1 -0.912815,7.2c0.608543,1 -0.243417,4.4 -1.156233,5.4c-0.730252,0.7 0.365126,1.9 0.182563,4.7c-0.060854,0.8 -0.060854,1.5 -0.060854,2.3l0.060854,3.8c0.730252,0.3 -0.547689,6.5 -0.791106,7.9l0.121709,8.5c-0.060854,3.5 -0.791106,6.9 -2.008193,9.6c-1.217087,2.7 1.703922,1.6 -0.121709,6.8l-0.060854,0.2c-0.912815,2.7 0.912815,3.7 2.008193,5.3l4.320659,2.2c1.643067,-0.1 1.338796,7.8 0.97367,9.4l-0.486835,4.8c-0.486835,1.4 -1.39965,2.3 -2.434174,2.2l1.156233,0.5c0.42598,0 5.720308,0.3 5.720308,0.3c-2.251611,-4.4 -2.008193,1.2 -1.764776,-8.7c0.060854,-1.7 0.182563,-6.3 0.486835,-7.8l1.582213,-0.8c0.730252,-0.2 3.712115,-4.7 3.346989,-7.1c-0.730252,-5.3 3.286135,1.4 -0.182563,-8.8c-0.547689,-1.6 0.97367,-2.4 0.060854,-8.7c-0.182563,-1.3 -0.121709,-2.6 -0.243417,-3.8l-0.365126,-8.1c-2.434174,-6.9 1.217087,-2.8 -0.304272,-9.7c-0.912815,-4.3 2.555883,-0.4 -0.669398,-5.8c-0.486835,-0.8 -0.42598,-1.3 -0.42598,-2.4l0.365126,-8.5c0.304272,-1.4 -0.730252,-0.2 -0.851961,-4.3c-0.060854,-3.5 -0.608543,-0.2 0.304272,-3.9c0.486835,-2 -2.434174,-13.7 -3.407843,-14.1l0,0z" fill="url(#SVGID_23_)" clip-rule="evenodd" fill-rule="evenodd"/>
   <path stroke="null" id="svg_35" d="m300.739238,346.3c-1.460504,0 -0.365126,2.4 -1.886485,4.5c-0.97367,1.3 0.486835,2 -1.764776,3.6c-0.608543,0.5 0.365126,1.1 -0.669398,4.3c-0.486835,1.5 0.730252,0.1 -1.034524,4.6c-0.669398,1.7 0.304272,1.6 -0.730252,5.1c0,0.1 0,0.1 -0.060854,0.2c-0.121709,0.5 -0.060854,1.1 -0.060854,1.6c-0.182563,0.4 -0.365126,0.8 -0.547689,1.3c0,3.8 0.608543,-0.7 0,4.4c0,0.1 0,0.1 0,0.2c-0.851961,7 0.791106,-1.9 -0.486835,4.8c-0.486835,2.4 0.791106,0.5 -0.121709,4.8c-0.365126,6 0.304272,2.5 0.304272,5.1c-0.121709,0.3 -0.243417,0.6 -0.365126,0.9c-2.616737,3.8 -0.304272,4.3 -1.39965,7.9c-0.669398,2.2 0.547689,1.2 -1.034524,3.6c-1.217087,4.8 6.02458,6.2 6.085435,9.5c0.060854,1.5 0,2.6 0.182563,3.7c-0.060854,1.6 -0.060854,3.2 -0.121709,4.9c-0.060854,0.2 -0.365126,1.3 -0.365126,1.6c-0.121709,0.1 -0.547689,0.5 -0.730252,0.6c-0.060854,0.1 -0.182563,0.2 -0.304272,0.3c-0.182563,0 -0.121709,0 -0.304272,0.1c-0.304272,0.1 -0.547689,0.1 -0.851961,0.2c0.669398,0.1 1.338796,0.2 2.008193,0.4c1.338796,0 2.738446,0.3 4.320659,0.2c-2.129902,-1.3 -2.555883,-12.2 -1.947339,-14.4c0.608543,-0.2 1.277941,-0.5 1.886485,-0.7c0.42598,0 0.97367,-1.4 2.434174,-2.2c0.912815,-0.5 1.82563,-5.4 1.217087,-8.6c-0.060854,-0.4 0,-0.7 -0.060854,-1.1c0,-3.5 2.129902,0.8 0.243417,-6.9c0,0 -0.42598,-4.7 -0.669398,-5.9c0,-0.1 0,-0.3 0,-0.5c0.121709,-0.9 0.304272,-1.7 0.42598,-2.6c1.277941,-2.4 -0.243417,-1.9 -0.182563,-7.2c0,-0.9 -0.42598,0.1 -0.365126,-4.8c0,-1.8 -0.912815,-6.8 -1.277941,-8.7c-0.060854,-1 -0.182563,-2 -0.304272,-3.1c0,-5.7 0.121709,-2.5 -0.730252,-6.1c-0.791106,-3.1 -0.060854,-0.4 -0.791106,-2.7c-0.060854,-0.2 0,-2 0,-2.4c0.121709,0 0.121709,-0.3 0.060854,-0.5l0,0z" fill="url(#SVGID_24_)" clip-rule="evenodd" fill-rule="evenodd"/>
   <path stroke="null" id="svg_36" d="m487.136098,357.9c-1.582213,0 0.851961,2.3 -3.590406,2.1c-2.495028,-0.1 -6.572269,16.8 -2.677591,26.9c1.764776,4.6 -0.912815,0.4 2.738446,8.4c0.791106,3.9 1.460504,6.8 0.730252,11.7c-0.608543,0.1 -1.277941,0.3 -1.277941,1.3c1.703922,0 3.468698,0.3 4.990056,0.3c-0.060854,-0.3 -1.156233,-6.3 -1.277941,-6.5c-0.121709,-0.2 -1.156233,-6.1 1.034524,-6.6c0.243417,-0.7 0.365126,0.3 0.486835,-2.3c3.346989,-3.2 2.921009,-3.2 4.016387,-9.1c1.582213,-8.3 0.182563,-14.3 -2.495028,-21.5c0,0 -0.121709,-2.8 -0.42598,-4.2c-0.060854,0 -2.069048,-0.5 -2.251611,-0.5l0,0z" fill="url(#SVGID_25_)" clip-rule="evenodd" fill-rule="evenodd"/>
   <path stroke="null" id="svg_37" d="m326.663189,374.8c-0.304272,-0.5 -1.460504,-2.4 -1.217087,-3.3c-0.182563,-0.4 -3.651261,-1 -4.320659,-0.6c-0.243417,1.8 -1.095378,1.4 -2.069048,1.5c-0.121709,1 -0.182563,0.5 -0.182563,1.7l-0.121709,1.5c-1.39965,1.1 -0.97367,-1.1 -2.616737,2.1c-2.555883,0 -3.833824,-5.4 -4.138095,1c0,0.4 -0.730252,4.5 -0.912815,4.7c-0.730252,0.5 -0.791106,1.6 0.060854,1.5l0.365126,1.9c-1.764776,2.1 -2.555883,5.5 -1.886485,8.7c1.277941,6 0.486835,-3 0.851961,6.9c0.060854,1.7 0.912815,-1.4 0.912815,3.4c0.730252,0.8 1.82563,2 2.738446,2l0.304272,3.2c-3.712115,4.4 1.095378,-2 1.095378,7.5c3.955532,4.2 0.97367,-4 4.442367,4.5c0.182563,0.5 4.990056,1.9 5.659454,1.9l3.164426,0.4c0.97367,0.8 0.547689,0.5 1.277941,0.9c0.304272,-0.4 4.990056,0.7 5.537745,0.9c0.365126,5 0.851961,0.4 1.582213,3.5l0.912815,7.4c0,1.4 0.060854,1.4 -0.182563,2.8c-0.121709,1 -0.912815,1.3 -0.912815,1.5l-2.129902,1.4l-0.304272,0.3l4.016387,-0.9c1.582213,0 1.82563,-1.4 3.407843,-1.4l1.338796,0c-0.060854,0 -1.39965,-2.5 -1.764776,-2.8c-0.060854,-0.7 -0.851961,-6.5 -1.460504,-6.8l0,-2.1c0,-2.4 0.42598,-0.8 1.217087,-5.4c1.703922,-0.3 4.442367,-4.3 4.442367,-4.3l2.008193,-2.2c0.365126,-0.2 1.156233,-0.7 1.156233,-0.7c1.156233,-5.1 3.651261,-2.1 2.008193,-7.4c2.312465,-1.4 -1.095378,-7.9 -2.312465,-9.7l0,-1.5c5.476891,-7.9 -0.608543,-7.9 -0.608543,-7.9l0,-0.3c-1.217087,-2.7 -2.251611,-15.1 -3.712115,-10.6c-2.069048,6.3 -2.190756,-3.8 -0.97367,-7.4c1.095378,-3.3 -2.373319,-5.7 -4.564076,-3.9c-1.095378,0.9 -0.121709,-3.4 -1.338796,-4.8c-1.034524,0.5 -1.095378,-0.8 -1.947339,1.9c-2.434174,0.5 1.156233,2.2 -2.495028,2.9c-2.921009,0.6 2.738446,11.3 -0.608543,10.8c-0.060854,0.3 -0.060854,0.3 -0.304272,0.3c-0.608543,-1.3 -1.39965,-9.3 -1.460504,-9.4c-3.286135,-0.7 -1.886485,5.2 -1.886485,9.2l-0.547689,1.4c-0.912815,0.7 -0.730252,-4.9 -1.521359,-6.2l0,0z" fill="url(#SVGID_26_)" clip-rule="evenodd" fill-rule="evenodd"/>
   <path stroke="null" id="svg_38" d="m303.416829,392.3c-1.034524,-2.2 -5.294328,-1.6 -5.963726,0c-2.069048,1.6 -1.338796,-1.5 -2.981863,1.8l-0.97367,1.2c-0.608543,-1.6 -1.643067,-0.2 -1.582213,1.4c-5.476891,0 0.182563,-0.1 -4.442367,4.5c-0.182563,0.2 0.243417,1.7 0.243417,2.3l0,2.6c0,0 -1.277941,-0.2 -1.460504,0.1c0,8.4 -1.338796,1.5 -1.095378,5.9c0.304272,4.5 -2.921009,2.2 -0.912815,4.9l-0.243417,2.6c-2.190756,1.2 0.851961,0.2 -1.947339,5.7c-0.547689,1.1 0.243417,3.1 0.243417,3.1c-0.121709,0.2 -4.320659,1.9 -0.669398,5.2l0,0.9c0,0 -3.286135,4.9 -0.608543,5.9c0.608543,6.6 -3.346989,0.6 2.738446,6.2c0.669398,0.6 -1.82563,4.1 2.981863,3.8l0.547689,0.6c0,5.5 0.121709,1.2 3.833824,2.7c0.060854,2 -0.547689,1.4 -0.547689,3.7c7.119958,0 -1.156233,0.8 5.902872,2.8c0.182563,0.1 -0.060854,3.6 2.677591,1.6l2.373319,0c0.608543,2 0.669398,4.2 3.346989,1.9c2.008193,2.1 -0.060854,1.6 3.468698,-0.1c0.182563,0.2 0.243417,0.5 0.547689,0.5l0.912815,0.3c0,0.6 0.060854,1.4 0.304272,1.9l1.947339,-0.9c0.669398,-0.3 1.095378,0.3 1.095378,1.4l0,1.2c-1.217087,0.7 -2.555883,2.4 -3.042717,2.7l7.667648,-1.7c-3.590406,-2.1 -1.217087,-8.3 0.912815,-8.5c0.791106,-0.1 0.182563,-2.8 0.304272,-3.6c3.407843,-0.4 4.259804,1.2 3.772969,-3.4l0.669398,-0.6c0.608543,-0.5 3.833824,-3.2 2.069048,-4.8c0.182563,-1.8 3.894678,0.3 0.42598,-6.9c0.121709,-0.3 5.537745,-4 0.669398,-5l0,-0.2c6.693978,-7.8 0.182563,-3.9 2.190756,-10.6c1.582213,-5.4 -1.521359,-1.2 -1.156233,-10.4c0.060854,-1.9 -1.095378,-2 -2.008193,-2c0.365126,-9.6 1.034524,1.3 -0.42598,-5.5c-0.182563,-0.8 -1.39965,-9.9 -3.468698,-5.6c-1.643067,-1.7 -0.060854,-4.1 -3.407843,-4.1l-1.764776,0c2.555883,-8 -0.730252,-2.7 -5.476891,-7.6c-1.338796,-1.4 -1.460504,-0.1 -2.434174,1.3c-0.547689,-0.1 -2.129902,-3.5 -2.312465,0.8l-0.97367,0.3c-2.069048,-0.1 1.277941,-6.3 -1.886485,-0.7c0.060854,0.2 -0.121709,0.3 -0.060854,0.4l0,0z" fill="url(#SVGID_27_)" clip-rule="evenodd" fill-rule="evenodd"/>
   <path stroke="null" id="svg_39" d="m503.323354,317.9c-0.365126,-0.1 -0.121709,0 -0.182563,0c-1.156233,2.8 -1.156233,8.6 -2.008193,8.6c0.060854,-3.7 -1.034524,-0.2 -1.095378,0c-1.034524,2.2 -2.129902,6.8 -0.182563,8.6c0.182563,0.2 0.182563,3.3 0.121709,3.3c-0.060854,0.6 -2.860154,-1.9 -1.034524,0.9c1.643067,2.5 -3.529552,3.1 -0.97367,7.2c0.669398,1 -0.243417,4.4 -1.156233,5.4c-0.730252,0.7 0.365126,1.9 0.182563,4.7c-0.060854,0.8 -0.060854,1.5 -0.060854,2.3l0.060854,3.8c0.730252,0.3 -0.547689,6.5 -0.791106,7.9l0.121709,8.5c-0.060854,3.5 -0.791106,6.9 -2.008193,9.6c-1.156233,2.7 1.703922,1.6 -0.121709,6.8l-0.060854,0.2c-0.912815,2.7 0.912815,3.7 2.008193,5.3l4.320659,2.1c1.643067,-0.1 1.338796,7.8 0.97367,9.4l-0.486835,4.8c-0.547689,1.4 -1.39965,2.3 -2.434174,2.2l1.156233,0.5c0.42598,0 5.720308,0.3 5.720308,0.3c-2.251611,-4.4 -2.008193,1.2 -1.82563,-8.6c0.060854,-1.7 0.182563,-6.4 0.486835,-7.8l1.582213,-0.8c0.730252,-0.2 3.712115,-4.7 3.346989,-7.1c-0.730252,-5.3 3.286135,1.4 -0.182563,-8.8c-0.547689,-1.6 0.97367,-2.4 0.060854,-8.7c-0.182563,-1.3 -0.121709,-2.6 -0.243417,-3.8l-0.365126,-8.1c-2.434174,-6.9 1.217087,-2.8 -0.243417,-9.7c-0.912815,-4.3 2.555883,-0.4 -0.730252,-5.8c-0.486835,-0.8 -0.42598,-1.3 -0.42598,-2.4l0.365126,-8.5c0.304272,-1.4 -0.730252,-0.2 -0.851961,-4.3c-0.121709,-3.5 -0.608543,-0.3 0.304272,-4c0.547689,-1.9 -2.373319,-13.7 -3.346989,-14l0,0z" fill="url(#SVGID_28_)" clip-rule="evenodd" fill-rule="evenodd"/>
   <path stroke="null" id="svg_40" d="m515.676787,302c1.39965,0 1.460504,1 2.981863,3.8c0.97367,1.8 0.182563,2.7 2.373319,4.9c0.608543,0.6 -2.129902,4.9 -1.156233,9.2c0.486835,2.1 -0.486835,0.4 1.277941,6.3c0.608543,2.2 -0.912815,0.9 0.060854,5.6c0,0.1 0.060854,0.2 0.060854,0.2c0.121709,0.6 0.060854,1.5 0.060854,2.2c0.182563,0.6 -0.486835,1.3 -0.304272,1.9c0,5 -0.669398,0.1 -0.060854,7c0,0.1 0,0.2 0,0.3c0.791106,9.3 -0.791106,-2.5 0.486835,6.4c0.486835,3.3 -0.730252,0.6 0.121709,6.5c0.365126,8 -0.304272,3.4 -0.304272,6.9c0.121709,0.4 0.243417,0.8 0.365126,1.2c2.555883,5 0.304272,5.7 1.39965,10.6c0.669398,3 -0.547689,1.6 0.97367,4.8c1.217087,6.4 -5.842017,8.3 -5.902872,12.7c-0.060854,2.1 0,3.5 -0.182563,5c0.060854,2.2 0.060854,4.3 0.121709,6.5c0.060854,0.3 0.365126,1.7 0.365126,2.2c0.121709,0.1 0.547689,0.7 0.730252,0.8c0.060854,0.2 0.182563,0.3 0.243417,0.5c0.182563,0 0.121709,0 0.304272,0.2c0.304272,0.1 0.547689,0.1 0.851961,0.2c-0.669398,0.2 -1.277941,0.3 -1.947339,0.6c-1.277941,0 -2.677591,0.4 -4.19895,0.2c2.069048,-1.7 2.434174,-16.3 1.886485,-19.2c-0.608543,-0.3 -1.217087,-0.6 -1.82563,-0.9c-0.42598,0.1 -0.912815,-1.9 -2.312465,-2.9c-0.912815,-0.7 -1.764776,-7.2 -1.217087,-11.5c0.060854,-0.6 0,-0.9 0.060854,-1.5c0,-4.8 -2.069048,1 -0.243417,-9.3c0,0 -0.669398,-4.6 -0.42598,-6.3c0,-0.2 1.095378,-2.1 1.095378,-2.3c-0.121709,-1.2 -0.304272,-2.3 -0.42598,-3.5c-1.277941,-3.2 0.243417,-2.6 0.182563,-9.7c0,-1.2 0.42598,0.1 0.365126,-6.4c0,-2.4 0.912815,-9.1 1.217087,-11.6c0.121709,-1.4 0.182563,-2.7 0.304272,-4.1c1.886485,-4.7 1.095378,-4.9 1.947339,-9.7c0.730252,-4.1 0.060854,-0.6 0.791106,-3.5c0.060854,-0.3 0,-2.7 0,-3.3c-0.182563,-0.4 -0.121709,-0.7 -0.121709,-1l0,0z" fill="url(#SVGID_29_)" clip-rule="evenodd" fill-rule="evenodd"/>
   <path stroke="null" id="svg_41" d="m527.969364,307.8c1.39965,0 1.39965,0.5 2.373319,4.8c0.365126,1.5 -0.608543,2.5 1.156233,5.9c0.547689,1 -0.912815,4 0.060854,8.3c0.486835,2.1 -0.486835,0.4 1.277941,6.3c0.669398,2.2 -0.851961,0.9 0.060854,5.6c0,0.1 0.060854,0.2 0.060854,0.2c0.121709,0.6 0.060854,1.5 0.060854,2.2c0.182563,0.6 -0.486835,1.3 -0.304272,1.9c0,5 -0.669398,0.1 -0.060854,7c0,0.1 0,0.2 0,0.3c0.791106,9.3 -0.791106,-2.5 0.486835,6.4c0.486835,3.3 -0.730252,0.6 0.121709,6.5c0.365126,8 -0.304272,3.4 -0.304272,6.9c0.121709,0.4 0.243417,0.8 0.365126,1.2c2.555883,5 0.304272,5.7 1.39965,10.6c0.669398,3 -0.547689,1.6 0.97367,4.8c1.217087,6.4 -5.842017,8.3 -5.902872,12.7c-0.060854,2.1 0.060854,3.5 -0.182563,5c0.060854,2.2 0.060854,4.3 0.121709,6.5c0.060854,0.3 0.365126,1.7 0.365126,2.2c0.121709,0.1 0.547689,0.7 0.669398,0.8c0.121709,0.2 0.182563,0.3 0.304272,0.5c0.182563,0 0.121709,0 0.304272,0.2c0.304272,0.1 0.547689,0.1 0.851961,0.2c-0.608543,0.2 -1.277941,0.3 -1.886485,0.6c-1.338796,0 -2.677591,0.4 -4.19895,0.2c2.069048,-1.7 2.434174,-16.3 1.886485,-19.2c-0.608543,-0.3 -1.217087,-0.6 -1.82563,-0.9c-0.42598,0.1 -0.912815,-1.9 -2.312465,-2.9c-0.912815,-0.7 -1.764776,-7.2 -1.217087,-11.5c0.060854,-0.6 0,-0.9 0.060854,-1.5c0,-4.8 -2.069048,1 -0.243417,-9.3c0,0 -2.008193,-3.4 -1.764776,-5.1c0,-0.2 1.095378,-2.1 1.095378,-2.3c-0.121709,-1.2 1.034524,-3.5 0.912815,-4.7c-1.277941,-3.2 0.243417,-2.6 0.182563,-9.7c0,-1.2 0.42598,0.1 0.365126,-6.4c0,-2.4 0.912815,-9.1 1.217087,-11.6c0.060854,-1.4 0.182563,-2.7 0.304272,-4.1c1.886485,-4.7 0.608543,-4.4 1.460504,-9.1c0.730252,-4.1 0.547689,-1.1 1.277941,-4.1c0.060854,-0.3 0.182563,-3.2 0.182563,-3.7c-0.243417,-0.6 0.182563,-1.4 0.243417,-1.7l0,0z" fill="url(#SVGID_30_)" clip-rule="evenodd" fill-rule="evenodd"/>
   <path stroke="null" id="svg_42" d="m536.184701,343.5c-1.338796,0 -0.304272,3 -1.643067,5.7c-0.912815,1.7 0.547689,2.5 -1.521359,4.6c-0.608543,0.6 0.365126,1.4 -0.547689,5.5c-0.42598,2 0.730252,0.2 -0.851961,5.9c-0.547689,2.1 0.304272,2 -0.486835,6.5c0,0.1 0,0.1 -0.060854,0.2c-0.121709,0.6 0,1.4 0,2.1c-0.121709,0.6 -0.304272,1.1 -0.486835,1.7c0.060854,4.8 0.547689,-0.9 0.121709,5.6c0,0.1 0,0.2 0,0.3c-0.608543,8.9 0.730252,-2.4 -0.365126,6.2c-0.365126,3.1 0.730252,0.6 0.060854,6.2c-0.182563,7.7 0.304272,3.2 0.365126,6.5c-0.121709,0.4 -0.182563,0.8 -0.304272,1.2c-2.312465,4.8 -0.182563,5.4 -1.156233,10.1c-0.547689,2.9 0.547689,1.5 -0.851961,4.6c-1.034524,6.1 5.476891,7.9 5.659454,12.1c0.060854,2 0.060854,3.4 0.060854,4.7c0,2.1 0,4.1 0,6.2c0,0.3 -0.121709,1.7 -0.060854,2.1c-0.121709,0.1 -0.42598,0.7 -0.547689,0.8c-0.060854,0.1 -0.121709,0.2 -0.182563,0.4c-0.182563,0.1 -0.121709,0.1 -0.243417,0.2c-0.304272,0.1 -0.547689,0.1 -0.791106,0.2c0.608543,0.2 1.217087,0.3 1.886485,0.5c1.277941,0 2.555883,0.4 4.016387,0.2c-2.008193,-1.7 -2.616737,-15.6 -2.129902,-18.4c0.547689,-0.3 1.156233,-0.6 1.703922,-0.9c0.42598,0.1 0.851961,-1.8 2.190756,-2.8c0.851961,-0.6 1.582213,-6.9 0.97367,-11c-0.060854,-0.5 -0.060854,-0.9 -0.060854,-1.4c-0.121709,-4.5 2.008193,1 0.060854,-8.9c0,0 -0.486835,-5.9 -0.791106,-7.6c0,-0.2 0,-0.4 0,-0.6c0.121709,-1.1 0.243417,-2.2 0.365126,-3.3c1.156233,-3 -0.304272,-2.4 -0.365126,-9.2c0,-1.2 -0.42598,0.1 -0.42598,-6.1c0,-2.3 -1.034524,-8.6 -1.39965,-11.1c-0.121709,-1.3 -0.243417,-2.6 -0.365126,-3.9c-0.121709,-7.3 0.060854,-3.2 -0.851961,-7.7c-0.791106,-4 -0.060854,-0.6 -0.851961,-3.4c-0.060854,-0.3 0,-2.6 -0.060854,-3.1c0,-0.3 0,-0.6 -0.060854,-0.9l0,0z" fill="url(#SVGID_31_)" clip-rule="evenodd" fill-rule="evenodd"/>
   <path stroke="null" id="svg_43" d="m565.516496,339.8c-1.338796,0 -0.304272,3 -1.643067,5.7c-0.912815,1.7 0.486835,2.5 -1.521359,4.6c-0.547689,0.6 0.365126,1.4 -0.486835,5.5c-0.42598,2 0.669398,0.2 -0.851961,5.9c-0.547689,2.1 0.304272,2 -0.486835,6.5c0,0.1 0,0.1 -0.060854,0.2c-0.121709,0.6 0,1.4 0,2.1c-0.121709,0.5 -0.304272,1.1 -0.486835,1.6c0.060854,4.8 0.547689,-0.9 0.121709,5.6c0,0.1 0,0.2 0,0.3c-0.608543,8.9 0.730252,-2.4 -0.365126,6.2c-0.365126,3.1 0.730252,0.6 0.060854,6.2c-0.182563,7.7 0.304272,3.2 0.365126,6.5c-0.060854,0.4 -0.182563,0.8 -0.304272,1.2c-2.312465,4.8 -0.182563,5.4 -1.156233,10.1c-0.547689,2.9 0.547689,1.5 -0.851961,4.6c-1.034524,6.1 6.085435,7.9 6.267998,12.1c0.060854,2 0.669398,3.4 0.669398,4.7c0,2.1 0,4.1 0,6.2c0,0.3 -0.669398,1.7 -0.669398,2.1c-0.121709,0.1 -0.730252,0.7 -0.851961,0.8c-0.060854,0.1 -0.243417,0.3 -0.304272,0.4c-0.182563,0.1 -0.182563,0.1 -0.304272,0.2c-0.304272,0.1 -0.547689,0.1 -0.851961,0.2c0.608543,0.2 1.217087,0.3 1.82563,0.5c1.277941,0 2.555883,0.4 4.016387,0.2c-2.008193,-1.7 -2.616737,-15.5 -2.129902,-18.4c0.547689,-0.3 1.156233,-0.6 1.703922,-0.9c0.42598,0.1 0.851961,-1.8 2.190756,-2.8c0.851961,-0.6 1.582213,-6.9 0.912815,-11c-0.060854,-0.5 0,-0.9 -0.060854,-1.4c-0.060854,-4.5 2.008193,1 0.060854,-8.9c0,0 -0.486835,-5.9 -0.791106,-7.6c0,-0.2 0,-0.4 0,-0.6c0.121709,-1.1 0.243417,-2.2 0.365126,-3.3c1.156233,-3 -0.304272,-2.4 -0.365126,-9.2c0,-1.2 -0.42598,0.1 -0.42598,-6.1c0,-2.3 -1.034524,-8.6 -1.39965,-11.1c-0.121709,-1.3 -0.243417,-2.6 -0.365126,-3.9c-0.121709,-7.3 0.060854,-3.2 -0.851961,-7.7c-0.791106,-3.9 -0.060854,-0.6 -0.851961,-3.4c-0.060854,-0.3 -0.060854,-2.6 -0.060854,-3.1c0,-0.2 -0.060854,-0.5 -0.060854,-0.8l0,0z" fill="url(#SVGID_32_)" clip-rule="evenodd" fill-rule="evenodd"/>
   <path stroke="null" id="svg_44" d="m573.549269,352.4c-1.338796,0 -0.304272,3.1 -1.643067,5.7c-0.912815,1.7 0.547689,2.5 -1.521359,4.6c-0.608543,0.6 0.365126,1.4 -0.547689,5.5c-0.42598,2 0.730252,0.2 -0.851961,5.9c-0.608543,2.1 0.304272,2 -0.547689,6.5c0,0.1 0,0.2 -0.060854,0.2c-0.121709,0.6 0,1.4 0,2.1c-0.182563,0.6 -0.365126,1.1 -0.486835,1.6c0.060854,4.8 0.547689,-0.9 0.121709,5.6c0,0.1 0,0.2 0,0.3c-0.608543,8.9 0.730252,-2.4 -0.365126,6.2c-0.365126,3.1 0.730252,0.6 0.060854,6.2c-0.182563,7.7 0.304272,3.2 0.365126,6.5c-0.121709,0.4 -0.182563,0.8 -0.304272,1.1c-2.312465,4.8 -0.182563,5.5 -1.156233,10.1c-0.547689,2.9 0.547689,1.5 -0.851961,4.6c-1.034524,6.1 5.720308,7.9 5.902872,12.1c0.060854,2 0,3.4 0.304272,4.7c0,2.1 0,4.1 0,6.2c-0.060854,0.3 -0.304272,1.7 -0.304272,2.1c-0.121709,0.1 -0.547689,0.7 -0.608543,0.8c-0.060854,0.1 -0.182563,0.3 -0.243417,0.4c-0.182563,0 -0.121709,0 -0.243417,0.2c-0.304272,0.1 -0.547689,0.1 -0.791106,0.2c0.608543,0.2 1.217087,0.3 1.82563,0.5c1.277941,0 2.555883,0.4 4.016387,0.2c-2.008193,-1.7 -2.616737,-15.6 -2.129902,-18.4c0.547689,-0.3 1.156233,-0.6 1.703922,-0.9c0.42598,0.1 0.851961,-1.8 2.190756,-2.8c0.851961,-0.6 1.582213,-6.9 0.97367,-11c-0.060854,-0.6 -0.060854,-0.9 -0.060854,-1.4c-0.121709,-4.5 2.008193,1 0.060854,-8.9c0,0 -0.486835,-5.9 -0.791106,-7.6c0,-0.2 0,-0.5 0,-0.6c0.121709,-1.1 0.243417,-2.2 0.365126,-3.3c1.156233,-3 -0.304272,-2.4 -0.365126,-9.2c0,-1.2 -0.42598,0.1 -0.42598,-6.1c0,-2.3 -1.034524,-8.6 -1.39965,-11.1c-0.121709,-1.3 -0.182563,-2.6 -0.365126,-3.9c-0.121709,-7.3 0.060854,-3.2 -0.851961,-7.7c-0.791106,-4 -0.060854,-0.6 -0.851961,-3.4c-0.060854,-0.3 0,-2.6 -0.060854,-3.1c0,-0.1 0,-0.4 -0.060854,-0.7l0,0z" fill="url(#SVGID_33_)" clip-rule="evenodd" fill-rule="evenodd"/>
   <path stroke="null" id="svg_45" d="m549.937783,395.7c-0.365126,0 -0.121709,2.2 -0.42598,4.2c-0.243417,1.2 0.121709,1.8 -0.42598,3.4c-0.121709,0.4 0.060854,1 -0.121709,4c-0.121709,1.4 0.182563,0.1 -0.243417,4.3c-0.121709,1.5 0.060854,1.5 -0.121709,4.7c0,0 0,0.1 0,0.1c0,0.5 0,1 0,1.5c-0.060854,0.4 0.060854,0.8 0.060854,1.2c0.060854,3.5 0.182563,-0.7 0.182563,4.1c0,0.1 0,0.1 0,0.2c0,6.4 0,-1.7 -0.243417,4.4c-0.121709,2.3 0.060854,0.5 -0.060854,4.5c-0.060854,5.6 0.060854,2.3 0.060854,4.8c-0.060854,0.3 -0.060854,0.6 -0.121709,0.8c-0.547689,3.5 -0.060854,4 -0.304272,7.3c-0.121709,2.1 0.121709,1.1 -0.243417,3.3c-0.243417,4.4 1.39965,5.8 1.39965,8.8c0,1.4 0.060854,2.4 0.060854,3.4c0,1.5 0,3 0,4.5c0,0.2 -0.060854,1.2 -0.060854,1.5c0,0.1 -0.121709,0.5 -0.121709,0.6c0,0.1 -0.060854,0.2 -0.060854,0.3c-0.060854,0 0,0 -0.060854,0.1c-0.060854,0 -0.121709,0.1 -0.182563,0.1c0.121709,0.1 0.304272,0.2 0.42598,0.4c0.304272,0 0.669398,0.3 0.97367,0.1c-0.486835,-1.2 -0.669398,-11.3 -0.547689,-13.3c0.121709,-0.2 0.304272,-0.4 0.42598,-0.7c0.121709,0.1 0.182563,-1.3 0.547689,-2c0.182563,-0.5 0.42598,-5 0.243417,-7.9c0,-0.4 0,-0.7 0,-1c0,-3.3 0.42598,0.8 -0.060854,-6.4c0,0 -0.304272,-4.3 -0.304272,-5.5c0,-0.1 0,-0.3 0,-0.5c0,-0.8 0.182563,-1.6 0.182563,-2.4c0.304272,-2.2 0,-1.8 -0.060854,-6.7c0,-0.8 -0.060854,0.1 -0.060854,-4.4c0,-1.6 -0.243417,-6.3 -0.304272,-8c-0.060854,-0.9 -0.060854,-1.9 -0.060854,-2.8c-0.060854,-5.3 0.060854,-2.3 -0.121709,-5.6c-0.182563,-2.8 -0.121709,-0.4 -0.121709,-2.4c0,-0.2 0,-1.9 0,-2.2c0,-0.3 -0.121709,-0.5 -0.121709,-0.8l0,0z" fill="url(#SVGID_34_)" clip-rule="evenodd" fill-rule="evenodd"/>
   <path stroke="null" id="svg_46" d="m543.791494,384.5c-0.365126,0 -0.060854,2.2 -0.42598,4.1c-0.182563,1.2 0.121709,1.8 -0.365126,3.4c-0.121709,0.4 0.060854,1 -0.121709,4c-0.121709,1.4 0,0.1 -0.365126,4.3c-0.121709,1.5 -0.304272,1.5 -0.304272,4.7c0,0 0,0.1 0,0.2c0,0.4 0.182563,1 0.182563,1.5c0,0.4 -0.121709,0.8 -0.121709,1.2c0,3.5 0,-0.7 0,4.1c0,0.1 0,0.1 0,0.2c0,6.4 0.304272,-1.7 0.060854,4.4c-0.060854,2.3 0.243417,0.5 0.060854,4.5c-0.060854,5.6 0.121709,2.3 0.121709,4.8c0,0.3 0,0.6 -0.060854,0.8c-0.547689,3.5 -0.060854,3.9 -0.243417,7.3c-0.121709,2.1 0.182563,1.1 -0.182563,3.3c-0.243417,4.4 1.39965,5.8 1.460504,8.8c0,1.4 0.060854,2.4 0.060854,3.4c0,1.5 0,3 0,4.5c0,0.2 -0.060854,1.2 -0.060854,1.5c-0.060854,0.1 -0.121709,0.5 -0.182563,0.6c0,0.1 -0.060854,0.2 -0.060854,0.3c-0.060854,0 0,0 -0.060854,0.1c-0.060854,0 -0.121709,0.1 -0.182563,0.1c0.121709,0.1 0.304272,0.2 0.42598,0.4c0.304272,0 0.608543,0.3 0.97367,0.1c-0.486835,-1.2 -0.608543,-11.3 -0.547689,-13.3c0.121709,-0.2 0.304272,-0.5 0.42598,-0.7c0.121709,0.1 0.182563,-1.3 0.547689,-2c0.182563,-0.5 0.365126,-5 0.243417,-7.9c0,-0.4 0,-0.7 0,-1c0,-3.3 0.42598,0.8 -0.060854,-6.4c0,0 -0.304272,-4.3 -0.304272,-5.5c0,-0.1 0,-0.3 0,-0.5c0,-0.8 0.121709,-1.6 0.182563,-2.4c0.304272,-2.2 -0.060854,-1.8 -0.060854,-6.7c0,-0.8 -0.060854,0.1 -0.060854,-4.4c0,-1.6 -0.243417,-6.3 -0.304272,-8c0,-0.9 -0.060854,-1.9 -0.060854,-2.8c-0.060854,-5.3 0,-2.3 -0.182563,-5.6c-0.182563,-2.9 0,-0.4 -0.182563,-2.5c0,-0.2 0,-1.9 0,-2.2c-0.243417,-0.3 -0.243417,-0.5 -0.243417,-0.7l0,0z" fill="url(#SVGID_35_)" clip-rule="evenodd" fill-rule="evenodd"/>
   <path stroke="null" id="svg_47" d="m594.178892,417.7c-0.304272,0 -0.060854,2.1 -0.365126,3.9c-0.182563,1.2 0.121709,1.7 -0.365126,3.2c-0.121709,0.4 0.060854,1 -0.121709,3.8c-0.060854,1.4 0.304272,0.1 -0.060854,4.1c-0.121709,1.4 0,1.4 0,4.5c0,0.1 0,0.1 0,0.2c0,0.4 -0.182563,0.9 -0.182563,1.4c0,0.4 0.060854,0.7 0,1.1c0,3.3 0.121709,-0.6 0.121709,3.9c0,0.1 0,0.1 0,0.2c0,6.1 0,-1.7 -0.243417,4.2c-0.121709,2.2 0.060854,0.4 -0.121709,4.3c-0.060854,5.3 0,2.2 0.060854,4.5c0,0.3 -0.060854,0.5 -0.060854,0.8c-0.547689,3.3 -0.060854,3.7 -0.304272,7c-0.121709,2 0.121709,1.1 -0.182563,3.2c-0.243417,4.2 1.034524,5.5 1.095378,8.4c0,1.4 -0.243417,2.3 -0.243417,3.3c0,1.4 0,2.8 0,4.3c0,0.2 0.243417,1.2 0.243417,1.4c0,0.1 0,0.5 0,0.6s0,0.2 0,0.3c-0.060854,0 0,0 0,0.1c-0.060854,0.1 -0.121709,0.1 -0.182563,0.2c0.121709,0.1 0.304272,0.2 0.42598,0.3c0.304272,0 0.608543,0.3 0.912815,0.1c-0.486835,-1.2 -0.608543,-10.7 -0.486835,-12.7c0.121709,-0.2 0.243417,-0.4 0.365126,-0.6c0.121709,0 0.243417,-1.3 0.547689,-1.9c0.182563,-0.4 0.365126,-4.7 0.243417,-7.6c0,-0.4 0,-0.6 0,-1c0,-3.1 0.486835,0.7 0,-6.1c0,0 -0.121709,-4.1 -0.182563,-5.2c0,-0.1 0,-0.3 0,-0.4c0.060854,-0.7 0.060854,-1.5 0.060854,-2.3c0.304272,-2.1 -0.060854,-1.7 -0.060854,-6.4c0,-0.8 -0.060854,0 -0.121709,-4.2c0,-1.6 -0.243417,-6 -0.304272,-7.7c0,-0.9 -0.060854,-1.8 -0.060854,-2.7c0,-5.1 0,-2.2 -0.182563,-5.4c-0.182563,-2.7 0,-0.3 -0.182563,-2.3c0,-0.2 0,-1.7 0,-2.1c-0.060854,-0.3 -0.060854,-0.5 -0.060854,-0.7l0,0z" fill="url(#SVGID_36_)" clip-rule="evenodd" fill-rule="evenodd"/>
   <path stroke="null" id="svg_48" d="m608.723081,424.7c-0.304272,0 -0.060854,1.9 -0.365126,3.5c-0.182563,1 0.121709,1.5 -0.304272,2.8c-0.121709,0.4 0.060854,0.9 -0.121709,3.4c-0.060854,1.2 0.121709,0.1 -0.182563,3.6c-0.121709,1.3 0.060854,1.2 -0.121709,4c0,0.1 0,0.1 0,0.1c0,0.4 0,0.8 0,1.3c0,0.3 -0.243417,0.7 -0.243417,1c0,3 -0.121709,-0.5 -0.121709,3.5c0,0 0,0.1 0,0.2c0,5.4 0.304272,-1.5 0.060854,3.7c-0.060854,1.9 0.243417,0.4 0.121709,3.8c-0.060854,4.7 0.121709,2 0.121709,4c0,0.2 0,0.5 -0.060854,0.7c-0.486835,2.9 -0.060854,3.3 -0.243417,6.2c-0.121709,1.8 0.121709,0.9 -0.182563,2.8c-0.182563,3.7 0.912815,4.9 0.97367,7.5c0,1.2 -0.791106,2 -0.182563,2.9c0,1.3 0,2.6 0,3.8c0,0.2 0.182563,1 0.243417,1.3c0,0 0,0.4 0,0.5c0,0.1 0.060854,0.2 0,0.2c-0.060854,0 0,0 -0.060854,0.1c-0.060854,0 -0.060854,0.1 -0.182563,0.1c0.121709,0.1 0.243417,0.2 0.365126,0.3c0.304272,0 0.547689,0.2 0.851961,0.1c-0.42598,-1 -0.547689,-9.5 -0.42598,-11.2c0.121709,-0.2 0.243417,-0.4 0.365126,-0.6c0.060854,0 0.182563,-1.1 0.42598,-1.7c0.182563,-0.4 0.365126,-4.2 0.243417,-6.7c0,-0.3 0,-0.6 0,-0.9c0,-2.8 0.182563,0.6 -0.243417,-5.4c0,0 -0.365126,-3.6 -0.365126,-4.6c0,-0.1 0,-0.3 0,-0.4c0,-0.7 0.304272,-1.4 0.304272,-2c0.243417,-1.9 0.060854,-1.5 0.060854,-5.6c0,-0.7 0,0 -0.060854,-3.7c0,-1.4 -0.182563,-5.3 -0.243417,-6.8c0,-0.8 -0.060854,-1.6 -0.060854,-2.4c0,-4.5 0,-2 -0.182563,-4.8c-0.182563,-2.4 0,-0.3 -0.182563,-2.1c0,-0.2 0,-1.6 0,-1.9c0,-0.2 0,-0.4 0,-0.6l0,0z" fill="url(#SVGID_37_)" clip-rule="evenodd" fill-rule="evenodd"/>
  </g>
  <g id="svg_49">
   <path id="svg_50" d="m360.8,735.7c6.2,0.5 68.1,3 69.6,1.3c-3.5,-3.8 -6.4,-0.5 -7.7,-9.3c-0.8,-5.4 4.9,-3.1 -6.2,-6c-2.7,-0.7 1,-3.8 -5.4,-4c-14.7,-0.4 1.4,4.8 -8.4,4.8l-2.8,-0.8c0.2,-5.1 -4.7,-0.4 -7.3,-2.8c-7.1,-6.4 -2.8,3.9 -7.6,6.4c-8.7,4.8 -9,-3.3 -9.5,6.4c0.1,0.7 -13.6,4.1 -14.7,4l0,0z" fill="url(#SVGID_38_)" clip-rule="evenodd" fill-rule="evenodd"/>
   <path id="svg_51" d="m287.3,721.4c0.4,-0.6 0.3,-0.3 0.4,-0.8c-4.7,-4.3 -1.4,1.9 -5.7,-4.9c-1.6,-2.6 1.5,-10.4 1.6,-10.5c6.1,0 2.7,4.4 2.9,-1.2c0,-1 -0.9,-3.2 -0.9,-4.2c3.7,0 1,2.9 4.5,2.9c0,-4.1 1.7,-10.7 4,-13.2c1.3,0.5 0.3,2.4 2.3,2.4c0,-8.2 6.4,-0.2 6.2,2.1c0.3,0 0.5,0 0.8,0.1c4.3,-5.5 -3.9,1.9 3.4,-4.8c0.8,-0.7 1,-1.9 1.7,-2.6l0.2,0.3c0.4,2.3 -1.3,3.6 1,3.6c-0.1,-0.9 2.4,-1.8 2.4,0l0.2,0.9c9.1,2.1 2.9,4.4 7.2,5.6c0,0.2 0.1,1.8 0.1,2.1l1.5,1.3c1.5,5.4 3.1,5.8 7.7,8.8c0.2,0.1 0.1,0.7 0.1,0.9c0,0 6.3,6.8 -2.1,8.3c-3.7,0.7 -0.8,1.7 -6.9,3.7l-0.9,0.8c-0.3,3.8 -3.8,-1.8 -8,5.4c-0.7,1.1 -18.1,-0.1 -20.5,-3.8c-0.2,-0.9 -6.4,1.5 -3.2,-3.2l0,0z" fill="url(#SVGID_39_)" clip-rule="evenodd" fill-rule="evenodd"/>
   <path id="svg_52" d="m325.7,732.6c0.3,-0.5 0.3,-0.2 0.3,-0.7c-3.8,-3.5 -1.1,1.5 -4.6,-4.1c-1.3,-2.1 1.2,-8.5 1.3,-8.6c5,0 2.2,3.6 2.4,-1c0,-0.8 -0.8,-2.6 -0.8,-3.4c3,0 0.8,2.4 3.7,2.4c0,-3.3 1.4,-8.7 3.2,-10.7c1.1,0.3 0.3,1.9 1.9,1.9c0,-6.7 5.2,-0.2 5,1.7c0.2,0 0.4,0 0.6,0c3.5,-4.4 -3.2,1.6 2.8,-3.9c0.6,-0.6 0.8,-1.5 1.4,-2.1l0.2,0.2c0.3,1.9 -1.1,2.9 0.8,2.9c-0.1,-0.7 2,-1.5 2,0l0.1,0.8c7.4,1.7 2.4,3.6 5.9,4.6c0.1,0.2 0.1,1.5 0.1,1.7l1.3,1c1.3,4.4 2.6,4.8 6.3,7.2c0.2,0.1 0.1,0.6 0.1,0.8c0,0 5.1,5.5 -1.7,6.8c-3,0.6 -0.6,1.4 -5.6,3.1l-0.8,0.6c-0.2,3.1 -3.1,-1.5 -6.6,4.4c-0.5,0.9 -14.7,-0.1 -16.7,-3.1c-0.1,-0.7 -5.2,1.3 -2.6,-2.5l0,0z" fill="url(#SVGID_40_)" clip-rule="evenodd" fill-rule="evenodd"/>
   <path id="svg_53" d="m189.4,671.2c-9.8,0.3 -4.4,0.6 -13.8,0.2c-0.3,0 -4.4,-13.2 -7.3,-17.7c-0.2,-0.4 2,-2.8 -3.4,-8.6c-1.3,-1.4 -1.5,1.2 -3.2,0.9c-0.3,0 -0.6,-0.3 -0.6,-0.6c-0.2,-3.4 -0.6,-3.1 -1.6,-5.7c-1.9,-5.4 -1.9,-5.2 -1.5,-19.3c0,-1 0.3,-2.4 1.3,-2.8c11.1,-3.5 -3.7,-1.4 9,-2.8c0.1,0 2.2,-6.2 3,-6.4c3.8,-1.1 4.7,-3.3 5.8,-3.7c2.5,-1.1 5.1,-2 7.7,-2.5c0.7,-0.1 1.7,0.9 2.1,0.3c0.8,-1.3 2.8,-10.3 2.8,-10.5c0.2,-1.2 0.6,-2.3 0.9,-3.4c0,0 12.6,-0.8 15.1,0c1.9,0.6 3.9,0 5.9,0c0.2,0 0.6,-0.2 0.7,0c2,2.2 7.4,1.9 11.5,3.1c0.8,0.2 0.3,0.7 0.7,1.2c0.5,0.6 1.2,1.1 1.9,1.6c10.3,7.2 5,-8.2 13.7,1.6c0.2,0.3 0.3,0.5 0.7,0.2c0.9,-0.6 -0.1,-2.1 1.1,-1.9c1.6,0.2 1,2.6 2.5,1.7c2,-1 3.7,-4.3 5.6,-1.4c0.6,1.1 2.5,0.1 3.7,0.3c1.7,0.3 10,2.7 9.5,4.9c-0.1,0.6 5.7,0.9 5.9,1.3c0.4,0.4 -0.3,2.8 0,3c3.6,2 -0.2,2 2.2,4.7c1.7,2 2.1,0.4 3.3,1.3c0.9,0.7 -1.1,2 -0.9,3c0.6,2.7 1.6,5.8 4,7.4c3.2,2.1 9.5,-1.3 12.6,3.3c4,5.8 -1.5,-0.6 1.6,7.1c1.1,2.7 -4.1,8.8 -5.2,10.3c-0.6,0.8 -0.8,2.1 -0.6,3.1c0.9,3.8 5.4,-1.3 8.6,2.4c7.1,8.1 -6.1,3.4 5.1,9.6c0.2,0.1 0.6,0.3 1.9,1.6c0.6,0.6 0.1,2.6 -0.3,3.3c-0.2,0.5 0,1 0,1.5c0,3.2 -0.7,3.9 -0.6,7.4c0,0.1 4.8,4.4 7,5.3c5.9,2.3 -5,11.5 -5.2,11.7c-1.6,0.9 -3.7,1.1 -4.9,2.5c-8,8.9 6.1,2.6 -12.1,8.4c-9.4,3 0.7,5.3 -16.2,6.7c-0.9,0.1 -0.4,0.9 -2.5,0.7c-1,-0.1 -1.8,-0.9 -2.8,-0.9c-4.6,-0.4 0.6,5.2 -7.4,3.1c-0.8,-0.2 0.6,-2.8 -0.1,-3.1c-16,-6.3 0.5,4.1 -6.8,-3.6c-3.5,1.3 -6.8,2.8 -7,2.8c-14.7,-0.4 -11,9.5 -11,20.7l0,3.4c0,0.8 0.2,0.5 0.9,1.1c0.9,0.9 7,3.6 7,3.6c-8.9,1.9 -15.7,0.6 -24.7,0.2l-0.6,0c0.1,-0.1 4.3,-1.4 4.5,-2.2c0.2,-0.1 0.4,-0.2 0.6,-0.3c2.7,-1.7 1.6,-28.7 0.6,-33.4c0,0 -2.9,-1.3 -3.3,-1.4c-8.7,-2.7 -7.6,-7.1 -13.3,-12.4c-2.5,-2.3 -3.9,-4.2 -4.7,-5.8c-0.4,0 -0.9,0 -1.4,0c-1,0 0.4,-0.2 -0.4,-0.6c-0.6,-0.3 -2.1,0.7 -2.8,0.7c-0.4,0 -4.2,-4.2 -3.7,-4.4c0.6,-0.1 -0.4,-1.8 -1.1,-1.8l0,0zm47.9,29.1c-0.5,-0.1 -0.8,-0.3 -0.9,-0.5c-1.5,-4.5 3.3,-4.7 2.2,-6.5c-0.4,-0.7 -0.5,-1.6 -0.7,-2.5c-8.7,-0.8 -2.2,-1.4 -4.5,-3.6c-0.1,0 -0.4,-0.2 -0.9,-0.3c-1.4,1.2 0,4.6 -2.1,5.1c-1.2,0.3 -2.1,0.5 -3,0.7c0.6,4 2.7,8.3 5.1,8.1c1.2,-0.1 2.9,-0.3 4.8,-0.5l0,0zm0.6,-10.4c-0.2,-1.5 -0.4,-2.9 -1.7,-3.2c-0.7,-0.2 -1.2,-0.3 -1.7,-0.3c0,1.2 -0.1,2.3 0.6,2.4c0,0.1 1.3,0.6 2.8,1.1l0,0zm-16.7,0.9c-0.8,-2.6 -0.6,-7.2 -6.3,-12.4c-0.7,0.8 -1.4,1.7 -2.3,2.4c-9.6,7.5 3.8,11.6 7.5,11.6c0.2,-0.5 0.6,-1 1.1,-1.6l0,0zm-8.8,-14.4c-0.1,-0.1 -0.3,-0.2 -0.5,-0.3c-0.8,-0.6 3.8,-15.1 -2.9,-9.4c-0.3,0.3 -0.9,-0.3 -1.3,0c-4.5,4.4 -2.6,8 -4.9,9.7c0.7,3.4 1.1,5.9 2.3,6.1c4.2,0.5 6.2,-2.9 7.3,-6.1l0,0z" fill="url(#SVGID_41_)" clip-rule="evenodd" fill-rule="evenodd"/>
   <path id="svg_54" d="m173.4,735.4c-4.1,2.1 -6.7,-6.1 -6.9,-8.9c-0.2,-2.8 -2.3,-24.8 2.6,-20.8c0.7,0.6 7.7,-1.6 8.6,-2.2c0.7,-0.5 0.3,-0.3 0.9,-0.3c1,0.1 1.9,0.7 2.9,0.8c3.1,0.3 5,-3.7 5.4,-4.2c0.8,-1.1 2,1.6 3.7,-1.4c0.1,-0.2 4.2,1 4.7,0c0.5,-1 -2,-0.9 -2.3,-2c-1.4,-3.9 -0.7,0.2 -1.9,-2.1c-3.4,-6.9 -6.3,1.8 -4.1,-7.4c0.1,-0.5 -0.3,-0.8 0.1,-0.9c5.7,-1.3 8.7,-2.1 8.9,-8.3c0,-1.7 -0.7,-4 0.5,-5.2c2.2,-2.5 -1.9,-5.2 -3.5,-7.6c-2.4,-3.4 -2.7,-1.1 -7.7,-2.8c-2.2,-0.7 -0.7,-5.1 -2.6,-6.3c-8.1,-5 -1,-5.1 -8.5,-6c-4.3,-0.5 3.6,-4.4 -10.6,-0.9c-0.5,0.1 -5.2,0.2 -6,-0.1c-5.2,-2.2 -5.8,1.6 -7.7,2.1c-4.8,1.3 -3.4,3 -5,4.8c-1.7,2.1 -0.2,-3.5 -3.1,3c-1.3,2.9 -1.4,-1.3 -2.9,3.1c-0.3,0.8 -13.9,-3.9 -8.7,0.5c0.4,0.3 0.6,0.1 0.9,0.6c0.3,0.6 -3.6,1.8 -4.2,2.9c-0.3,0.6 4.3,2.6 4.7,4c0.4,1.3 1.3,0.4 2,5.5c0.1,0.8 1.7,0.5 2.3,1.1c0.5,0.5 0.7,1.5 0,1.9c-4.5,2.2 3.7,-0.3 -3.4,5.8c-2.7,2.3 7.8,3.9 -5.8,7.9c-3.1,0.9 1.3,5.7 2.3,6.7c0.2,0.1 0.3,0.3 0.5,0.5c0.4,0.4 1.2,1.1 1.7,1.3c1.4,0.5 2.9,0.4 4.3,0.9c0.2,0.1 0,0.4 0,0.6c0,0.4 -0.3,1.9 0.1,1.9c2.2,-0.2 1.9,6.9 8.5,1.9c4.8,-3.6 -1.7,6.2 11.7,2.9c1,-0.3 4,-0.1 4.2,1.2c0.2,1.1 0.9,2 1.1,3.1c0.2,0.9 -0.4,14.7 -0.5,15c-0.2,1.6 -0.6,2.6 0,4.7c0.1,0.3 -0.4,0.8 -0.5,1c-0.2,0.6 -0.3,1.2 -0.8,1.7c-0.5,0.5 -10.7,4.5 -10.5,4.6c4.1,1.7 9.2,1.2 13.3,0c0.8,-0.2 13.5,0.3 14.6,-0.7c0.5,-0.5 -3.3,-3.9 -3.3,-3.9l0,0z" fill="url(#SVGID_42_)" clip-rule="evenodd" fill-rule="evenodd"/>
   <path id="svg_55" d="m0,741.6c53,15.5 219.7,-36.6 320.4,-20c159.8,26.2 318,26.9 479.2,31.1c134.7,3.5 259.8,-3.6 394.6,-3.6c63.6,0 123.8,-20.3 205.8,-21l0,252l-1400,0l0,-238.5z" fill="url(#SVGID_43_)" clip-rule="evenodd" fill-rule="evenodd"/>
   <path id="svg_56" d="m106.3,757.8c4,2.1 6.6,-6.1 6.9,-8.9c0.2,-2.8 2.3,-24.8 -2.5,-20.8c-0.7,0.6 -7.7,-1.6 -8.6,-2.2c-0.7,-0.5 -0.3,-0.3 -0.8,-0.3c-1,0.1 -1.9,0.7 -2.9,0.8c-3.1,0.3 -5,-3.7 -5.4,-4.2c-0.8,-1.1 -2,1.6 -3.6,-1.4c-0.1,-0.2 -4.2,1 -4.7,0c-0.5,-1 2,-0.9 2.3,-2c1.4,-3.9 0.7,0.2 1.9,-2.1c3.5,-6.9 6.3,1.8 4.1,-7.4c-0.1,-0.5 0.3,-0.8 -0.1,-0.9c-5.7,-1.3 -8.7,-2.1 -8.9,-8.3c0,-1.7 0.7,-4 -0.5,-5.2c-2.2,-2.5 1.9,-5.2 3.6,-7.6c2.4,-3.4 2.7,-1.1 7.7,-2.8c2.2,-0.7 0.7,-5.1 2.6,-6.3c8.2,-5 1,-5.1 8.5,-6c4.3,-0.5 -3.5,-4.4 10.6,-0.9c0.5,0.1 5.2,0.2 6,-0.1c5.2,-2.2 5.8,1.6 7.7,2.1c4.7,1.3 3.4,3 4.9,4.8c1.7,2.1 0.2,-3.5 3.1,3c1.3,2.8 1.4,-1.3 2.9,3.1c0.3,0.8 13.9,-3.9 8.7,0.5c-0.5,0.3 -0.7,0.1 -0.9,0.6c-0.3,0.6 3.6,1.8 4.2,2.9c0.3,0.6 -4.3,2.6 -4.7,4c-0.4,1.3 -1.3,0.4 -2,5.5c-0.1,0.8 -1.7,0.5 -2.3,1.1c-0.5,0.5 -0.7,1.5 -0.1,1.9c4.5,2.2 -3.7,-0.3 3.4,5.8c2.7,2.3 -7.8,3.9 5.8,7.9c3.1,0.9 -1.3,5.7 -2.3,6.7c-0.1,0.1 -0.3,0.3 -0.5,0.5c-0.4,0.4 -1.2,1.1 -1.7,1.3c-1.4,0.5 -2.9,0.4 -4.3,0.9c-0.2,0.1 0,0.4 0,0.6c0,0.4 0.3,1.9 -0.1,1.9c-2.2,-0.2 -1.9,6.9 -8.5,1.9c-4.7,-3.6 1.8,6.2 -11.7,2.9c-1,-0.3 -4,-0.1 -4.2,1.2c-0.1,1.1 -0.9,2 -1.1,3.1c-0.1,0.9 0.4,14.7 0.5,15c0.2,1.6 0.6,2.6 0,4.7c-0.1,0.3 0.4,0.8 0.5,1c0.2,0.6 0.4,1.2 0.8,1.7c0.5,0.5 10.7,4.5 10.5,4.6c-4.1,1.7 -9.2,1.2 -13.3,0c-0.9,-0.2 -13.6,0.3 -14.7,-0.7c-0.6,-0.5 3.2,-3.9 3.2,-3.9l0,0z" fill="url(#SVGID_44_)" clip-rule="evenodd" fill-rule="evenodd"/>
   <path id="svg_57" d="m62.5,741.2c4,2.1 6.7,-6.1 6.9,-9c0.2,-2.7 2.3,-24.8 -2.6,-20.7c-0.7,0.6 -7.7,-1.6 -8.6,-2.2c-0.7,-0.5 -0.3,-0.4 -0.9,-0.3c-1,0.1 -1.9,0.7 -2.9,0.8c-3.1,0.3 -5,-3.7 -5.4,-4.2c-0.8,-1 -2,1.6 -3.7,-1.4c-0.1,-0.2 -4.2,1 -4.7,0c-0.5,-0.9 2,-0.9 2.3,-1.9c1.4,-4 0.7,0.2 1.8,-2.1c3.5,-6.9 6.3,1.8 4.1,-7.4c-0.1,-0.5 0.3,-0.8 -0.1,-0.9c-5.7,-1.3 -8.7,-2.1 -8.9,-8.4c0,-1.7 0.7,-3.9 -0.5,-5.2c-2.2,-2.4 1.9,-5.1 3.5,-7.6c2.4,-3.4 2.7,-1 7.7,-2.8c2.2,-0.7 0.7,-5.1 2.6,-6.3c8.1,-5 1,-5.1 8.5,-6c4.3,-0.5 -3.6,-4.5 10.6,-0.9c0.5,0.1 5.2,0.2 6,-0.2c5.2,-2.2 5.8,1.6 7.7,2.2c4.7,1.3 3.4,3 5,4.8c1.7,2 0.2,-3.5 3.1,3c1.3,2.8 1.4,-1.3 2.9,3.1c0.3,0.8 13.9,-3.9 8.7,0.5c-0.4,0.4 -0.6,0.1 -0.9,0.6c-0.3,0.5 3.6,1.8 4.2,2.9c0.3,0.6 -4.2,2.6 -4.7,4c-0.4,1.2 -1.3,0.4 -2,5.5c-0.1,0.8 -1.7,0.5 -2.3,1.1c-0.5,0.5 -0.7,1.5 0,1.9c4.5,2.3 -3.7,-0.3 3.4,5.8c2.7,2.3 -7.8,3.9 5.8,7.9c3.1,0.9 -1.3,5.7 -2.3,6.8c-0.2,0.1 -0.3,0.3 -0.5,0.5c-0.4,0.4 -1.2,1.1 -1.7,1.3c-1.4,0.5 -2.9,0.4 -4.3,0.9c-0.2,0.1 0,0.4 0,0.6c0,0.4 0.3,1.9 -0.1,1.9c-2.2,-0.2 -1.9,6.9 -8.5,1.9c-4.7,-3.6 1.8,6.2 -11.7,2.9c-1,-0.3 -4,-0.1 -4.2,1.2c-0.2,1 -0.9,2 -1.1,3.1c-0.2,0.9 0.4,14.7 0.5,15c0.2,1.6 0.6,2.6 0,4.6c-0.1,0.3 0.4,0.8 0.5,1.1c0.2,0.6 0.3,1.2 0.8,1.7c0.5,0.6 10.7,4.5 10.5,4.6c-4.1,1.7 -9.2,1.2 -13.3,0.1c-0.8,-0.2 -13.5,0.3 -14.6,-0.7c-0.4,-0.8 3.4,-4.1 3.4,-4.1l0,0z" fill="url(#SVGID_45_)" clip-rule="evenodd" fill-rule="evenodd"/>
   <path id="svg_58" d="m497.6,753.4c24.2,22.8 338.9,30.4 507.8,17.5c0.7,0 8.3,-1.2 8.4,-1.4c0.5,-0.9 -2,-0.9 -2.3,-1.9c-1.4,-4 -0.7,0.2 -1.8,-2.1c-3.5,-6.9 -6.3,1.8 -4.1,-7.4c0.1,-0.5 -0.3,-0.8 0.1,-0.9c5.7,-1.3 8.8,-2.1 8.9,-8.4c0,-1.7 -0.7,-3.9 0.5,-5.2c2.2,-2.5 -1.9,-5.2 -3.5,-7.6c-2.4,-3.4 -2.7,-1 -7.7,-2.8c-2.1,-0.7 -0.7,-5.1 -2.6,-6.3c-8.1,-5 -1,-5.1 -8.5,-6c-4.3,-0.5 3.6,-4.5 -10.6,-0.9c-0.5,0.1 -5.2,0.2 -6.1,-0.2c-5.2,-2.2 -5.8,1.6 -7.7,2.2c-4.7,1.3 -3.4,3 -5,4.8c-1.6,1.9 -0.4,-2.7 -2.6,1.8c-1.1,-1 -1.8,-2.2 -2.5,-4.6l-1.3,-1c0,-0.2 -0.1,-1.5 -0.1,-1.7c-3.5,-1 1.5,-2.8 -5.9,-4.6l-0.1,-0.8c0,-1.5 -2.1,-0.7 -2,0c-1.9,0 -0.5,-1 -0.9,-2.9l-0.2,-0.2c-0.6,0.6 -0.8,1.5 -1.4,2.1c-6,5.5 0.7,-0.6 -2.8,3.9c-0.2,0 -0.4,0 -0.6,0c0.2,-1.9 -5,-8.5 -5,-1.7c-1.6,0 -0.8,-1.6 -1.9,-1.9c-1.3,1.3 -2.3,4.2 -2.8,6.9c-1,0.2 -2.1,0.5 -3.5,0.8c-0.5,0.1 -5.2,0.2 -6,-0.2c-5.2,-2.2 -5.8,1.6 -7.7,2.1c-4.6,1.3 -3.5,2.9 -4.8,4.7c-0.7,-0.2 -1.6,-0.4 -2.7,-0.7c-2.7,-0.7 0.9,-3.8 -5.4,-4c-14.7,-0.4 1.4,4.8 -8.3,4.8l-2.8,-0.8c0.2,-5.1 -4.7,-0.4 -7.3,-2.8c-7.1,-6.4 -2.8,3.9 -7.5,6.5c-0.2,0.1 -0.5,0.2 -0.7,0.3c-2.7,-1.7 -3.8,-2.5 -4.9,-6.3l-1.3,-1c0,-0.2 -0.1,-1.5 -0.1,-1.7c-3.5,-1 1.5,-2.8 -5.9,-4.6l-0.1,-0.7c0,-1.5 -2.1,-0.7 -2,0c-1.9,0 -0.5,-1 -0.8,-2.9l-0.2,-0.2c-0.6,0.6 -0.8,1.5 -1.4,2.1c-5.6,5.1 -0.1,0.1 -2.2,3.2c-0.8,-0.5 -1.5,-1 -2,-1.5c-0.3,-0.5 -0.6,-0.9 -1,-1.3c-0.5,-0.7 -0.8,-1.7 -1.2,-2.9l-1.3,-1c0,-0.2 -0.1,-1.5 -0.1,-1.7c-3.6,-0.9 1.5,-2.8 -5.9,-4.6l-0.1,-0.8c0,-1.5 -2.1,-0.7 -2,0c-2,0 -0.6,-1 -0.9,-2.9l-0.2,-0.2c-0.6,0.6 -0.8,1.5 -1.4,2.1c-6,5.5 0.7,-0.6 -2.8,3.9c-0.2,-0.1 -0.4,0 -0.7,0c0.2,-1.9 -5,-8.5 -5,-1.8c-1.6,0 -0.8,-1.6 -1.9,-1.9c-0.6,0.7 -1.2,1.7 -1.7,2.9c-0.6,-1.6 -0.1,-4.3 -1.6,-5.2c-8.1,-5 -1,-5.2 -8.5,-6c-4.3,-0.5 3.6,-4.5 -10.6,-0.9c-0.5,0.1 -5.2,0.2 -6,-0.2c-5.2,-2.2 -5.8,1.6 -7.7,2.1c-4.7,1.3 -3.4,3 -4.9,4.8c-1.7,2 -0.2,-3.5 -3.1,3c-1.3,2.9 -1.4,-1.3 -2.9,3.1c-0.3,0.8 -13.9,-3.8 -8.7,0.5c0.4,0.3 0.6,0.1 0.9,0.6c0.3,0.5 -3.6,1.8 -4.2,2.9c-0.3,0.6 4.3,2.6 4.7,4c0.4,1.3 1.3,0.5 2,5.5c0.1,0.8 1.7,0.4 2.3,1c0.5,0.6 0.7,1.4 0.1,1.7c-3.3,1.6 0.2,1.3 -0.5,2.3l-0.1,0c-4.3,0 3.5,-4.3 -10.6,-0.7c-0.5,0.1 -5.2,0.3 -6,-0.1c-0.3,-0.1 -0.6,-0.2 -0.8,-0.3c-1.8,-1 1.6,-2.7 -5.1,-4.2l-0.1,-0.8c0,-1.5 -2.1,-0.7 -2,0c-1.9,0 -0.5,-1 -0.8,-2.9l-0.2,-0.2c-0.6,0.6 -0.8,1.5 -1.4,2.1c-6,5.5 0.7,-0.5 -2.8,3.9c-0.2,0 -0.4,0 -0.7,0c0.2,-1.9 -5,-8.7 -5,-1.7l-0.2,0c-1.3,0 -0.7,-1.6 -1.7,-2c-0.3,0.4 -0.7,0.9 -1,1.6c-0.4,-0.1 -0.9,-0.2 -1.4,-0.4c-2.2,-0.7 -0.7,-5.1 -2.6,-6.3c-8.2,-5 -1.1,-5.2 -8.5,-6c-4.3,-0.5 3.6,-4.5 -10.6,-0.9c-0.5,0.1 -5.2,0.2 -6,-0.2c-5.2,-2.2 -5.8,1.6 -7.7,2.1c-4.7,1.3 -3.4,3 -4.9,4.8c-1.7,2.1 -0.2,-3.5 -3.1,3c-1.3,2.9 -1.4,-1.3 -2.9,3.1c-0.3,0.8 -13.9,-3.9 -8.7,0.5c0.4,0.3 0.7,0.1 0.9,0.6c0.3,0.6 -3.6,1.8 -4.2,2.9c-0.3,0.6 4.3,2.6 4.7,4c0.4,1.3 1.3,0.5 2,5.5c0,0.2 0.2,0.4 0.4,0.5c-0.9,-0.2 -2,-0.5 -3.3,-0.8c-2.7,-0.7 1,-3.8 -5.4,-4c-14.7,-0.4 1.4,4.7 -8.3,4.7l-2.8,-0.8c0.2,-5.1 -4.7,-0.4 -7.3,-2.8c-7.1,-6.4 -2.8,3.9 -7.5,6.5c-3.8,2.1 -6.1,1.7 -7.4,1.5c0,-4.1 4.2,-2.3 -6.1,-5c-2.7,-0.7 1,-3.8 -5.4,-4c-14.7,-0.4 1.4,4.8 -8.3,4.8l-2.8,-0.8c0.2,-5.1 -4.7,-0.4 -7.3,-2.8c-7.1,-6.4 -2.8,3.9 -7.5,6.5c-0.3,0.1 -0.6,0.3 -0.8,0.4c-1,-0.2 -2.7,-0.6 -5.1,-1.3c-2.7,-0.7 1,-3.8 -5.4,-4c-14.7,-0.4 1.4,4.8 -8.3,4.8l-2.8,-0.8c0.1,-2.9 -1.5,-2.7 -3.3,-2.3c-3.4,-2.2 -4.7,-2.7 -5.8,-6.9l-1.3,-1c0,-0.2 -0.1,-1.5 -0.1,-1.7c-3.6,-0.9 1.5,-2.8 -5.9,-4.6l-0.1,-0.8c0,-1.5 -2.1,-0.7 -2,0c-2,0 -0.6,-1 -0.9,-2.9l-0.2,-0.2c-0.6,0.6 -0.8,1.5 -1.4,2.1c-6,5.5 0.7,-0.6 -2.8,3.8c-0.2,0 -0.4,0 -0.6,0c0.2,-2 -5,-8.5 -5,-1.8c-1.6,0 -0.8,-1.6 -1.9,-1.9c-1.9,2 -3.3,7.4 -3.3,10.7c-2.8,0 -0.6,-2.4 -3.6,-2.4c0,0.8 0.8,2.6 0.8,3.4c-0.2,4.6 2.6,1 -2.4,1c0,0 -0.5,1.3 -1,2.8c-10.6,0.2 3.1,4.8 -6,4.8l-2.8,-0.8c0.1,-5.1 -4.7,-0.4 -7.3,-2.8c-7.1,-6.4 -2.8,3.8 -7.5,6.4c-8.7,4.8 -9,-3.3 -9.6,6.4c-1.5,0.6 -17.1,3.1 -16.3,3.9l0,0zm192.5,-17.2c-0.2,-0.1 -0.6,-0.1 -0.9,-0.2c0.3,0 0.7,0.1 0.9,0.2l0,0zm-227.5,14.1c0.3,-0.5 0.3,-0.2 0.3,-0.7c-3.8,-3.5 -1.1,1.5 -4.6,-4c-0.8,-1.3 -0.2,-4.1 0.4,-6.1c-0.4,0.2 -0.9,0.4 -1.5,0.6l-0.9,0.8c-0.3,3.8 -3.8,-1.8 -8.1,5.4c-0.6,1.1 -18,-0.1 -20.4,-3.8c-0.6,-0.9 -6.8,1.5 -3.6,-3.1c0.4,-0.6 0.3,-0.3 0.3,-0.8c-4.6,-4.3 -1.4,1.9 -5.6,-4.9c-1.6,-2.6 1.5,-10.4 1.6,-10.5c6.1,0 2.7,4.4 2.9,-1.2c0,-1 -0.9,-3.2 -0.9,-4.2c3.7,0 1,2.9 4.5,2.9c0,-4.1 1.7,-10.7 4,-13.2c1.3,0.5 0.3,2.4 2.3,2.4c0,-8.2 6.4,-0.2 6.2,2.1c0.3,0 0.5,0 0.8,0c4.3,-5.4 -3.9,2 3.4,-4.7c0.8,-0.7 1,-1.9 1.7,-2.6l0.2,0.3c0.4,2.3 -1.3,3.6 1,3.6c-0.1,-0.9 2.5,-1.8 2.5,0l0.1,0.9c9.1,2.1 2.9,4.4 7.2,5.6c0.1,0.2 0.2,1.8 0.2,2.1l1.5,1.3c1.5,5.4 3.1,5.8 7.7,8.8c0.2,0.1 0.1,0.6 0.1,0.9c0.5,-1.5 1.2,-2.9 2,-3.7c1.1,0.3 0.3,1.9 1.9,1.9c0,-6.7 5.2,-0.2 5,1.7c0.2,0 0.4,0 0.6,0c3.5,-4.4 -3.2,1.6 2.8,-3.9c0.6,-0.6 0.8,-1.5 1.4,-2.1l0.2,0.2c0.3,1.9 -1.1,2.9 0.9,2.9c-0.1,-0.7 2,-1.5 2,0l0.1,0.7c7.4,1.8 2.3,3.6 5.9,4.6c0,0.2 0.1,1.5 0.1,1.7l1.3,1c1.2,4.4 2.6,4.8 6.3,7.2c0.2,0.1 0.1,0.6 0.1,0.8c0,0 5.2,5.5 -1.7,6.8c-3,0.6 -0.6,1.4 -5.6,3.1l-0.8,0.6c-0.2,3.1 -3.1,-1.5 -6.6,4.4c-0.5,0.9 -14.7,-0.1 -16.7,-3.1c-0.1,-1 -5.1,1.1 -2.5,-2.7l0,0zm-0.9,-13c1.6,0.7 0.4,2 0.2,-0.3c0,0.1 -0.1,0.2 -0.2,0.3l0,0z" fill="url(#SVGID_46_)" clip-rule="evenodd" fill-rule="evenodd"/>
   <path id="svg_59" d="m1090.5,757.2c6.2,0.5 68.1,3 69.6,1.3c-2.6,-2.8 -4.8,-1.7 -6.3,-4.5c0.7,-0.1 1.3,-0.1 1.5,0.1c1.9,3 16.1,4.1 16.7,3.1c3.3,-5.6 6.1,-1.6 6.5,-4c2.4,3.6 0.3,-0.7 4.4,3.1c0,0.5 0,0.2 -0.4,0.8c-3.2,4.7 3,2.2 3.6,3.1c2.4,3.7 19.8,5 20.4,3.8c4.3,-7.2 7.8,-1.6 8.1,-5.4l0.9,-0.8c6.1,-2.1 3.1,-3.1 6.9,-3.8c0.2,0 0.3,0 0.5,-0.1c0.6,0.3 0.3,-1.2 3.3,1.5c0,0.5 0,0.2 -0.4,0.8c-3.3,4.7 3,2.2 3.6,3.1c2.4,3.7 19.8,5 20.4,3.8c4.2,-7.2 7.8,-1.5 8,-5.4l0.9,-0.8c6.1,-2.1 3.1,-3.1 6.9,-3.7c6.8,-1.2 4,-5.8 2.7,-7.6c5.8,1.3 13.2,1.5 13.6,0.8c0.5,-0.9 1,-1.5 1.5,-2.1c0.3,-0.1 1,0.2 2.6,1.6c0,0.5 0,0.2 -0.4,0.8c-3.3,4.7 3,2.2 3.6,3.1c2.4,3.7 19.8,4.9 20.4,3.8c4.2,-7.2 7.8,-1.6 8,-5.4l0.9,-0.8c1.8,-0.6 2.8,-1.1 3.4,-1.5c1.2,0 2.7,-0.3 3,0.1c2.4,3.7 19.8,4.9 20.4,3.8c4.2,-7.2 7.8,-1.6 8,-5.4l0.9,-0.8c0.9,-0.3 1.6,-0.6 2.1,-0.9c5.8,1.3 13.1,1.5 13.5,0.8c4.3,-7.2 7.8,-1.5 8.1,-5.4l0.5,-0.4c0.2,0.1 0.3,0.3 0.5,0.5c0,0.5 0.1,0.2 -0.3,0.8c-3.3,4.7 3.2,2.2 3.8,3.1c1.8,2.8 11.5,4.2 17.5,4.2l0,-41.5c-1,0.6 -0.9,1.4 -1.6,2c-7.3,6.7 0.8,-0.7 -3.5,4.8c-0.3,-0.1 -0.6,0 -0.9,0c0.2,-2.4 -6.2,-10.4 -6.2,-2.2c-2,0 -1,-1.9 -2.4,-2.3c-2.1,2.2 -3.7,8 -3.9,12.1c-0.5,-0.9 -1,-2.1 -1.4,-3.6l-1.5,-1.2c0,-0.3 -0.1,-1.8 -0.1,-2.1c-4.4,-1.2 1.8,-3.5 -7.3,-5.6l-0.1,-0.9c0,-1.8 -2.6,-0.9 -2.4,0c-2.4,0 -0.7,-1.3 -1.1,-3.6l-0.2,-0.3c-0.7,0.7 -0.9,1.8 -1.7,2.5c-7.3,6.7 0.9,-0.7 -3.4,4.8c-0.3,-0.1 -0.5,0 -0.8,0c0.2,-2.3 -6.2,-10.4 -6.2,-2.2c-2,0 -1,-1.9 -2.3,-2.3c-1.6,1.7 -2.9,5.5 -3.6,9c-0.7,-0.3 -1.6,-0.5 -2.7,-0.8l-0.1,-0.9c0,-1.8 -2.6,-0.9 -2.5,0c-2.4,0 -0.7,-1.3 -1,-3.6l-0.2,-0.3c-0.7,0.7 -1,1.8 -1.7,2.6c-7.3,6.7 0.8,-0.7 -3.4,4.8c-0.3,-0.1 -0.5,0 -0.8,0c0.2,-2.4 -6.2,-10.4 -6.2,-2.2c-2,0 -1,-1.9 -2.3,-2.3c-2.3,2.4 -4,9.1 -4,13.2c-3.5,0 -0.8,-2.9 -4.5,-2.9c0,1 0.9,3.2 0.9,4.2c-0.2,4.7 2.1,2.4 -0.5,1.5c-0.1,-0.4 -0.3,-0.8 -0.4,-1.2l-1.5,-1.3c0,-0.3 -0.1,-1.8 -0.2,-2.1c-4.4,-1.2 1.8,-3.5 -7.2,-5.6l-0.2,-0.9c0,-1.8 -2.6,-0.9 -2.4,0c-2.4,0 -0.7,-1.3 -1,-3.6l-0.2,-0.3c-0.7,0.7 -1,1.8 -1.7,2.6c-7.3,6.7 0.8,-0.7 -3.4,4.8c-0.3,-0.1 -0.5,-0.1 -0.8,-0.1c0.2,-2.3 -6.2,-10.4 -6.2,-2.1c-2,0 -1,-1.9 -2.3,-2.4c-0.6,0.6 -1.2,1.6 -1.6,2.6l-0.3,-0.2c0,-0.3 -0.1,-1.8 -0.2,-2.1c-4.3,-1.2 1.8,-3.5 -7.2,-5.6l-0.1,-0.9c0,-1.8 -2.6,-0.9 -2.5,0c-2.4,0 -0.7,-1.3 -1,-3.6l-0.2,-0.3c-0.7,0.7 -1,1.9 -1.7,2.6c-7.3,6.7 0.9,-0.7 -3.4,4.8c-0.2,-0.1 -0.5,0 -0.8,0c0.2,-2.4 -6.2,-10.4 -6.2,-2.2c-2,0 -1,-1.9 -2.4,-2.3c-2.3,2.4 -4,9.1 -4,13.2c-3.5,0 -0.8,-2.9 -4.5,-2.9c0,1 0.9,3.2 0.9,4.2c-0.2,5.6 3.2,1.2 -2.9,1.2c-0.1,0 -0.7,1.6 -1.3,3.6c-0.6,-0.2 -1.2,-0.3 -2,-0.6l-0.1,-0.9c0,-1.8 -2.6,-0.9 -2.5,0c-2.4,0 -0.7,-1.3 -1,-3.6l-0.2,-0.3c-0.7,0.7 -1,1.8 -1.7,2.5c-1.1,1 -1.9,1.7 -2.3,2.1c-3.2,-2 -4.6,-3 -5.9,-7.6l-1.5,-1.2c0,-0.3 -0.1,-1.8 -0.2,-2.1c-4.3,-1.2 1.8,-3.5 -7.2,-5.6l-0.1,-0.9c0,-1.8 -2.6,-0.9 -2.5,0c-2.4,0 -0.7,-1.3 -1,-3.6l-0.2,-0.3c-0.7,0.7 -1,1.9 -1.7,2.6c-7.3,6.7 0.9,-0.7 -3.4,4.8c-0.2,-0.1 -0.5,0 -0.8,0c0.2,-2.4 -6.2,-10.4 -6.2,-2.2c-2,0 -1,-1.9 -2.4,-2.3c-2.3,2.4 -4,9.1 -4,13.2c-3.5,0 -0.8,-2.9 -4.5,-2.9c0,1 1,3.2 0.9,4.2c0,1.2 0.1,1.9 0.2,2.3c0.1,-0.1 0.1,-0.2 0.2,-0.3c-0.5,-0.4 -1.4,-0.8 -3.3,-0.8c-0.1,0.1 -1,2.5 -1.6,5.1c-1.1,-3 -5.9,-8.3 -5.9,-1c-2,0 -1,-1.9 -2.4,-2.3c-2.3,2.4 -4,9.1 -4,13.2c-3.5,0 -0.8,-2.9 -4.5,-2.9c0,0.5 0.2,1.2 0.4,1.9c-0.4,-0.7 -0.8,-1.6 -1.1,-2.9l-1.3,-1c0,-0.2 -0.1,-1.5 -0.1,-1.7c-3.5,-1 1.5,-2.8 -5.9,-4.6l-0.1,-0.8c0,-1.5 -2.1,-0.7 -2,0c-1.9,0 -0.5,-1 -0.8,-2.9l-0.2,-0.2c-0.6,0.6 -0.8,1.5 -1.4,2.1c-6,5.5 0.7,-0.6 -2.8,3.9c-0.2,0 -0.4,0 -0.6,0c0.2,-1.9 -5,-8.5 -5,-1.7c-1.6,0 -0.8,-1.6 -1.9,-1.9c-1.9,2 -3.2,7.4 -3.2,10.7c-2.8,0 -0.7,-2.4 -3.7,-2.4c0,0.8 0.8,2.6 0.8,3.4c-0.2,4.6 2.6,1 -2.4,1c0,0.1 -1.1,2.8 -1.5,5.3c-0.5,-0.1 -0.9,-0.2 -1.5,-0.4c-2.7,-0.7 0.9,-3.8 -5.4,-4c-14.7,-0.4 1.4,4.8 -8.3,4.8l-2.8,-0.8c0.2,-5.1 -4.7,-0.4 -7.3,-2.8c-7.1,-6.4 -2.8,3.9 -7.5,6.4c-8.7,4.8 -9,-3.3 -9.6,6.4c-1.1,0.5 -14.8,4 -15.9,3.9l0,0zm-49.3,7.3c0.3,-0.5 0.3,-0.2 0.3,-0.7c-3.8,-3.5 -1.1,1.5 -4.6,-4.1c-0.8,-1.2 -0.2,-4.1 0.4,-6.1c-0.4,0.2 -0.9,0.3 -1.5,0.6l-0.9,0.8c-0.3,3.8 -3.8,-1.8 -8.1,5.4c-0.6,1.1 -18.1,-0.1 -20.4,-3.8c-0.6,-0.9 -6.8,1.5 -3.6,-3.1c0.4,-0.6 0.3,-0.3 0.4,-0.8c-4.6,-4.3 -1.4,1.9 -5.7,-5c-1.6,-2.6 1.5,-10.4 1.6,-10.5c6.1,0 2.7,4.4 2.9,-1.2c0.1,-0.9 -0.9,-3.2 -0.9,-4.2c3.7,0 1,2.9 4.5,2.9c0,-4.1 1.7,-10.7 4,-13.2c1.4,0.4 0.4,2.3 2.4,2.3c0,-8.2 6.4,-0.2 6.2,2.2c0.3,0 0.5,0 0.8,0c4.3,-5.4 -3.9,2 3.4,-4.8c0.8,-0.7 1,-1.8 1.7,-2.5l0.2,0.3c0.4,2.3 -1.3,3.6 1,3.6c-0.1,-0.9 2.5,-1.8 2.5,0l0.1,0.9c9.1,2.2 2.9,4.4 7.2,5.6c0.1,0.3 0.2,1.8 0.2,2.1l1.5,1.2c1.5,5.4 3.1,5.8 7.7,8.8c0.2,0.1 0.1,0.6 0.1,0.9c0.5,-1.5 1.2,-2.9 2,-3.7c1.1,0.3 0.3,1.9 1.9,1.9c0,-6.7 5.2,-0.2 5,1.7c0.2,0 0.4,0 0.6,0c3.5,-4.4 -3.2,1.6 2.8,-3.9c0.6,-0.6 0.8,-1.5 1.4,-2.1l0.2,0.2c0.3,1.9 -1.1,2.9 0.9,2.9c-0.1,-0.7 2,-1.5 2,0l0.1,0.8c7.4,1.7 2.3,3.6 5.9,4.6c0,0.2 0.1,1.5 0.1,1.7l1.3,1c1.2,4.4 2.6,4.7 6.3,7.1c0.2,0.1 0.1,0.6 0.1,0.8c0,0 5.2,5.5 -1.7,6.8c-3,0.6 -0.6,1.4 -5.6,3.1l-0.7,0.6c-0.2,3.1 -3.1,-1.5 -6.6,4.4c-0.6,0.9 -14.7,-0.1 -16.7,-3.1c-0.2,-0.5 -5.3,1.5 -2.7,-2.4l0,0zm-0.8,-12.9c1.6,0.7 0.4,2 0.2,-0.2c-0.1,0 -0.1,0.1 -0.2,0.2l0,0z" fill="url(#SVGID_47_)" clip-rule="evenodd" fill-rule="evenodd"/>
   <path id="svg_60" d="m1261,728.9c4.1,2.1 6.7,-6.1 6.9,-8.9c0.2,-2.8 2.3,-24.8 -2.5,-20.8c-0.7,0.6 -7.7,-1.6 -8.6,-2.2c-0.7,-0.5 -0.3,-0.3 -0.8,-0.3c-1,0.1 -2,0.7 -2.9,0.8c-3.1,0.3 -5,-3.7 -5.4,-4.2c-0.8,-1.1 -2,1.6 -3.7,-1.4c-0.1,-0.2 -4.2,1 -4.7,0c-0.5,-1 2,-0.9 2.3,-2c1.4,-3.9 0.7,0.2 1.9,-2.1c3.4,-6.9 6.3,1.8 4.1,-7.4c-0.1,-0.5 0.3,-0.8 -0.1,-0.9c-5.7,-1.3 -8.7,-2.1 -8.9,-8.3c0,-1.7 0.7,-4 -0.5,-5.2c-2.2,-2.5 1.9,-5.2 3.5,-7.6c2.4,-3.4 2.7,-1.1 7.7,-2.8c2.2,-0.7 0.7,-5.1 2.6,-6.3c8.1,-5 1,-5.1 8.5,-6c4.3,-0.5 -3.6,-4.4 10.6,-0.9c0.5,0.1 5.2,0.2 6,-0.1c5.2,-2.2 5.8,1.6 7.7,2.1c4.7,1.3 3.4,3 4.9,4.8c1.7,2.1 0.2,-3.5 3.1,3c1.3,2.8 1.4,-1.3 2.9,3.1c0.3,0.8 13.9,-3.9 8.7,0.5c-0.4,0.3 -0.6,0.1 -0.9,0.6c-0.3,0.6 3.6,1.8 4.2,2.9c0.3,0.6 -4.3,2.6 -4.7,4c-0.4,1.3 -1.3,0.4 -2,5.5c-0.1,0.8 -1.7,0.5 -2.3,1.1c-0.5,0.5 -0.7,1.5 0,1.9c4.5,2.2 -3.7,-0.3 3.4,5.8c2.7,2.3 -7.8,3.9 5.8,7.9c3.1,0.9 -1.3,5.7 -2.3,6.7c-0.2,0.1 -0.3,0.3 -0.5,0.5c-0.4,0.4 -1.2,1.1 -1.7,1.3c-1.4,0.5 -2.9,0.4 -4.3,0.9c-0.2,0.1 0,0.4 0,0.6c0,0.4 0.3,1.9 -0.1,1.9c-2.2,-0.2 -1.9,6.9 -8.5,1.9c-4.8,-3.6 1.7,6.2 -11.7,2.9c-1,-0.3 -4,-0.1 -4.2,1.2c-0.2,1.1 -0.9,2 -1.1,3.1c-0.2,0.9 0.4,14.7 0.5,15c0.2,1.6 0.6,2.6 0,4.7c-0.1,0.3 0.4,0.8 0.5,1c0.2,0.6 0.3,1.2 0.8,1.7c0.5,0.5 10.7,4.5 10.5,4.6c-4.1,1.7 -9.2,1.2 -13.3,0c-0.8,-0.2 -13.5,0.3 -14.6,-0.7c-0.6,-0.6 3.2,-3.9 3.2,-3.9l0,0z" fill="url(#SVGID_48_)" clip-rule="evenodd" fill-rule="evenodd"/>
  </g>
 </g>
</svg>