<svg xmlns="http://www.w3.org/2000/svg" width="1440" height="900"><path d="M824,542L804,348L631,353Z" fill="#fb6b4b" stroke="#fb6b4b" stroke-width="1.51"/><path d="M631,353L602,546L824,542Z" fill="#fa6a4a" stroke="#fa6a4a" stroke-width="1.51"/><path d="M631,353L418,543L602,546Z" fill="#fb7454" stroke="#fb7454" stroke-width="1.51"/><path d="M602,546L620,754L824,542Z" fill="#f75e41" stroke="#f75e41" stroke-width="1.51"/><path d="M418,543L620,754L602,546Z" fill="#f8694b" stroke="#f8694b" stroke-width="1.51"/><path d="M804,348L818,146L631,353Z" fill="#fb7857" stroke="#fb7857" stroke-width="1.51"/><path d="M631,353L378,370L418,543Z" fill="#fc7f5e" stroke="#fc7f5e" stroke-width="1.51"/><path d="M1044,324L818,146L804,348Z" fill="#f96f50" stroke="#f96f50" stroke-width="1.51"/><path d="M824,542L1044,324L804,348Z" fill="#f86244" stroke="#f86244" stroke-width="1.51"/><path d="M620,754L857,757L824,542Z" fill="#f35038" stroke="#f35038" stroke-width="1.51"/><path d="M857,757L1041,567L824,542Z" fill="#f34a33" stroke="#f34a33" stroke-width="1.51"/><path d="M1041,567L1044,324L824,542Z" fill="#f5543a" stroke="#f5543a" stroke-width="1.51"/><path d="M394,121L378,370L631,353Z" fill="#fc8c6c" stroke="#fc8c6c" stroke-width="1.51"/><path d="M818,146L598,105L631,353Z" fill="#fc8563" stroke="#fc8563" stroke-width="1.51"/><path d="M857,757L1025,762L1041,567Z" fill="#ee3b2c" stroke="#ee3b2c" stroke-width="1.51"/><path d="M835,995L1025,762L857,757Z" fill="#e3392b" stroke="#e3392b" stroke-width="1.51"/><path d="M818,146L841,-105L598,105Z" fill="#fd8e6f" stroke="#fd8e6f" stroke-width="1.51"/><path d="M1044,324L1021,141L818,146Z" fill="#f87053" stroke="#f87053" stroke-width="1.51"/><path d="M598,105L394,121L631,353Z" fill="#fc8f6f" stroke="#fc8f6f" stroke-width="1.51"/><path d="M620,754L835,995L857,757Z" fill="#e74632" stroke="#e74632" stroke-width="1.51"/><path d="M418,543L379,777L620,754Z" fill="#f5684b" stroke="#f5684b" stroke-width="1.51"/><path d="M177,530L379,777L418,543Z" fill="#fa7a5c" stroke="#fa7a5c" stroke-width="1.51"/><path d="M1041,567L1244,548L1044,324Z" fill="#ed4b36" stroke="#ed4b36" stroke-width="1.51"/><path d="M1044,324L1261,134L1021,141Z" fill="#f0694e" stroke="#f0694e" stroke-width="1.51"/><path d="M1238,790L1244,548L1041,567Z" fill="#e43629" stroke="#e43629" stroke-width="1.51"/><path d="M378,370L177,530L418,543Z" fill="#fc8566" stroke="#fc8566" stroke-width="1.51"/><path d="M152,339L177,530L378,370Z" fill="#fe9373" stroke="#fe9373" stroke-width="1.51"/><path d="M638,1020L835,995L620,754Z" fill="#e04834" stroke="#e04834" stroke-width="1.51"/><path d="M1025,762L1238,790L1041,567Z" fill="#e53327" stroke="#e53327" stroke-width="1.51"/><path d="M400,1007L638,1020L620,754Z" fill="#e1553e" stroke="#e1553e" stroke-width="1.51"/><path d="M1021,141L841,-105L818,146Z" fill="#fc8465" stroke="#fc8465" stroke-width="1.51"/><path d="M598,105L399,-86L394,121Z" fill="#fda284" stroke="#fda284" stroke-width="1.51"/><path d="M394,121L152,339L378,370Z" fill="#fd9979" stroke="#fd9979" stroke-width="1.51"/><path d="M1244,548L1294,363L1044,324Z" fill="#e84f39" stroke="#e84f39" stroke-width="1.51"/><path d="M1021,141L1060,-102L841,-105Z" fill="#fc8669" stroke="#fc8669" stroke-width="1.51"/><path d="M841,-105L586,-122L598,105Z" fill="#ff9c7d" stroke="#ff9c7d" stroke-width="1.51"/><path d="M394,121L191,97L152,339Z" fill="#fda687" stroke="#fda687" stroke-width="1.51"/><path d="M1244,548L1464,566L1294,363Z" fill="#de412f" stroke="#de412f" stroke-width="1.51"/><path d="M1049,1002L1238,790L1025,762Z" fill="#d92723" stroke="#d92723" stroke-width="1.51"/><path d="M1294,363L1261,134L1044,324Z" fill="#e95e45" stroke="#e95e45" stroke-width="1.51"/><path d="M586,-122L399,-86L598,105Z" fill="#fea688" stroke="#fea688" stroke-width="1.51"/><path d="M177,530L185,800L379,777Z" fill="#f77a5e" stroke="#f77a5e" stroke-width="1.51"/><path d="M379,777L400,1007L620,754Z" fill="#e95f46" stroke="#e95f46" stroke-width="1.51"/><path d="M-40,532L185,800L177,530Z" fill="#fd8b6e" stroke="#fd8b6e" stroke-width="1.51"/><path d="M835,995L1049,1002L1025,762Z" fill="#db2e25" stroke="#db2e25" stroke-width="1.51"/><path d="M1037,1224L1049,1002L835,995Z" fill="#cd2922" stroke="#cd2922" stroke-width="1.51"/><path d="M199,1005L400,1007L379,777Z" fill="#e3674f" stroke="#e3674f" stroke-width="1.51"/><path d="M399,-86L191,97L394,121Z" fill="#fdad90" stroke="#fdad90" stroke-width="1.51"/><path d="M1261,134L1060,-102L1021,141Z" fill="#f2775c" stroke="#f2775c" stroke-width="1.51"/><path d="M841,-105L828,-327L586,-122Z" fill="#ffa388" stroke="#ffa388" stroke-width="1.51"/><path d="M638,1020L816,1235L835,995Z" fill="#d13e2d" stroke="#d13e2d" stroke-width="1.51"/><path d="M400,1007L621,1191L638,1020Z" fill="#d4513b" stroke="#d4513b" stroke-width="1.51"/><path d="M1238,790L1464,566L1244,548Z" fill="#da3026" stroke="#da3026" stroke-width="1.51"/><path d="M1294,363L1468,352L1261,134Z" fill="#e05840" stroke="#e05840" stroke-width="1.51"/><path d="M1489,768L1464,566L1238,790Z" fill="#d12621" stroke="#d12621" stroke-width="1.51"/><path d="M1261,134L1298,-90L1060,-102Z" fill="#ed7a61" stroke="#ed7a61" stroke-width="1.51"/><path d="M1464,566L1468,352L1294,363Z" fill="#d94733" stroke="#d94733" stroke-width="1.51"/><path d="M400,1007L404,1216L621,1191Z" fill="#cd543f" stroke="#cd543f" stroke-width="1.51"/><path d="M185,800L199,1005L379,777Z" fill="#ea7057" stroke="#ea7057" stroke-width="1.51"/><path d="M-37,973L199,1005L185,800Z" fill="#e67760" stroke="#e67760" stroke-width="1.51"/><path d="M152,339L-40,532L177,530Z" fill="#ff987a" stroke="#ff987a" stroke-width="1.51"/><path d="M-69,354L-40,532L152,339Z" fill="#ffa286" stroke="#ffa286" stroke-width="1.51"/><path d="M1049,1002L1243,1020L1238,790Z" fill="#cd1e1e" stroke="#cd1e1e" stroke-width="1.51"/><path d="M1037,1224L1243,1020L1049,1002Z" fill="#c5201e" stroke="#c5201e" stroke-width="1.51"/><path d="M-56,147L-69,354L152,339Z" fill="#ffae93" stroke="#ffae93" stroke-width="1.51"/><path d="M399,-86L150,-84L191,97Z" fill="#fdb99e" stroke="#fdb99e" stroke-width="1.51"/><path d="M391,-333L150,-84L399,-86Z" fill="#ffc0a8" stroke="#ffc0a8" stroke-width="1.51"/><path d="M621,1191L816,1235L638,1020Z" fill="#c94230" stroke="#c94230" stroke-width="1.51"/><path d="M586,-122L391,-333L399,-86Z" fill="#ffb69d" stroke="#ffb69d" stroke-width="1.51"/><path d="M1039,-294L828,-327L841,-105Z" fill="#ff9d84" stroke="#ff9d84" stroke-width="1.51"/><path d="M828,-327L611,-329L586,-122Z" fill="#ffad93" stroke="#ffad93" stroke-width="1.51"/><path d="M1060,-102L1039,-294L841,-105Z" fill="#ff9279" stroke="#ff9279" stroke-width="1.51"/><path d="M1463,102L1298,-90L1261,134Z" fill="#e37057" stroke="#e37057" stroke-width="1.51"/><path d="M-56,147L152,339L191,97Z" fill="#fdaf94" stroke="#fdaf94" stroke-width="1.51"/><path d="M1285,-300L1039,-294L1060,-102Z" fill="#f79079" stroke="#f79079" stroke-width="1.51"/><path d="M1468,352L1463,102L1261,134Z" fill="#dc5f47" stroke="#dc5f47" stroke-width="1.51"/><path d="M199,1005L404,1216L400,1007Z" fill="#d6624b" stroke="#d6624b" stroke-width="1.51"/><path d="M621,1191L404,1216L816,1235Z" fill="#c14634" stroke="#c14634" stroke-width="1.51"/><path d="M1464,566L1709,357L1468,352Z" fill="#cf4431" stroke="#cf4431" stroke-width="1.51"/><path d="M1699,134L1504,-74L1463,102Z" fill="#d36953" stroke="#d36953" stroke-width="1.51"/><path d="M1460,972L1489,768L1238,790Z" fill="#c51b1c" stroke="#c51b1c" stroke-width="1.51"/><path d="M816,1235L1037,1224L835,995Z" fill="#c53025" stroke="#c53025" stroke-width="1.51"/><path d="M-35,-80L-56,147L191,97Z" fill="#fec1a8" stroke="#fec1a8" stroke-width="1.51"/><path d="M169,-346L391,-333L611,-329Z" fill="#ffc3ae" stroke="#ffc3ae" stroke-width="1.51"/><path d="M611,-329L391,-333L586,-122Z" fill="#ffb69e" stroke="#ffb69e" stroke-width="1.51"/><path d="M-40,532L-67,796L185,800Z" fill="#fa8a6f" stroke="#fa8a6f" stroke-width="1.51"/><path d="M199,1005L145,1248L404,1216Z" fill="#cc6650" stroke="#cc6650" stroke-width="1.51"/><path d="M-254,533L-67,796L-40,532Z" fill="#ff9a81" stroke="#ff9a81" stroke-width="1.51"/><path d="M1283,1210L1460,972L1243,1020Z" fill="#b71318" stroke="#b71318" stroke-width="1.51"/><path d="M1243,1020L1460,972L1238,790Z" fill="#c4171c" stroke="#c4171c" stroke-width="1.51"/><path d="M-67,796L-37,973L185,800Z" fill="#ee816a" stroke="#ee816a" stroke-width="1.51"/><path d="M-24,-309L-35,-80L150,-84Z" fill="#fed2c0" stroke="#fed2c0" stroke-width="1.51"/><path d="M150,-84L-35,-80L191,97Z" fill="#fdc2aa" stroke="#fdc2aa" stroke-width="1.51"/><path d="M1037,1224L1283,1210L1243,1020Z" fill="#b7181a" stroke="#b7181a" stroke-width="1.51"/><path d="M1298,-90L1285,-300L1060,-102Z" fill="#f08770" stroke="#f08770" stroke-width="1.51"/><path d="M1039,-294L1285,-300L828,-327Z" fill="#fe9780" stroke="#fe9780" stroke-width="1.51"/><path d="M1474,-293L1285,-300L1298,-90Z" fill="#e88773" stroke="#e88773" stroke-width="1.51"/><path d="M1699,134L1463,102L1468,352Z" fill="#d25c45" stroke="#d25c45" stroke-width="1.51"/><path d="M1463,102L1504,-74L1298,-90Z" fill="#de745d" stroke="#de745d" stroke-width="1.51"/><path d="M391,-333L169,-346L150,-84Z" fill="#ffcbb7" stroke="#ffcbb7" stroke-width="1.51"/><path d="M828,-327L169,-346L611,-329Z" fill="#ffb9a2" stroke="#ffb9a2" stroke-width="1.51"/><path d="M-67,796L-255,1010L-37,973Z" fill="#ea8773" stroke="#ea8773" stroke-width="1.51"/><path d="M-69,354L-254,533L-40,532Z" fill="#ffa68b" stroke="#ffa68b" stroke-width="1.51"/><path d="M-267,366L-254,533L-69,354Z" fill="#ffad94" stroke="#ffad94" stroke-width="1.51"/><path d="M-267,366L-69,354L-280,150Z" fill="#ffb9a1" stroke="#ffb9a1" stroke-width="1.51"/><path d="M-37,973L145,1248L199,1005Z" fill="#d9745d" stroke="#d9745d" stroke-width="1.51"/><path d="M404,1216L145,1248L816,1235Z" fill="#be513e" stroke="#be513e" stroke-width="1.51"/><path d="M-280,150L-69,354L-56,147Z" fill="#ffbca4" stroke="#ffbca4" stroke-width="1.51"/><path d="M1732,580L1709,357L1464,566Z" fill="#c3392a" stroke="#c3392a" stroke-width="1.51"/><path d="M1732,580L1464,566L1489,768Z" fill="#c82b22" stroke="#c82b22" stroke-width="1.51"/><path d="M1704,795L1732,580L1489,768Z" fill="#ba201e" stroke="#ba201e" stroke-width="1.51"/><path d="M1709,357L1699,134L1468,352Z" fill="#c7503c" stroke="#c7503c" stroke-width="1.51"/><path d="M1710,-82L1699,134L1928,144Z" fill="#b65e4d" stroke="#b65e4d" stroke-width="1.51"/><path d="M-254,533L-264,790L-67,796Z" fill="#fe977f" stroke="#fe977f" stroke-width="1.51"/><path d="M-37,973L-63,1214L145,1248Z" fill="#d17763" stroke="#d17763" stroke-width="1.51"/><path d="M-267,366L-264,790L-254,533Z" fill="#ffa48c" stroke="#ffa48c" stroke-width="1.51"/><path d="M1696,984L1489,768L1460,972Z" fill="#b61318" stroke="#b61318" stroke-width="1.51"/><path d="M1696,984L1704,795L1489,768Z" fill="#b01519" stroke="#b01519" stroke-width="1.51"/><path d="M-267,366L-280,150L-264,790Z" fill="#ffaf96" stroke="#ffaf96" stroke-width="1.51"/><path d="M-251,-88L-280,150L-56,147Z" fill="#ffccb8" stroke="#ffccb8" stroke-width="1.51"/><path d="M-251,-88L-56,147L-35,-80Z" fill="#fecfbc" stroke="#fecfbc" stroke-width="1.51"/><path d="M1504,-74L1474,-293L1298,-90Z" fill="#e1806a" stroke="#e1806a" stroke-width="1.51"/><path d="M1285,-300L1902,-331L828,-327Z" fill="#ea8c78" stroke="#ea8c78" stroke-width="1.51"/><path d="M1710,-82L1474,-293L1504,-74Z" fill="#d57b67" stroke="#d57b67" stroke-width="1.51"/><path d="M169,-346L-24,-309L150,-84Z" fill="#fed4c2" stroke="#fed4c2" stroke-width="1.51"/><path d="M1283,1210L1471,1214L1460,972Z" fill="#ab1116" stroke="#ab1116" stroke-width="1.51"/><path d="M1037,1224L1471,1214L1283,1210Z" fill="#a80f17" stroke="#a80f17" stroke-width="1.51"/><path d="M1686,1229L1471,1214L1037,1224Z" fill="#9e0c15" stroke="#9e0c15" stroke-width="1.51"/><path d="M-255,1010L-63,1214L-37,973Z" fill="#dd8370" stroke="#dd8370" stroke-width="1.51"/><path d="M1954,769L1924,585L1732,580Z" fill="#a9211e" stroke="#a9211e" stroke-width="1.51"/><path d="M1471,1214L1696,984L1460,972Z" fill="#a91016" stroke="#a91016" stroke-width="1.51"/><path d="M-24,-309L-251,-88L-35,-80Z" fill="#fedccc" stroke="#fedccc" stroke-width="1.51"/><path d="M-264,790L-255,1010L-67,796Z" fill="#f18d79" stroke="#f18d79" stroke-width="1.51"/><path d="M1699,134L1710,-82L1504,-74Z" fill="#c96b57" stroke="#c96b57" stroke-width="1.51"/><path d="M1928,144L1699,134L1709,357Z" fill="#b5513f" stroke="#b5513f" stroke-width="1.51"/><path d="M1732,580L1932,350L1709,357Z" fill="#b23b2c" stroke="#b23b2c" stroke-width="1.51"/><path d="M1954,769L1732,580L1704,795Z" fill="#a81b1b" stroke="#a81b1b" stroke-width="1.51"/><path d="M1924,585L1932,350L1732,580Z" fill="#ad3227" stroke="#ad3227" stroke-width="1.51"/><path d="M-63,1214L-254,1207L145,1248Z" fill="#c67767" stroke="#c67767" stroke-width="1.51"/><path d="M-255,1010L-254,1207L-63,1214Z" fill="#d58271" stroke="#d58271" stroke-width="1.51"/><path d="M-264,790L-254,1207L-255,1010Z" fill="#e58a78" stroke="#e58a78" stroke-width="1.51"/><path d="M-293,-300L-254,1207L-264,790Z" fill="#ffa48c" stroke="#ffa48c" stroke-width="1.51"/><path d="M1471,1214L1686,1229L1696,984Z" fill="#970b13" stroke="#970b13" stroke-width="1.51"/><path d="M1902,979L1954,769L1704,795Z" fill="#9b0e17" stroke="#9b0e17" stroke-width="1.51"/><path d="M816,1235L1686,1229L1037,1224Z" fill="#ac1519" stroke="#ac1519" stroke-width="1.51"/><path d="M145,1248L1686,1229L816,1235Z" fill="#b82d24" stroke="#b82d24" stroke-width="1.51"/><path d="M1932,350L1928,144L1709,357Z" fill="#b04838" stroke="#b04838" stroke-width="1.51"/><path d="M-24,-309L-293,-300L-251,-88Z" fill="#ffe4d8" stroke="#ffe4d8" stroke-width="1.51"/><path d="M-251,-88L-293,-300L-280,150Z" fill="#ffdbcd" stroke="#ffdbcd" stroke-width="1.51"/><path d="M-280,150L-293,-300L-264,790Z" fill="#ffc1ac" stroke="#ffc1ac" stroke-width="1.51"/><path d="M169,-346L-293,-300L-24,-309Z" fill="#ffe1d4" stroke="#ffe1d4" stroke-width="1.51"/><path d="M1474,-293L1732,-307L1285,-300Z" fill="#de8774" stroke="#de8774" stroke-width="1.51"/><path d="M828,-327L1902,-331L169,-346Z" fill="#ff9d85" stroke="#ff9d85" stroke-width="1.51"/><path d="M1710,-82L1732,-307L1474,-293Z" fill="#cd7d6d" stroke="#cd7d6d" stroke-width="1.51"/><path d="M1947,-86L1732,-307L1710,-82Z" fill="#b87163" stroke="#b87163" stroke-width="1.51"/><path d="M1924,585L1954,769L1932,350Z" fill="#ab2b23" stroke="#ab2b23" stroke-width="1.51"/><path d="M1932,350L1947,-86L1928,144Z" fill="#b15646" stroke="#b15646" stroke-width="1.51"/><path d="M1902,979L1704,795L1696,984Z" fill="#9b0b16" stroke="#9b0b16" stroke-width="1.51"/><path d="M1937,1194L1902,979L1696,984Z" fill="#8a0713" stroke="#8a0713" stroke-width="1.51"/><path d="M1928,144L1947,-86L1710,-82Z" fill="#b26353" stroke="#b26353" stroke-width="1.51"/><path d="M1954,769L1947,-86L1932,350Z" fill="#af4233" stroke="#af4233" stroke-width="1.51"/><path d="M1947,-86L1902,-331L1732,-307Z" fill="#b77569" stroke="#b77569" stroke-width="1.51"/><path d="M1732,-307L1902,-331L1285,-300Z" fill="#cf8172" stroke="#cf8172" stroke-width="1.51"/><path d="M1686,1229L1937,1194L1696,984Z" fill="#870612" stroke="#870612" stroke-width="1.51"/><path d="M1902,979L1937,1194L1954,769Z" fill="#900814" stroke="#900814" stroke-width="1.51"/></svg>