<?xml version="1.0" encoding="UTF-8" standalone="no"?>
<svg
   xmlns:dc="http://purl.org/dc/elements/1.1/"
   xmlns:cc="http://creativecommons.org/ns#"
   xmlns:rdf="http://www.w3.org/1999/02/22-rdf-syntax-ns#"
   xmlns:svg="http://www.w3.org/2000/svg"
   xmlns="http://www.w3.org/2000/svg"
   viewBox="0 0 1128.1121 1159.6573"
   height="1159.6573"
   width="1128.1121"
   xml:space="preserve"
   id="svg2"
   version="1.1"><metadata
     id="metadata8"><rdf:RDF><cc:Work
         rdf:about=""><dc:format>image/svg+xml</dc:format><dc:type
           rdf:resource="http://purl.org/dc/dcmitype/StillImage" /></cc:Work></rdf:RDF></metadata><defs
     id="defs6"><clipPath
       id="clipPath20"
       clipPathUnits="userSpaceOnUse"><path
         id="path18"
         d="M 0,869.743 H 846.084 V 0 H 0 Z" /></clipPath></defs><g
     transform="matrix(1.3333333,0,0,-1.3333333,0,1159.6573)"
     id="g10"><path
       id="path12"
       style="fill:#ededed;fill-opacity:1;fill-rule:nonzero;stroke:none"
       d="M 0,0 H 846.085 V 869.743 H 0 Z" /><g
       id="g14"><g
         clip-path="url(#clipPath20)"
         id="g16"><g
           transform="translate(258.0928,386.7832)"
           id="g22"><path
             id="path24"
             style="fill:#3e1d15;fill-opacity:1;fill-rule:nonzero;stroke:none"
             d="m 0,0 -95.066,-30.486 -37.943,-12.166 c 0.219,-0.895 0.349,-1.827 0.349,-2.789 0,-1.043 -0.15,-2.047 -0.406,-3.01 L -4.517,-92.467 Z" /></g><g
           transform="translate(132.2485,195.7383)"
           id="g26"><path
             id="path28"
             style="fill:#d74a4a;fill-opacity:1;fill-rule:nonzero;stroke:none"
             d="m 0,0 v -0.002 l 107.568,31.258 c -0.038,0.178 -0.058,0.363 -0.088,0.541 0.03,-0.178 0.049,-0.361 0.086,-0.537 z" /></g><g
           transform="translate(250.978,241.123)"
           id="g30"><path
             id="path32"
             style="fill:#3e1d15;fill-opacity:1;fill-rule:nonzero;stroke:none"
             d="m 0,0 2.517,51.533 -128.974,44.16 c -0.328,-0.779 -0.746,-1.511 -1.229,-2.193 l 4.141,-3.371 17.691,-14.4 70.767,-57.6 26.808,-21.822 C -6.2,-1.471 -3.268,-0.063 0,0" /></g><g
           transform="translate(259.8013,389.0098)"
           id="g34"><path
             id="path36"
             style="fill:#d74a4a;fill-opacity:1;fill-rule:nonzero;stroke:none"
             d="M 0,0 0.407,0.129 0.053,1.074 Z" /></g><g
           transform="translate(122.2808,333.3828)"
           id="g38"><path
             id="path40"
             style="fill:#d74a4a;fill-opacity:1;fill-rule:nonzero;stroke:none"
             d="m 0,0 4.139,-3.371 88.464,-72.004 26.8,-21.814 c -0.452,-0.641 -0.835,-1.331 -1.153,-2.057 0.319,0.726 0.704,1.416 1.157,2.057 L 92.602,-75.371 4.143,-3.371 0,0.002 C -1.653,-1.764 -3.843,-3.02 -6.315,-3.49 l 8.142,-67.078 -8.14,67.076 C -3.844,-3.021 -1.654,-1.766 0,0" /></g><g
           transform="translate(124.5996,345.6523)"
           id="g42"><path
             id="path44"
             style="fill:#d74a4a;fill-opacity:1;fill-rule:nonzero;stroke:none"
             d="M 0,0 31.212,10.01 -0.001,0.004 c 0,0 0,-0.002 0.001,-0.004" /></g><g
           transform="translate(124.4707,345.9453)"
           id="g46"><path
             id="path48"
             style="fill:#d74a4a;fill-opacity:1;fill-rule:nonzero;stroke:none"
             d="M 0,0 C -0.528,1.229 -1.255,2.352 -2.152,3.32 -1.256,2.352 -0.529,1.229 0,0" /></g><g
           transform="translate(261.1733,400.397)"
           id="g50"><path
             id="path52"
             style="fill:#d74a4a;fill-opacity:1;fill-rule:nonzero;stroke:none"
             d="M 0,0 H -0.002 C -0.574,-0.864 -1.029,-1.813 -1.354,-2.82 -1.028,-1.813 -0.573,-0.865 0,0" /></g><g
           transform="translate(454.1138,227.9414)"
           id="g54"><path
             id="path56"
             style="fill:#d74a4a;fill-opacity:1;fill-rule:nonzero;stroke:none"
             d="M 0,0 0.002,-0.004 C 1.115,1.668 2.652,3.033 4.454,3.947 2.653,3.035 1.115,1.674 0,0" /></g><g
           transform="translate(481.6958,458.4863)"
           id="g58"><path
             id="path60"
             style="fill:#d74a4a;fill-opacity:1;fill-rule:nonzero;stroke:none"
             d="m 0,0 -11.121,-3.566 11.122,3.563 c 0,0.001 0,0.002 -0.001,0.003" /></g><g
           transform="translate(466.3374,232.8652)"
           id="g62"><path
             id="path64"
             style="fill:#d74a4a;fill-opacity:1;fill-rule:nonzero;stroke:none"
             d="M 0,0 V 0.004 C -0.302,0.07 -0.609,0.111 -0.917,0.154 -0.609,0.109 -0.3,0.066 0,0" /></g><g
           transform="translate(317.6733,351.4199)"
           id="g66"><path
             id="path68"
             style="fill:#d74a4a;fill-opacity:1;fill-rule:nonzero;stroke:none"
             d="m 0,0 47.322,-42.828 59.073,-53.459 -59.074,53.463 z" /></g><g
           transform="translate(108.5698,351.7676)"
           id="g70"><path
             id="path72"
             style="fill:#d74a4a;fill-opacity:1;fill-rule:nonzero;stroke:none"
             d="M 0,0 C 0.435,0.219 0.887,0.402 1.35,0.566 0.887,0.404 0.435,0.219 0,0.002 Z" /></g><g
           transform="translate(433.6455,246.4648)"
           id="g74"><path
             id="path76"
             style="fill:#d74a4a;fill-opacity:1;fill-rule:nonzero;stroke:none"
             d="m 0,0 15.917,-14.406 3.722,-3.367 -3.718,3.371 z" /></g><g
           transform="translate(255.1504,293.7773)"
           id="g78"><path
             id="path80"
             style="fill:#d74a4a;fill-opacity:1;fill-rule:nonzero;stroke:none"
             d="M 0,0 35.359,-12.107 0,0.004 Z" /></g><g
           transform="translate(260.7705,387.6377)"
           id="g82"><path
             id="path84"
             style="fill:#d74a4a;fill-opacity:1;fill-rule:nonzero;stroke:none"
             d="m 0,0 v 0.003 l -1.052,-0.336 -1.122,-22.98 1.122,22.98 z" /></g><g
           transform="translate(282.54,394.623)"
           id="g86"><path
             id="path88"
             style="fill:#d74a4a;fill-opacity:1;fill-rule:nonzero;stroke:none"
             d="m 0,0 -0.003,-0.001 c 0.011,-0.214 0.031,-0.425 0.031,-0.64 0,-2.899 -1.073,-5.533 -2.823,-7.571 1.754,2.04 2.827,4.674 2.827,7.572 C 0.032,-0.424 0.008,-0.217 0,0" /></g><g
           transform="translate(453.0757,226.0078)"
           id="g90"><path
             id="path92"
             style="fill:#3e1d15;fill-opacity:1;fill-rule:nonzero;stroke:none"
             d="m 0,0 c 0.072,0.172 0.159,0.334 0.239,0.5 l -4.824,4.365 -16.913,15.309 -67.654,61.226 -85.664,77.526 c -2.007,-1.634 -4.565,-2.615 -7.353,-2.615 -2.827,0 -5.419,1.008 -7.438,2.682 l 40.508,-107.94 z" /></g><g
           transform="translate(304.7031,275.123)"
           id="g94"><path
             id="path96"
             style="fill:#d74a4a;fill-opacity:1;fill-rule:nonzero;stroke:none"
             d="M 0,0 9.046,-24.105 0.003,-0.002 Z" /></g><g
           transform="translate(320.6411,232.6543)"
           id="g98"><path
             id="path100"
             style="fill:#d74a4a;fill-opacity:1;fill-rule:nonzero;stroke:none"
             d="M 0,0 C 0.393,0.117 0.798,0.207 1.208,0.285 0.799,0.209 0.394,0.119 0,0" /></g><g
           transform="translate(471.939,213.1152)"
           id="g102"><path
             id="path104"
             style="fill:#d74a4a;fill-opacity:1;fill-rule:nonzero;stroke:none"
             d="M 0,0 C -0.253,-0.244 -0.518,-0.477 -0.79,-0.697 -0.518,-0.477 -0.253,-0.246 0,0" /></g><g
           transform="translate(312.3179,221.4824)"
           id="g106"><path
             id="path108"
             style="fill:#3e1d15;fill-opacity:1;fill-rule:nonzero;stroke:none"
             d="M 0,0 C 0,4.715 2.803,8.766 6.829,10.605 L -9.573,54.309 -57.249,70.635 -59.743,19.566 c 5.796,-0.677 10.296,-5.597 10.296,-11.576 0,-6.439 -5.221,-11.662 -11.662,-11.662 -3.305,0 -6.282,1.381 -8.404,3.59 l -8.146,-6.814 -17.496,-14.637 -68.686,-57.463 c 1.17,-1.818 1.856,-3.975 1.856,-6.297 0,-1.326 -0.231,-2.596 -0.639,-3.783 l 80.126,-40.903 40.634,-20.744 20.318,-10.373 1.27,-0.646 0.123,-0.063 0.354,1.953 1.015,5.614 2.031,11.222 16.248,89.787 7.684,42.463 C 2.964,-9.008 0,-4.852 0,0" /></g><g
           transform="translate(333.0273,228.8379)"
           id="g110"><path
             id="path112"
             style="fill:#d74a4a;fill-opacity:1;fill-rule:nonzero;stroke:none"
             d="m 0,0 c 1.633,-2.008 2.615,-4.566 2.615,-7.355 0,-1.219 -0.189,-2.393 -0.536,-3.499 H 2.083 C 2.426,-9.75 2.618,-8.576 2.618,-7.355 2.618,-4.564 1.635,-2.008 0,0" /></g><g
           transform="translate(258.4478,394.0205)"
           id="g114"><path
             id="path116"
             style="fill:#d74a4a;fill-opacity:1;fill-rule:nonzero;stroke:none"
             d="M 0,0 0.366,0.057 0,0.004 Z" /></g><g
           transform="translate(565.7573,128.7539)"
           id="g118"><path
             id="path120"
             style="fill:#d74a4a;fill-opacity:1;fill-rule:nonzero;stroke:none"
             d="M 0,0 C -0.344,-0.201 -0.679,-0.424 -1.007,-0.664 L -108.745,41.51 -1.005,-0.666 c 0.325,0.238 0.66,0.461 1.009,0.666 l -48.647,43.74 z" /></g><g
           transform="translate(233.6333,215.8125)"
           id="g122"><path
             id="path124"
             style="fill:#3e1d15;fill-opacity:1;fill-rule:nonzero;stroke:none"
             d="M 0,0 8.148,6.816 C 7.52,7.68 7.01,8.631 6.637,9.65 l -107.827,-31.334 5.621,-46.308 c 0.203,0.012 0.403,0.031 0.607,0.031 3.543,0 6.712,-1.586 8.85,-4.082 l 68.616,57.404 z" /></g><g
           transform="translate(455.5776,213.2383)"
           id="g126"><path
             id="path128"
             style="fill:#d74a4a;fill-opacity:1;fill-rule:nonzero;stroke:none"
             d="M 0,0 C -2.108,2.109 -3.414,5.025 -3.414,8.244 -3.414,5.023 -2.108,2.109 0,0" /></g><g
           transform="translate(16.3003,33.9902)"
           id="g130"><path
             id="path132"
             style="fill:#d74a4a;fill-opacity:1;fill-rule:nonzero;stroke:none"
             d="m 0,0 113.341,94.822 c -1.644,2.01 -2.632,4.578 -2.632,7.377 0,1.926 0.475,3.739 1.301,5.34 l -54.092,27.613 c -2.04,-3.39 -5.744,-5.666 -9.989,-5.666 -5.562,0 -10.206,3.895 -11.372,9.106 L -6.972,131.906 V 0 Z" /></g><g
           transform="translate(9.3281,834.4038)"
           id="g134"><path
             id="path136"
             style="fill:#d74a4a;fill-opacity:1;fill-rule:nonzero;stroke:none"
             d="m 0,0 v -666.89 l 43.289,6.648 c -0.027,0.323 -0.05,0.647 -0.05,0.975 0,6.441 5.221,11.662 11.662,11.662 0.685,0 1.353,-0.07 2.005,-0.184 l 1.954,7.932 5.457,22.149 10.914,44.298 18.606,75.518 c -0.672,1.473 -1.056,3.105 -1.056,4.83 0,3.742 1.771,7.066 4.513,9.201 l 21.594,87.644 10.913,44.298 3.086,12.523 c -4.462,1.637 -7.652,5.91 -7.652,10.939 0,6.441 5.221,11.663 11.661,11.663 6.442,0 11.663,-5.222 11.663,-11.663 0,-2.842 -1.019,-5.445 -2.71,-7.468 l 6.857,-6.206 67.654,-61.227 32.462,-29.378 c 2.138,2.432 5.264,3.975 8.757,3.975 5.668,0 10.387,-4.044 11.439,-9.405 l 53.967,17.307 86.888,27.863 43.444,13.931 14.567,4.671 c -0.22,0.895 -0.351,1.826 -0.351,2.789 0,6.44 5.221,11.662 11.663,11.662 6.441,0 11.661,-5.222 11.661,-11.662 0,-6.441 -5.22,-11.662 -11.661,-11.662 -0.162,0 -0.32,0.017 -0.481,0.024 l -0.778,-7.039 -20.021,-181.389 -3.349,-30.332 c 4.432,-1.653 7.593,-5.911 7.593,-10.918 0,-2.709 -0.932,-5.198 -2.484,-7.178 l 94.298,-84.787 c 1.347,0.543 2.815,0.849 4.356,0.849 6.441,0 11.662,-5.222 11.662,-11.662 0,-5.926 -4.421,-10.804 -10.14,-11.552 l 8.27,-73.163 h 231.307 l 0,800.414 z" /></g><g
           transform="translate(469.7202,69.5117)"
           id="g138"><path
             id="path140"
             style="fill:#3e1d15;fill-opacity:1;fill-rule:nonzero;stroke:none"
             d="m 0,0 32.97,-35.521 h 77.15 l -8.258,73.056 c -6.405,0.041 -11.587,5.244 -11.587,11.658 0,3.202 1.292,6.1 3.379,8.205 l -228.861,89.592 c -0.137,-0.287 -0.282,-0.57 -0.441,-0.844 l 11.499,-12.39 z" /></g><g
           transform="translate(500.5093,33.9902)"
           id="g142"><path
             id="path144"
             style="fill:#d74a4a;fill-opacity:1;fill-rule:nonzero;stroke:none"
             d="m 0,0 -31.961,34.436 -124.148,133.755 -11.247,12.116 c -2.136,-2.721 -5.446,-4.477 -9.173,-4.477 -1.022,0 -2.008,0.145 -2.951,0.393 l -7.644,-42.244 -16.248,-89.788 -2.03,-11.222 -1.016,-5.614 -0.508,-2.804 c 0.288,-0.27 -2.485,-1.094 -1.634,-0.551 l -0.635,0.326 -1.27,0.647 -20.316,10.373 -40.635,20.744 -80.022,40.849 c -1.924,-3.794 -5.853,-6.402 -10.4,-6.402 -3.065,0 -5.845,1.192 -7.926,3.125 L -481.719,0 Z" /></g><g
           transform="translate(129.1416,142.8965)"
           id="g146"><path
             id="path148"
             style="fill:#d74a4a;fill-opacity:1;fill-rule:nonzero;stroke:none"
             d="M 0,0 V 0 L -0.735,0.377 Z" /></g><g
           transform="translate(140.6826,482.104)"
           id="g150"><path
             id="path152"
             style="fill:#d74a4a;fill-opacity:1;fill-rule:nonzero;stroke:none"
             d="M 0,0 3.069,12.45 C 3.177,12.426 3.291,12.417 3.4,12.396 3.29,12.417 3.175,12.427 3.066,12.451 L -0.001,-0.001 -10.916,-44.3 l -9.436,-38.299 9.437,38.299 z" /></g><g
           transform="translate(130.6943,195.2832)"
           id="g154"><path
             id="path156"
             style="fill:#3e1d15;fill-opacity:1;fill-rule:nonzero;stroke:none"
             d="m 0,0 -16.316,134.428 c -0.203,-0.01 -0.402,-0.032 -0.607,-0.032 -3.893,0 -7.33,1.915 -9.45,4.846 l -18.21,-73.914 -10.915,-44.299 -5.457,-22.148 -1.951,-7.922 c 3.424,-1.096 6.148,-3.734 7.38,-7.094 z" /></g><g
           transform="translate(133.21,174.5508)"
           id="g158"><path
             id="path160"
             style="fill:#d74a4a;fill-opacity:1;fill-rule:nonzero;stroke:none"
             d="m 0,0 -2.321,19.127 -1.986,-0.578 1.984,0.576 z" /></g><g
           transform="translate(228.6108,429.8618)"
           id="g162"><path
             id="path164"
             style="fill:#d74a4a;fill-opacity:1;fill-rule:nonzero;stroke:none"
             d="M 0,0 18.13,-16.404 0.004,0 l -67.653,61.227 -1.798,1.627 1.799,-1.63 z" /></g><g
           transform="translate(69.7397,194.1641)"
           id="g166"><path
             id="path168"
             style="fill:#fae1c5;fill-opacity:1;fill-rule:nonzero;stroke:none"
             d="m 0,0 5.457,22.148 10.915,44.299 18.21,73.914 c 2.119,-2.931 5.556,-4.845 9.45,-4.845 0.204,0 0.404,0.021 0.606,0.031 L 60.955,1.119 5.429,-15.016 c -1.233,3.36 -3.957,5.998 -7.38,7.094 z m 50.591,205.341 9.436,38.299 10.914,44.298 3.068,12.453 c 0.109,-0.024 0.223,-0.034 0.334,-0.055 0.696,-0.128 1.407,-0.211 2.146,-0.211 3.021,0 5.761,1.159 7.839,3.045 l 5.096,-4.619 1.798,-1.627 67.653,-61.226 18.126,-16.405 14.433,-13.057 c -0.002,0 -0.002,-0.002 -0.002,-0.003 h 0.002 c -0.573,-0.865 -1.029,-1.813 -1.354,-2.82 -0.35,-1.084 -0.548,-2.236 -0.564,-3.434 l -0.442,-0.065 -0.366,-0.058 -0.271,-5.534 -95.639,-30.668 -6.726,-2.156 -31.212,-10.01 c -10e-4,0.002 -10e-4,0.004 -0.002,0.004 -0.039,0.098 -0.086,0.194 -0.127,0.289 -0.529,1.229 -1.256,2.352 -2.152,3.321 -2.127,2.294 -5.169,3.734 -8.547,3.734 -1.352,0 -2.646,-0.24 -3.852,-0.666 -0.463,-0.164 -0.915,-0.348 -1.35,-0.566 v 10e-4 0 z m 139.471,-10.495 0.052,1.073 0.354,-0.944 z M 232.281,83.564 220.77,87.506 185.411,99.613 v 0.004 h -0.003 l 3.448,70.543 1.123,22.98 1.051,0.337 0.001,-0.003 0.003,0.002 z m -31.114,104.591 c 2.788,0 5.346,0.981 7.353,2.615 l 85.664,-77.526 67.654,-61.226 16.913,-15.309 4.824,-4.365 c -0.08,-0.166 -0.167,-0.328 -0.239,-0.5 l -149.099,51.052 -40.508,107.94 c 2.019,-1.673 4.611,-2.681 7.438,-2.681 m 8.838,4.092 c 1.75,2.038 2.824,4.672 2.824,7.571 0,0.215 -0.021,0.426 -0.032,0.64 l 0.003,0.001 v 0 l 54.264,17.403 86.881,27.864 43.445,13.927 3.445,1.103 11.121,3.566 c 10e-4,-10e-4 10e-4,-0.002 10e-4,-0.003 1.47,-3.683 4.755,-6.432 8.758,-7.152 l -0.775,-7.03 -20.025,-181.395 -3.314,-30.037 h -0.003 v -0.004 c -0.3,0.067 -0.61,0.11 -0.917,0.154 -0.523,0.073 -1.051,0.122 -1.599,0.122 -1.892,0 -3.674,-0.454 -5.254,-1.252 -1.802,-0.914 -3.339,-2.28 -4.452,-3.952 l -0.002,0.004 v -0.002 l -0.829,0.752 -3.722,3.368 -15.917,14.406 -0.995,0.9 -8.583,7.768 -59.072,53.459 -47.322,42.828 -38.25,34.614 c 0.112,0.119 0.214,0.251 0.321,0.377 M 401.409,18.254 c 0.273,0.221 0.537,0.453 0.79,0.697 0,0 10e-4,0.002 0.002,0.002 l 45.174,-40.623 48.646,-43.74 c -0.348,-0.205 -0.683,-0.428 -1.008,-0.666 L 387.272,-23.9 265.371,23.818 v 0.002 h -0.004 c 0.347,1.106 0.535,2.28 0.535,3.498 0,2.789 -0.981,5.348 -2.614,7.356 -2.14,2.625 -5.398,4.303 -9.049,4.303 -0.728,0 -1.437,-0.073 -2.13,-0.202 -0.41,-0.078 -0.815,-0.168 -1.208,-0.285 h -0.002 l -6.89,18.364 -9.046,24.105 0.004,-0.002 -0.001,0.002 147.865,-50.627 c -0.256,-0.967 -0.407,-1.975 -0.407,-3.014 0,-3.218 1.305,-6.134 3.414,-8.244 2.109,-2.109 5.023,-3.414 8.244,-3.414 2.776,0 5.324,0.973 7.327,2.594 m -159.336,-44.164 -16.248,-89.787 -2.031,-11.223 -1.015,-5.613 -0.354,-1.953 -0.123,0.062 -1.27,0.647 -20.318,10.373 -40.634,20.744 -80.125,40.902 c 0.407,1.188 0.638,2.457 0.638,3.783 0,2.323 -0.686,4.479 -1.856,6.297 l 68.686,57.463 17.496,14.637 8.146,6.814 c 2.122,-2.209 5.099,-3.59 8.404,-3.59 6.441,0 11.662,5.223 11.662,11.663 0,5.978 -4.5,10.898 -10.296,11.576 l 2.495,51.068 47.675,-16.326 16.402,-43.703 c -4.026,-1.84 -6.829,-5.891 -6.829,-10.606 0,-4.851 2.964,-9.007 7.179,-10.765 z M 68.931,-46.313 c -0.203,0 -0.404,-0.019 -0.606,-0.031 l -5.621,46.309 107.827,31.334 c 0.373,-1.02 0.883,-1.971 1.511,-2.834 L 163.894,21.648 146.398,7.01 77.782,-50.395 c -2.139,2.497 -5.307,4.082 -8.851,4.082 m -12.247,182.161 88.459,-72 26.805,-21.819 c -0.453,-0.64 -0.838,-1.33 -1.157,-2.056 -0.626,-1.43 -0.98,-3.004 -0.98,-4.664 0,-0.664 0.073,-1.307 0.178,-1.938 0.03,-0.178 0.05,-0.363 0.088,-0.541 L 62.509,1.572 V 1.574 L 62.505,1.572 54.368,68.65 46.226,135.729 c 2.472,0.47 4.662,1.726 6.315,3.492 z M 183.755,98.492 181.238,46.959 c -3.268,-0.063 -6.2,-1.471 -8.279,-3.693 l -26.808,21.822 -70.766,57.6 -17.692,14.4 -4.14,3.371 c 0.482,0.682 0.9,1.414 1.229,2.193 z m -128.411,51.475 37.943,12.166 95.066,30.486 -4.517,-92.467 -128.549,44.016 c 0.256,0.963 0.406,1.967 0.406,3.01 0,0.963 -0.13,1.894 -0.349,2.789 m 4.061,-201.235 h -0.003 l -0.735,0.377 -53.454,27.286 c 0.607,1.408 0.935,2.957 0.935,4.578 0,0.855 -0.096,1.687 -0.272,2.486 l 53.288,15.477 1.985,0.578 2.321,-19.127 3.27,-26.916 c -3.028,-0.575 -5.625,-2.319 -7.335,-4.739 m -64.915,20.58 c 4.244,0 7.948,2.276 9.989,5.667 l 54.092,-27.614 c -0.826,-1.601 -1.301,-3.414 -1.301,-5.34 0,-2.798 0.987,-5.367 2.632,-7.377 l -113.341,-94.822 h 2.489 l 111.955,93.662 c 2.082,-1.933 4.861,-3.125 7.926,-3.125 4.548,0 8.476,2.608 10.4,6.403 l 80.023,-40.85 40.634,-20.744 20.317,-10.373 1.27,-0.647 0.635,-0.326 c -0.851,-0.543 1.921,0.281 1.634,0.551 l 0.507,2.805 1.016,5.613 2.031,11.223 16.248,89.787 7.643,42.244 c 0.944,-0.248 1.93,-0.393 2.951,-0.393 3.728,0 7.038,1.756 9.173,4.477 L 274.66,8.018 398.809,-125.738 430.77,-160.174 h 2.18 l -32.97,35.522 -124.149,133.756 -11.499,12.39 c 0.159,0.274 0.305,0.557 0.441,0.844 l 228.862,-89.592 c -2.087,-2.105 -3.379,-5.004 -3.379,-8.205 0,-6.414 5.182,-11.617 11.587,-11.658 l 8.258,-73.057 h 1.609 l -8.27,73.162 c 5.719,0.748 10.14,5.627 10.14,11.553 0,6.439 -5.221,11.662 -11.662,11.662 -1.541,0 -3.009,-0.307 -4.355,-0.849 l -94.298,84.787 c 1.551,1.98 2.483,4.468 2.483,7.177 0,5.008 -3.161,9.266 -7.593,10.918 l 3.349,30.332 20.021,181.39 0.779,7.039 c 0.161,-0.007 0.318,-0.024 0.48,-0.024 6.442,0 11.661,5.22 11.661,11.661 0,6.441 -5.219,11.662 -11.661,11.662 -6.441,0 -11.663,-5.221 -11.663,-11.662 0,-0.963 0.131,-1.893 0.352,-2.788 l -14.568,-4.671 -43.444,-13.931 -86.887,-27.864 -53.968,-17.306 c -1.051,5.361 -5.771,9.405 -11.439,9.405 -3.493,0 -6.619,-1.543 -8.756,-3.976 l -32.463,29.379 -67.654,61.227 -6.856,6.205 c 1.69,2.024 2.709,4.626 2.709,7.469 0,6.441 -5.221,11.662 -11.662,11.662 -6.441,0 -11.662,-5.221 -11.662,-11.662 0,-5.029 3.19,-9.303 7.653,-10.939 L 69.39,288.32 58.476,244.022 36.882,156.379 c -2.741,-2.135 -4.512,-5.459 -4.512,-9.201 0,-1.725 0.383,-3.358 1.055,-4.83 L 14.819,66.83 3.906,22.531 -1.552,0.383 -3.506,-7.549 c -0.652,0.113 -1.319,0.184 -2.004,0.184 -6.441,0 -11.662,-5.221 -11.662,-11.662 0,-0.328 0.023,-0.653 0.049,-0.975 l -43.289,-6.648 v -1.618 l 43.529,6.686 c 1.167,-5.211 5.81,-9.106 11.373,-9.106" /></g><g
           transform="translate(565.7573,128.7539)"
           id="g170"><path
             id="path172"
             style="fill:#d74a4a;fill-opacity:1;fill-rule:nonzero;stroke:none"
             d="m 0,0 -48.643,43.74 -45.173,40.623 c -10e-4,0 -0.002,-0.002 -0.002,-0.002 -0.253,-0.246 -0.518,-0.476 -0.79,-0.697 -2.003,-1.621 -4.551,-2.594 -7.328,-2.594 -3.22,0 -6.134,1.305 -8.244,3.414 -2.108,2.11 -3.414,5.024 -3.414,8.245 0,1.039 0.152,2.046 0.407,3.013 l -147.864,50.627 v -0.002 l 9.043,-24.103 6.889,-18.364 h 0.003 c 0.393,0.12 0.799,0.209 1.207,0.286 0.693,0.128 1.403,0.201 2.131,0.201 3.651,0 6.908,-1.678 9.048,-4.303 1.635,-2.008 2.618,-4.564 2.618,-7.355 0,-1.221 -0.192,-2.395 -0.535,-3.499 V 89.229 L -108.745,41.51 -1.007,-0.664 C -0.679,-0.424 -0.344,-0.201 0,0" /></g><g
           transform="translate(260.7705,387.6377)"
           id="g174"><path
             id="path176"
             style="fill:#d74a4a;fill-opacity:1;fill-rule:nonzero;stroke:none"
             d="m 0,0 -1.052,-0.333 -1.122,-22.98 -3.449,-70.543 H -5.62 L 29.739,-105.968 41.25,-109.909 0.003,0.002 Z" /></g><g
           transform="translate(130.8867,193.6758)"
           id="g178"><path
             id="path180"
             style="fill:#d74a4a;fill-opacity:1;fill-rule:nonzero;stroke:none"
             d="m 0,0 -1.983,-0.576 -53.288,-15.477 c 0.176,-0.799 0.272,-1.631 0.272,-2.486 0,-1.621 -0.328,-3.17 -0.935,-4.578 l 53.454,-27.285 0.735,-0.377 h 0.003 c 1.71,2.42 4.307,4.164 7.335,4.738 l -3.27,26.916 z" /></g><g
           transform="translate(317.6733,351.4199)"
           id="g182"><path
             id="path184"
             style="fill:#d74a4a;fill-opacity:1;fill-rule:nonzero;stroke:none"
             d="m 0,0 47.321,-42.824 59.074,-53.463 8.583,-7.768 0.994,-0.9 15.922,-14.402 3.717,-3.372 0.829,-0.751 v 0.001 c 1.116,1.674 2.654,3.036 4.455,3.948 1.58,0.799 3.362,1.252 5.253,1.252 0.548,0 1.077,-0.049 1.599,-0.121 0.308,-0.043 0.615,-0.084 0.917,-0.151 h 0.003 l 3.314,30.037 20.026,181.395 0.774,7.031 c -4.003,0.719 -7.288,3.468 -8.758,7.151 L 152.901,103.5 149.456,102.397 106.012,88.47 19.131,60.606 -35.133,43.204 v -10e-4 c 0.008,-0.217 0.031,-0.424 0.031,-0.64 0,-2.897 -1.072,-5.532 -2.826,-7.572 -0.108,-0.126 -0.209,-0.258 -0.322,-0.377 z" /></g><g
           transform="translate(240.5308,234.1367)"
           id="g186"><path
             id="path188"
             style="fill:#d74a4a;fill-opacity:1;fill-rule:nonzero;stroke:none"
             d="m 0,0 c 0.318,0.727 0.701,1.416 1.153,2.057 l -26.8,21.814 -88.464,72.004 -4.139,3.371 c -1.654,-1.766 -3.844,-3.021 -6.313,-3.492 l 8.14,-67.076 8.137,-67.078 0.004,0.002 107.566,31.259 c -0.037,0.176 -0.056,0.36 -0.086,0.537 -0.105,0.631 -0.178,1.274 -0.178,1.938 0,1.66 0.354,3.234 0.98,4.664" /></g><g
           transform="translate(108.5698,351.7695)"
           id="g190"><path
             id="path192"
             style="fill:#d74a4a;fill-opacity:1;fill-rule:nonzero;stroke:none"
             d="m 0,0 c 0.435,0.217 0.887,0.402 1.35,0.564 1.206,0.426 2.5,0.666 3.852,0.666 3.378,0 6.42,-1.439 8.547,-3.734 0.897,-0.969 1.624,-2.092 2.152,-3.32 0.041,-0.096 0.088,-0.192 0.127,-0.289 l 31.214,10.006 6.726,2.156 95.638,30.668 0.272,5.534 v 0.004 l 0.366,0.053 0.442,0.066 c 0.016,1.197 0.214,2.35 0.564,3.433 0.324,1.008 0.779,1.956 1.352,2.821 0,10e-4 0,0.002 0.002,0.003 l -14.433,13.057 -18.13,16.404 -67.648,61.224 -1.799,1.63 -5.096,4.619 c -2.078,-1.887 -4.818,-3.045 -7.839,-3.045 -0.739,0 -1.45,0.082 -2.146,0.21 -0.11,0.021 -0.223,0.031 -0.331,0.054 l -3.069,-12.45 -10.915,-44.3 -9.437,-38.299 z" /></g><g
           transform="translate(769.1675,708.8623)"
           id="g194"><path
             id="path196"
             style="fill:#3e1d15;fill-opacity:1;fill-rule:nonzero;stroke:none"
             d="m 0,0 -4.275,-17.355 -8.552,-34.709 -14.269,-57.915 c -1.661,2.296 -4.354,3.796 -7.403,3.796 -0.162,0 -0.318,-0.016 -0.476,-0.024 L -47.76,-0.877 -4.253,11.765 C -3.287,9.132 -1.152,7.066 1.529,6.207 Z m -30.425,-123.491 -9.216,-37.404 -7.392,-30.008 -8.552,-34.711 -2.404,-9.756 c -0.086,0.019 -0.174,0.026 -0.262,0.043 -0.544,0.1 -1.103,0.164 -1.681,0.164 -2.368,0 -4.514,-0.907 -6.143,-2.385 l -3.992,3.618 -1.409,1.275 -53.01,47.975 -14.202,12.852 -11.308,10.232 v 0.001 0.001 c 0.448,0.679 0.806,1.422 1.06,2.21 0.272,0.85 0.429,1.753 0.442,2.691 l 0.348,0.051 0.284,0.045 0.214,4.337 74.937,24.029 5.27,1.689 24.458,7.843 v -0.003 c 0.03,-0.076 0.067,-0.15 0.099,-0.225 0.414,-0.963 0.985,-1.844 1.687,-2.602 1.666,-1.8 4.05,-2.927 6.698,-2.927 1.059,0 2.072,0.189 3.017,0.522 0.364,0.128 0.717,0.273 1.057,0.443 m -118.497,-29.179 -0.042,-0.842 -0.277,0.739 z m -33.082,87.193 9.019,-3.089 27.707,-9.487 v -0.002 h 0.003 l -2.703,-55.274 -0.877,-18.006 -0.826,-0.264 -10e-4,0.003 -0.002,-0.001 z m 24.38,-81.952 c -2.185,0 -4.189,-0.769 -5.761,-2.048 l -67.122,60.745 -53.01,47.975 -13.253,11.993 -3.78,3.42 c 0.064,0.132 0.132,0.259 0.189,0.393 l 116.826,-40.003 31.739,-84.575 c -1.582,1.311 -3.612,2.1 -5.828,2.1 m -6.926,-3.206 c -1.369,-1.597 -2.21,-3.661 -2.21,-5.931 0,-0.171 0.015,-0.335 0.024,-0.502 l -0.002,-10e-4 -42.519,-13.636 -68.076,-21.832 -34.041,-10.914 -2.699,-0.864 -8.713,-2.794 c -10e-4,0.001 -10e-4,0.001 -0.002,0.003 -1.152,2.885 -3.726,5.039 -6.862,5.603 l 0.608,5.509 15.689,142.131 2.598,23.535 h 10e-4 v 0.003 c 0.236,-0.052 0.479,-0.087 0.72,-0.121 0.41,-0.055 0.822,-0.095 1.252,-0.095 1.481,0 2.879,0.356 4.117,0.982 1.412,0.717 2.616,1.786 3.488,3.096 l 0.001,-0.003 c 0,0 10e-4,0.001 10e-4,0.002 l 0.649,-0.589 2.917,-2.639 12.472,-11.288 0.779,-0.706 6.726,-6.086 46.285,-41.888 37.079,-33.557 29.972,-27.121 c -0.09,-0.095 -0.169,-0.198 -0.254,-0.297 m -149.973,136.332 c -0.213,-0.173 -0.421,-0.354 -0.619,-0.547 0,0 -10e-4,0 -10e-4,-0.001 l -35.396,31.83 -38.117,34.273 c 0.272,0.16 0.535,0.335 0.79,0.521 l 84.42,-33.046 95.516,-37.39 v -0.001 l 0.002,-10e-4 c -0.27,-0.865 -0.419,-1.785 -0.419,-2.74 0,-2.186 0.77,-4.19 2.049,-5.763 1.677,-2.057 4.229,-3.373 7.09,-3.373 0.569,0 1.127,0.058 1.669,0.159 0.321,0.061 0.639,0.132 0.946,0.224 h 0.002 l 5.399,-14.388 7.088,-18.889 -0.003,0.002 v -0.003 l -115.859,39.67 c 0.199,0.757 0.319,1.547 0.319,2.361 0,2.522 -1.023,4.805 -2.675,6.46 -1.654,1.652 -3.936,2.674 -6.46,2.674 -2.175,0 -4.171,-0.761 -5.741,-2.032 m 124.848,34.604 12.731,70.354 1.59,8.793 0.796,4.398 0.278,1.532 0.097,-0.049 0.994,-0.508 15.92,-8.128 31.838,-16.253 62.783,-32.049 c -0.32,-0.932 -0.5,-1.927 -0.5,-2.965 0,-1.82 0.539,-3.51 1.454,-4.934 l -53.819,-45.025 -13.708,-11.469 -6.383,-5.339 c -1.663,1.731 -3.996,2.812 -6.585,2.812 -5.046,0 -9.137,-4.091 -9.137,-9.138 0,-4.684 3.524,-8.539 8.067,-9.069 l -1.956,-40.015 -37.354,12.792 -12.853,34.245 c 3.154,1.439 5.351,4.614 5.351,8.309 0,3.801 -2.323,7.058 -5.624,8.435 z m 135.664,15.988 c 0.161,0 0.317,0.015 0.476,0.024 l 4.405,-36.285 -84.488,-24.552 c -0.293,0.799 -0.693,1.545 -1.186,2.221 l 6.385,5.341 13.71,11.468 53.765,44.98 c 1.674,-1.956 4.156,-3.197 6.933,-3.197 m 9.597,-142.733 -69.312,56.416 -21.003,17.096 c 0.356,0.501 0.657,1.043 0.906,1.611 0.491,1.121 0.769,2.355 0.769,3.654 0,0.521 -0.056,1.025 -0.139,1.52 -0.024,0.14 -0.039,0.284 -0.07,0.421 l 84.285,24.495 v -0.003 l 0.002,10e-4 6.377,-52.558 6.38,-52.559 c -1.938,-0.37 -3.653,-1.352 -4.948,-2.736 z m -99.565,29.271 1.971,40.378 c 2.561,0.049 4.858,1.153 6.487,2.894 l 21.004,-17.098 55.45,-45.132 13.862,-11.284 3.244,-2.641 c -0.377,-0.534 -0.706,-1.107 -0.963,-1.718 z m 100.615,-40.332 -29.73,-9.535 -74.489,-23.886 3.539,72.451 100.726,-34.488 c -0.203,-0.753 -0.32,-1.541 -0.32,-2.357 0,-0.756 0.102,-1.484 0.274,-2.185 m -3.183,157.676 0.004,-0.002 0.575,-0.294 41.884,-21.379 c -0.476,-1.102 -0.732,-2.317 -0.732,-3.588 0,-0.67 0.075,-1.321 0.213,-1.948 l -41.754,-12.126 -1.557,-0.453 -1.817,14.986 -2.563,21.091 c 2.375,0.452 4.408,1.816 5.747,3.713 M 4.318,24.045 c -3.325,0 -6.228,-1.781 -7.827,-4.439 l -42.385,21.637 c 0.649,1.254 1.022,2.674 1.022,4.183 0,2.193 -0.775,4.205 -2.063,5.78 l 88.854,74.336 H 39.968 L -47.8,52.116 c -1.632,1.514 -3.808,2.447 -6.211,2.447 -3.562,0 -6.641,-2.042 -8.148,-5.017 l -62.701,32.009 -31.839,16.254 -15.92,8.127 -0.995,0.507 -0.498,0.254 c 0.667,0.427 -1.505,-0.218 -1.279,-0.429 l -0.398,-2.2 -0.797,-4.396 -1.591,-8.795 -12.73,-70.352 -5.989,-33.099 c -0.741,0.194 -1.513,0.306 -2.313,0.306 -2.921,0 -5.515,-1.375 -7.187,-3.507 l -8.812,9.494 -97.277,104.802 -25.079,27.021 h -1.708 l 25.869,-27.872 97.276,-104.803 9.01,-9.707 c -0.124,-0.216 -0.238,-0.438 -0.346,-0.662 l -179.324,70.198 c 1.637,1.65 2.649,3.921 2.649,6.43 0,5.026 -4.06,9.102 -9.08,9.134 l -6.475,57.282 h -1.261 l 6.486,-57.365 c -4.482,-0.585 -7.947,-4.409 -7.947,-9.051 0,-5.047 4.092,-9.138 9.138,-9.138 1.208,0 2.358,0.24 3.413,0.666 l 73.887,-66.436 c -1.215,-1.551 -1.946,-3.5 -1.946,-5.623 0,-3.924 2.477,-7.261 5.949,-8.555 l -2.623,-23.766 -15.689,-142.128 -0.61,-5.516 c -0.125,0.006 -0.249,0.02 -0.375,0.02 -5.048,0 -9.139,-4.091 -9.139,-9.138 0,-5.047 4.091,-9.137 9.139,-9.137 5.046,0 9.137,4.09 9.137,9.137 0,0.754 -0.1,1.483 -0.273,2.185 l 11.414,3.659 34.04,10.917 68.08,21.831 42.286,13.561 c 0.825,-4.2 4.523,-7.37 8.963,-7.37 2.737,0 5.186,1.21 6.862,3.116 l 25.435,-23.02 53.012,-47.974 5.372,-4.862 c -1.326,-1.585 -2.122,-3.625 -2.122,-5.852 0,-5.047 4.089,-9.139 9.136,-9.139 5.046,0 9.137,4.092 9.137,9.139 0,3.94 -2.499,7.289 -5.997,8.571 l 2.419,9.812 8.552,34.71 16.92,68.674 c 2.147,1.672 3.536,4.275 3.536,7.21 0,1.351 -0.302,2.63 -0.828,3.784 l 14.58,59.172 8.549,34.71 4.277,17.355 1.531,6.214 C 3.259,5.826 3.782,5.77 4.318,5.77 c 5.047,0 9.138,4.091 9.138,9.138 0,0.258 -0.018,0.512 -0.038,0.764 l 30.172,4.635 v 1.267 L 13.229,16.91 c -0.914,4.083 -4.552,7.135 -8.911,7.135" /></g></g></g></g></svg>